<svg version="1.1" id="Layer_1" xmlns="http://www.w3.org/2000/svg" x="0" y="0" viewBox="0 0 1400 250" xml:space="preserve"><style type="text/css">.st0{fill:#1e1c1b}.st1{fill:#161514}</style><title>graphic-treeline</title><path class="st0" d="M828.2 153.3c-.2.7.7.7 1.8.5.1-.1-.5-.2-1.8-.5zM841.5 117.7c.2.3.5.5.7.7l-.7-.7zM827 156.8c-2.6-.1-1.8-.1 0 0zM681.9 119.5c.4-.6.9-1 1.6-1.2-.7.1-1.3.6-1.6 1.2zM926.3 96.9c.4-.6.9-1 1.6-1.2-.7.2-1.3.6-1.6 1.2zM1011.8 106c.2-.4.6-.7 1-.8-.5.1-.8.4-1 .8zM1007.2 135.9l-.9-.2c0 .1.4.1.9.2zM858 85.8c.4-.6.9-1 1.6-1.2-.7.1-1.2.6-1.6 1.2zM729 106.5c-.5-.5-1.1-1-1.8-1.6.5.6 1.1 1.2 1.8 1.6zM749.8 131.1c.3-.5.7-.8 1.3-1-.6.1-1 .5-1.3 1zM644.8 181.8c-1.4 1-.7.6 0 0zM651.3 182.6c1.4 0 .8-.1 0 0zM804.1 92.2c-1-1.5-2.3-2.9-2.7-3.4.7 1.2 1.6 2.4 2.7 3.4zM788.7 140.9c-1.7 1.3-.8.8 0 0zM819.3 113.3c.3.3.5.5.6.9-.1-.2-.3-.6-.6-.9zM503.1 231.6c-.1.7.6.7 1.8.5 0-.2-.6-.3-1.8-.5zM516.3 196c.2.3.5.5.7.7-.3-.3-.5-.6-.7-.7zM601.2 175.2c.4-.6.9-1 1.6-1.2-.7.1-1.3.6-1.6 1.2zM532.9 164c.4-.6.9-1 1.6-1.2-.7.1-1.3.6-1.6 1.2zM564.2 175.2c.4-.6.9-1 1.6-1.2-.7.1-1.3.6-1.6 1.2zM403.8 184.8c-.5-.5-1.1-1-1.8-1.6.6.6 1.2 1.1 1.8 1.6zM494.2 191.6c.3.3.5.5.6.9-.1-.3-.4-.6-.6-.9zM479 170.5c-1-1.5-2.3-2.9-2.7-3.4.7 1.2 1.6 2.4 2.7 3.4zM245.9 153.8l-1.4-.3c.1.1.6.2 1.4.3zM252.8 108.1c.4-.6.9-1 1.6-1.2-.7.2-1.2.6-1.6 1.2zM295.8 131.7c.4-.6.9-1 1.6-1.2-.7.1-1.3.6-1.6 1.2zM446.3 170.4c.2-.4.6-.7 1-.8-.5.2-.8.5-1 .8zM375.2 152c.2-.4.6-.7 1-.8-.5.1-.8.4-1 .8zM338.3 117.2c.2-.4.6-.7 1-.8-.5.2-.8.5-1 .8zM333.8 147.1l-.9-.2s.3.1.9.2zM413.9 152zM184.6 97c.4-.6.9-1 1.6-1.2-.8.1-1.3.6-1.6 1.2zM21.4 74.8c.4-.6.9-1 1.6-1.2-.7.1-1.2.6-1.6 1.2zM171.9 113.6zM64 60.3c.2-.4.6-.7 1-.8-.5.2-.8.5-1 .8zM59.4 90.2l-.8-.2c-.1 0 .3.1.8.2zM3.5 43.2C1 41-1.7 41.6.1 37.3c-.8.6-1.6 1.4-2.1 2.3v5c1.1-1.2 6.3-1.4 5.5-1.4zM6.6 69.1c2.1-.3 4.2-.7 6.3-1.2-5.4-2.6-8.9 0-14.1-1.5C1.4 65.3 12 63.8 10.2 59c1.3 3.7-8.9 1.3-9 1.3.5-3.3 5.1-5.3 5.6-8.6l-8.8 2V71l16.1.9c-2.5 0-5.6-2.8-7.5-2.8z"/><path class="st1" d="M1375.7 119.4c-.2-.7-.4-1.5-.7-2.2-.1.8-.2 1.7-.3 2.7-7.2-3-8.2-6.3-13.4.4-2.5 3.3-5 1.9-7.6.7 2.7-.4 6-1.5 10.2-5.1.4-4.7-6.7-2.3-10.5-1.7 4.4-3.7 10.7-7.3 14.2-6.2-2.6-1.1-6.8-.8-10.4-.3-.7-.6-2-.2-3.4.5-1 .2-2.1.3-3.1.4.5-4.3 9.1-1.5 11.7-3.6-1.2.1-5.3.6-5.6-.5 4.1-1.5 6-1.8 2.1-1.8 2.5-1.3 5.2-2.3 7.9-2.9-3.3-.8.9-2.4 1.7-3-3.8 1.1-12.5 9.3-16.6 6.8-.5-.3-.7-.8-.7-1.4 1.2-1.7 2.4-3.4 3.8-5 1.5-1.4 3-2.6 3.4-2.9l-.9.5c.4-.4 1-.7 1.5-.8-1.5.4-3 1.1-4.2 2 0-1-.1-2.1-.1-3.1-1.2 1.6-3.1 2.6-4.4 4.1-.3-.4-.5-.8-.7-1.2.9-.9 1.8-1.9 2.6-2.9.9-1.2 12.9-12.2 8.1-12.2-4.4 2.8-8.5 6-12.2 9.5-.2-1.6-.3-3.2-.5-4.6-.8 2.3-1.4 4.7-1.9 7.1l-.6.6c.1-.5 7.1-24.6.1-10.4-3.8-3.6 3.4-27.2-1.9-25.8-6.8 8.7-7.9 18.9-3.5 30.5-1.2-3.3-3.5-6-6.6-7.6-.1 2.1.3 4.1 1.2 6-1.5-1.2-3.2-2-5.1-2.4 3.1 4.7 6 9.5 8.9 14.4-.4.2-.8.5-1.1.8-2.6-3-5.6-7.1-7.5-5.2-.2.7-.1 1.4.1 2.1-1.1-.6-2.3-.9-3.5-.7-2.4 1.7 2.2 5.5 6.5 8.2l-1 .3c.9.3 2.5.9 4.3 1.6.8.4 1.6.8 2.4 1.1 1.9 1.2 2.2 3.4 2.2 5.8l-8-1.8c.1.8.4 1.6.8 2.3-.3.4-.1 1.5.8 3.8-3.6-3.4-8.2-5.7-13.1-6.5-.1.1 6.5 6.7 11.8 12.8-3 .1-5.7-.4-4.8-2.7-1.6 4.2 4 6.4 9 7.9.6.8 1.1 1.6 1.6 2.5-1.4 0-2.7-.1-4.1-.2l-3.4-1.4c.6-.4 1.1-.8 1.5-1.4l-2.2 1.1-1.1-.5c-1.5-1.1-2.9-1-1.9-3.5-.7.5-1.3 1.2-1.6 2l-.3-.2c-.2-1.6-.6-3.2-1.1-4.7-.1 1.3-.3 2.6-.6 3.9-6.1-2.7-11.5-5.4-10.8-5.8-2.4 1.4 2 5.3 3.2 6.4-4.3-2.9-9.2-4.8-14.4-5.4 1.5 3.7 4.9 6.3 8.8 6.8-4.4-.8-3.2-.3.1.8-1 .5-2 1.1-2.9 1.7-.1-.7-.4-1.4-.7-2.1.1.9 0 1.8-.2 2.6-4.1 2.6-9 5.9-11.7 4.2-3.1-1.9 5.4-8.3 6.5-9.3l-3.6 1.9c0-1.1-.1-2.2-.1-3.4-1.2 1.6-3.1 2.6-4.4 4.1 0-.1-.1-.2-.1-.2.1-.2.3-.3.4-.5l-.6.3c-1.9-3.1-2-7.5-2.5-10.9-1.1 3.2-1.9 6.5-2.4 9.8-.2-.4-.2-1 .2-2.1-.5.3-.9.8-1.2 1.3-.3-.6-.7-1.2-1.2-1.7-.2-.8-.4-1.6-.7-2.4-.1.5-.1 1-.2 1.5-.3-.3-.6-.5-.9-.7.3.7.5 1.4.7 2.2-.1 1-.5 1.9-1 2.7-.6-.8-1.6-1.3-2.2-2l-.1 1.7-1.8-.9c.9.7 1.8 1.5 2.6 2.4-.9.5-1.8 1-2.6 1.6-1.8-1-3.8-2.5-4.9-2.8.4.3 2.4 1.1.8 1.5 1.3.3 2.7.8 3.9 1.4-1.9 0-1 .1 1 .9 0 .2-.3.3-.6.3l-6.3-3c1.7 2.1 4 3.6 6.6 4.2-1.7-.3-3.4-.3-5 .1 1.2-.2 2.3.1 3.3.7-.9.3-2.2.7-4.1 1.3 1.2.4 3.7 1.3 6.3 2.4 0 .8.1 1.6.2 2.6-1 .5-2.1.1-2.7-.8-2.7-3.5-3.1-1.5-7.1 0 3.5.5 6.3 3.4 10 3.5l.1.5-5.9-1.3c.2 1.2.7 2.3 1.5 3.2-1.7.6-3.2 1.2-3.1 1.1 1.6.2 4.6 0 1.5 1.2.6 0 2.3.1 4 .3.6.6 1.1 1.2 1.7 1.8l-.6.1c-1.6-3-1.7-1.9-1.3.3-2.5.6-4.8 1.4-3 1.9-.3.2-.6.4-.9.4-1.4-1.1-2.8-2.1-4.2-3-1.1 0-.8.9-.1 2v.1l-.1.1v.1c-.5-.2-1-.4-1.4-.5-.5 1.5.3 1.9 1.2 2.1 0 .4.1.8.3 1.1-1.5.1-2.9-.2-3.4-1.6-1.4-1 1.1-.8.5-1.7-1.4-2.3-10.6.2-12.8.3.2-1 1.2-1.5 2.7-1.7 1.1 0 2.3 0 3.4.2l-.9-.3c3 .2 6 .6 9 1.1-.6-.6-.4-.8.6-.6-.2-.7-3.5-.2-3.7-.9 1.2-.2 2-1.6 2.9-1.6-1.2-.2-2.3-.4-3.5-.6 1.6-.5 3.2-.7 4.9-.4-2.2-1.4-3.2-.8-6.2-1.2l5-2.3c-1.1.6-7.7 1.7-8.3 0-.2-.6 5.9-1.2 6.6-1-.6-.2-12.7-2.3-12.6-2.7 1.6-1.6 8.1 1.8 8.8.6-.2-.2-1-.4-.8-.8 2.4.4 0-2.9 3.7-.3-.5-1.7-1.9-2.9-3.7-3.2 2.9-.2 1.1-.3 0-1.5 1.3.7 1.9.4 2.1-.9l.1.5c1.6.1 3.1-.1 4.6-.7-6.4-.6-9.3-1.8-14.9-1.6 1-.4 1.9-1 2.8-1.6.8-.3 1.7-.5 2.5-.7-.4-.1-.7-.3-1.1-.4 2.1-1.7 3.6-3.5 2.9-3.8 1.5.4 3.1.3 4.6-.2-.6-.1-13.4-2-13-2.3 3.3.6 6.2-2 9.4-1.4-2.7-2.2-.9-2.2 2-1.3l-1.6-.9 1.5-.8c-.7 0-7.6.3-6.6-.9-1.2.4-4.6 2.6-5.9 1.2l4.6-2.3c-.6-.1-.7-.4-.3-.8l-3.2.2c.1-.2.2-.4.4-.5.7-.2 1.3-.4 2-.5l-.8-.2c.1-.1.2-.1.3-.2-.1 0-.3.1-.4.2l-5.6-1.7 10.9.6c-1.6 0-3.6-1.9-4.9-1.8 1.4-.2 2.7-.5 4.1-.8-3.6-1.7-5.8 0-9.2-1 1.8-.8 8.7-1.7 7.5-4.8.8 2.4-5.8.8-5.9.8.3-2.2 3.3-3.4 3.7-5.6l-6.9 1.5c-.4-2.4 5.8-4.3 7.3-4.9-5.5-1.8-2.1 0 .4-3.1l-6.1 2.9c-2.6-1.8 3.8-2 3.1-2-1.7-1.4-3.4-1-2.2-3.8-.9.6-1.5 1.5-1.8 2.6-.2-1.8-.6-3.7-1.2-5.4-.2 1.8-.3 4.1-1.4 5.6-.6-.8-1.6-1.3-2.2-2 0 .6 0 1.1-.1 1.7l-1.8-.9c.5.5 4.7 3.7 3.2 4.6-2 1.2-6.3-2.8-8.2-3.4.4.3 2.4 1.1.8 1.5 1.4.3 2.7.8 3.9 1.4-2 0-1 .1 1 .9-.1.6-2.2.3-2.8.2 1.3 1 5.6-.3 5.8 1.8-1.1 0-6-1.3-8.4-.3 2.9-.8 9.4 4.5 9.6 6-2.4-.9-4.4 2.8-6.4.1-2.7-3.5-3.1-1.5-7.1 0 2.6.4 4.8 2 7.3 2.9-.3.8-.5 1.7-.7 2.6l-2.2.8c-.3-.3-.5-.5-.8-.7l.3.9-1.3.5c.4.1.9.1 1.4.1.3 2.1-1.6 2-3.4 3.6-.6.1 3.1.2 4.4 1-.8.4-1.1.7-.1 1-.2.2-.5.3-.8.4l-7.4-3.6c2.6 3.3 5.9 2.5 3.6 3.2-.8-.3-1.5-.6-2.1-.8-.2.5-.2 1 0 1.4l-.9.3c.7.3 2 .7 3.5 1.3-.4.4-.8.7-1.3.8.9-.1 1.8-.2 2.8-.2 2 .9 4 2.1 4.6 3.5-1.3.2-5.7-.7-7.3-.6l-1.6-.4c.1.5.2.9.5 1.3-2.3.8-1 1 .7 1.1.1.2.3.3.4.5-1.5.3-3.1.7-4.2 1.9 5.8-.9 0 .1 1 1.1 6.4-3.6.1.2 5.1-.9.5.5.8 1.1 1.1 1.8-1.6 0-3.1-.1-3.9-.1 1.2.3.9.3-.8.7.9.1 1.8.3 2.7.6-2.6.4-6.2.6-5.5-1.5-.2.5-.2 1-.1 1.4-5.4-2.5-8.8 0-14-1.4 2.7-1.2 13.2-2.6 11.5-7.4 1.3 3.7-8.9 1.3-9.1 1.3.5-3.3 5.1-5.3 5.6-8.6l-10.5 2.3c-.6-3.6 8.8-6.5 11.2-7.4-8.3-2.8-3.2 0 .6-4.8l-9.3 4.5c-3.9-2.8 5.8-3 4.8-3.1-2.5-2.2-5.2-1.6-3.4-5.8-1.4 1-2.4 2.4-2.8 4-.3-2.8-1-5.6-1.9-8.3-.4 2.7-.4 6.3-2.1 8.6-1-1.2-2.4-1.9-3.3-3.1 0 .9 0 1.7-.1 2.6l-2.7-1.4c.8.8 7.3 5.6 4.9 7.1-3.1 1.9-9.6-4.3-12.5-5.2.6.5 3.7 1.7 1.2 2.3 2.1.5 4.1 1.2 6 2.2-3 0-1.5.2 1.6 1.4-.2.8-3.4.4-4.3.4 2 1.5 8.5-.5 8.9 2.7-1.7 0-9.2-2-12.8-.5 4.4-1.3 14.3 6.9 14.6 9.2-3.4-1.3-6.3 3.6-9.2.9.4-4 .7-7.5-1-7-.9 1.1-1.6 2.4-2.2 3.7-1.6-.9-2.9 0-5.2 1.2l-1.2-.6 2.2-1.3c-1.1.1-11.7.5-10.1-1.3-1.8.6-7 4-9 1.8l7.1-3.5c-.9-.2-1-.6-.4-1.3-2.8.2-5.7.4-8.5.6 2.4-.4 4.8-1.3 7.2-1.8l-10-3 16.7.9c-2.5 0-5.6-2.8-7.5-2.8 2.1-.3 4.2-.7 6.3-1.2-5.4-2.6-8.9 0-14.1-1.5 2.7-1.2 13.2-2.6 11.5-7.4 1.3 3.7-8.9 1.3-9.1 1.3.5-3.3 5.1-5.3 5.6-8.6l-10.5 2.3c-.6-3.6 8.8-6.5 11.2-7.4-8.3-2.8-3.2 0 .6-4.8l-9.3 4.5c-3.9-2.8 5.8-3 4.8-3.1-2.5-2.2-5.2-1.6-3.4-5.8-1.4 1-2.4 2.4-2.8 4-.3-2.8-1-5.6-1.9-8.3-.4 2.7-.4 6.3-2.1 8.6-1-1.2-2.4-1.9-3.3-3.1 0 .8 0 1.7-.1 2.6l-2.7-1.4c.8.8 7.3 5.6 4.9 7.1-3 1.6-9.6-4.6-12.5-5.4.6.5 3.7 1.7 1.2 2.3 2.1.5 4.1 1.2 6 2.2-3 0-1.5.2 1.6 1.4-.2.8-3.4.4-4.3.4 2 1.5 8.5-.5 8.9 2.7-1.7 0-9.2-2-12.8-.5 4.4-1.3 14.3 6.9 14.6 9.2-3.7-1.4-6.7 4.3-9.8.2-4.1-5.3-4.8-2.4-10.8 0 5.9.9 10.5 6.1 17 5.3.2.6-13.6 5.6-13.2 5.4 2.4.3 7-.1 2.3 1.9 2 .1 12.7.7 13.1 2.3-.1.1-17.1 3-11.8 4.4-3 2.3-7.2-.2-10.3-1.1-1.3 3.8 3 3.3 4.8 3.3-.5 1.3-1.6 2.2-2.9 2.5 2.3-.6 20.6-.5 18.9 5-1.7-.9-3.5-1.7-5.2-2.6-3.9-1.5-3.3 2.6-2 2.5-.9.8-9.8-1.1-12-.8 0 .5.3.8.9.7-6.5 1.9-4.3 2.3-1.3 2.4-.2.3-.4.7-.6 1.1-1.9.3-3.6 1.2-5 2.6 8.8-1.4 0 .2 1.5 1.6 1.2-.7 2.1-1.2 2.8-1.5l-.3 2.4-.5-.1c0 .1.2.1.4.2 0 .4 0 .8-.1 1.2l-.3.1h.3v4.2c-3.2-.1-4.8-.1-1.9.1-2.3 1.9-5.2.3-7.7 1.3 1.6 2 2.5-1 3.4 1.9-.8-.4-2.5-.2-2.4.9 1.9.1 8.5-1.2 6.7 2.2.8-.3 1.6-.5 2.4-.6.1.6.1 1.1.2 1.7l-1.5.6c-.9-.8-1.9-1.3-3.1-1.4-1.3.6-.3 2.7.9 4.7l-.1.1c-1.2-.9-2.6-1.6-4.1-1.9.6.9 1.2 1.8 1.7 2.7-1 .2-1.9.5-2.9.9-1.5-1.2-3-1-2.2-3.2l1.1.1c-.3-.2-.6-.4-.9-.5-.8-.4-1.6-.7-2.5-.8-.2-.7-.4-1.3-.6-2-.1.6-.1 1.2-.2 1.9-1.7 0-3.4-.2-5.2-.4l7.7-3.5c-1.7.9-11.8 2.6-12.7 0-.3-1 9-1.8 10.1-1.6-.9-.3-19.3-3.5-19.3-4.1 2.4-2.5 12.3 2.7 13.4 1-.4-.2-1.6-.6-1.3-1.2 3.7.7 0-4.4 5.7-.5-.8-2.5-3-4.4-5.6-4.9 4.4-.3 1.7-.5 0-2.3 1.9 1 3 .5 3.2-1.4l.1.7c2.4.2 4.8-.2 7-1-9.9-.9-14.2-2.7-22.8-2.4 5.2-2.2 12.6-9.3 11-10 2.3.6 4.8.5 7-.3-.9-.1-20.5-3.1-19.9-3.6 5.1.9 9.5-3.1 14.4-2.2-4.2-3.4-1.4-3.3 3.1-2l-2.5-1.4 2.3-1.3c-1.1.1-11.7.5-10.1-1.4-1.8.6-7 4-9 1.8l7.1-3.5c-.9-.2-1-.6-.4-1.3-2.8.2-5.7.4-8.5.6 2.4-.4 4.8-1.3 7.2-1.8l-9.9-3 16.7.9c-2.5 0-5.6-2.8-7.5-2.8 2.1-.3 4.2-.7 6.3-1.2-5.4-2.6-8.9 0-14.1-1.5 2.7-1.2 13.2-2.6 11.5-7.4 1.3 3.7-8.9 1.3-9.1 1.3.5-3.3 5.1-5.3 5.6-8.6l-10.5 2.3c-.6-3.6 8.8-6.5 11.2-7.4-8.3-2.8-3.2 0 .6-4.8l-9.3 4.5c-3.9-2.8 5.8-3 4.8-3.1-2.5-2.2-5.2-1.6-3.4-5.8-1.4 1-2.4 2.4-2.8 4-.3-2.8-1-5.6-1.9-8.3-.4 2.7-.4 6.3-2.1 8.6-1-1.2-2.4-1.9-3.3-3.1 0 .8 0 1.7-.1 2.6l-2.7-1.4c.8.8 7.3 5.6 4.9 7.1-3.1 1.9-9.6-4.3-12.5-5.2.6.5 3.7 1.7 1.2 2.3 2.1.5 4.1 1.2 6 2.2-3 0-1.5.2 1.6 1.4-.2.8-3.4.4-4.3.4 2 1.5 8.5-.5 8.9 2.7-1.7 0-9.2-2-12.8-.5 4.4-1.3 14.3 6.9 14.6 9.2-3.7-1.4-6.7 4.3-9.8.2-4.1-5.3-4.8-2.4-10.8-.1 5.9.9 10.5 6.1 17 5.3.2.6-13.6 5.6-13.2 5.4 2.4.3 7-.1 2.3 1.9 2 .1 12.7.7 13.1 2.3-.1.1-17.1 3-11.8 4.4-3 2.3-7.2-.2-10.3-1.1-1.3 3.8 3 3.3 4.8 3.3-.5 1.3-1.6 2.2-2.9 2.5 2.3-.6 20.6-.5 18.9 5-1.7-.9-3.4-1.7-5.2-2.6-3.9-1.5-3.3 2.6-2 2.5-.8.8-9.1-.9-11.7-.8-1-.3 1.7 0 3.7-2.1l-6.9 2.7c-3.1-1.8 5.3-1.8 3.6-1.9-.7-.5-1.1-.8-1.5-1 .3-.1.6-.4.5-1.3-3.7 1.7-1.6-.3-1.5-1.2-4.2 2.5-1.6 2-3.5-2.6-.7 4 .4 6.1-2.2 2.8l-.3 2.8c-.6-.6-1.4-1.1-2.1-1.7 1.2 1.3 3.2 3.8 2.1 4.4-2.6 1.3-6.9-2.6-9.3-3.1.4.3 2.8 1 .9 1.4 1.5.3 3 .8 4.4 1.4-2.2 0-1.2.1 1.2.8-.2.5-2.7.2-3.2.2 1.5.9 6.3-.4 6.6 1.7-1.1 0-7-1.7-8-.1 1-1.4 5.4 2.3 5.6 3.3-3.9-1.2-7.9 1-11.6 2.1 1.1-.2 2.2-.2 3.3 0-3.7.7.1.6.4 1.1 2.3-.3 3.2.9 4.8 1.3.9 2.9-3.3 3.5-5.1 3.5.6.3.5.5-.2.6-.1-.3-.2-.7-.3-1-.2 1.8-.3 4.1-1.4 5.6-.6-.8-1.6-1.3-2.2-2 0 .6 0 1.1-.1 1.7l-1.8-.9c.2.2 1.2 1 2 1.8-.6-.2-1.2-.4-1.7-.5-.8 1.9 1.7 2 3 2 .1.2.2.3.2.5-.4.5-1 .9-1.6 1-2.2-.4-5.3-3.1-6.9-3.6.4.3 2.4 1.1.8 1.5 1.4.3 2.7.8 3.9 1.4-2 0-1 .1 1 .9-.2.6-2.2.3-2.8.2 1.3 1 5.6-.3 5.8 1.8-.9 0-4.6-.9-7.2-.6-3.6-.9-6.3-2.2-9.8-1.9-.7-.7 15.9-3.8 6.8-8.6 1.6.5 3.4.4 4.9-.3-2.6-.3-6.5.4-8.6-1.8s4.1-3.8 5.2-3.5c-1.9-2.2-1.5-3.3 2.3-1.8-2.2-.8-2.2-1.7 0-2.4-6.1.5-5.5-1.4-10.1-1.9 2.6-1.2 2.7-2.2-.4-1.9 2.3-1.5 1.6-2.6-2.2-3.4.4-.1 5.9-2.7 6-3.5-3.7-2.3-4.7 0-8.4-1.3 1.9-1.1 6.3-3.2 8.5-1.2-.5-.7-1.1-1.4-1.8-2l2.9 1.1c-1-.8-1.5-2-1.5-3.3-.6-.4-5.4-.3-6.5-.3.3-2.8 3.4-5 3.4-7.8l-5.4 2.6c-.3-1.7 5.1-7.3 5.4-7.3-5.8-2.4-2.2.1-.2-4.4-2 1.4-3.9 2.7-5.9 4.1-2.6-2.1 2.1-3 3-2.8-2.8-.2-3.3-1.4-1.5-3.6-2 .7-2.6.1-1.7-1.8l-1.7 2.4c1.1-2 .1-10-.9-12.1.4 3.2-1.8 7.2-2.7 10.2l.1-.3v.1c-.1.3-.2.8-.4 1.5.4-.2.6-.7.5-1.1.7 2.9.6 4.1-.3 3.4 1.2 1.6 2 3.4 1.1 4.2-1.5 1.4-7.8-4.2-9.3-4.7.4.4 2.8 1.5 1.2 2.1 1.6.5 3 1.1 4.4 2-4.5 0 7.1 1.6-1.7 1.6 1.5 1.4 5.9-.3 6.4 2.5-.5 0-6.9-2-7.5-.2.5-1.6 5.5 4 5.6 5-1.4-.6-2.9-.6-4.3-.1 0-.1.1-.3.2-.4-.3.2-.5.4-.7.6-.4.2-.9.4-1.3.6-.2-1.4-.6-2.7-1.1-4.1-.2 1.7-.3 3.8-1.2 5.3l-.3.2c-.6-.7-1.5-1.2-2-1.9 0 .6 0 1.1-.1 1.7l-1.8-.9c.3.3 1.4 1.1 2.3 2.1l-.3.2c.1 0 .3-.1.4-.1.9 1 1.6 2 .8 2.4-2 1.2-6.3-2.8-8.2-3.4.4.3 2.4 1.1.8 1.5 1.4.3 2.7.8 3.9 1.4-2 0-1 .1 1 .9-.2.6-2.2.3-2.8.2 1.3 1 5.5-.3 5.8 1.8-1.1 0-6-1.3-8.4-.3 2.9-.8 9.4 4.5 9.5 6-2.4-.9-4.4 2.8-6.4.1-2.7-3.5-3.1-1.5-7.1 0 3.8.6 6.9 4 11.1 3.4.1.4-8.9 3.6-8.6 3.5 1.6.2 4.6 0 1.5 1.2.6 0 2.7.2 4.6.4.8.4 1.8.6 2.7.5h.1c-.1.3-.3.7-.5.9-3 .6-8.8 1.8-6.2 2.6-1.9 1.5-4.7-.1-6.8-.7-.8 2.5 2 2.2 3.1 2.2-.3.8-1 1.4-1.9 1.6 2.5-.3 4.9-.2 7.4.2-.4.3-.5.8-.5 1.2l.5.1c-.8.4-.4 1.8.2 1.7-.6.5-6.4-.7-7.8-.5 0 .4.2.5.6.4-6 1.8-.7 1.5 1.5 1.6-2 .6-4.5.6-6 2.3 5.8-.9 0 .1 1 1.1 6.9-3.8-.9.8 6.4-1.2-1.3 1.5 2.2 1.6 5.5 1.5 0 .1-.4.3-1.2.5-2.8.1-5.6.1-8.4-.1 1.2.3.9.3-.8.7.9.1 1.8.3 2.7.6-2 1.5 1.3-.3-1 1.1.5 1.1 9.1-.6 9.4 1.7 0-.3-17.5-1-12.2-.6-.9.6-2 .8-3.1.6-1.4-.7-2.7-1.6-3.7-1.6 1.7-.3 3.4-.6 5.1-1l-.5-.2.5-.1c-4.3-2.1-7.4-.9-11.1-1 2.7-.9 10.4-2.2 9-5.9.4 1.2-.6 1.6-1.9 1.7 1.3-.9 1.9-2.1 1.4-3.6.9 2.5-3.5 2.2-6.4 1.8 1.1-2 3.8-3.5 4.2-5.8l-3.8.8c1.2-1.2 2.4-2.5 2.6-4.1l-1.8.4c1.5-.6 2.9-1.1 3.5-1.3-6.8-2.3-2.6 0 .5-3.9l-7.6 3.7c-.7-.5-.8-.9-.7-1.2.7-.4 1.5-.7 2.2-1 1.4-.3 2.8-.3 2.5-.4-.2-.2-.3-.3-.5-.4 1.1-.4 2-.8 2.6-1-8.3-2.8-3.2 0 .6-4.8l-6 2.9c.1-.5.2-.9.4-1.3.8-.1 1.4-.1 1.1-.2-2.5-2.2-5.2-1.6-3.4-5.8-1.4 1-2.4 2.4-2.8 4-.3-2.8-1-5.6-1.9-8.3-.4 2.7-.4 6.3-2.1 8.6-1-1.2-2.4-1.9-3.3-3.1 0 .8 0 1.7-.1 2.6l-2.7-1.4c.6.6 4.8 3.8 5.3 5.8l-.6-.3c.1.1.3.3.7.6.1.4-.1.8-.5 1-1.7 1.1-4.5-.4-7.1-2 .3 0 .6 0 1-.1-.8-.3-1.5-.5-2.2-.7-1.3-.9-2.7-1.7-4.1-2.3.5.4 2.6 1.3 2.1 1.9-2.6-.3-4.2.4-8.4.3.4-2.4 4.3-3.5 4.7-6l-6.8 2c-.3-1.4 6.5-5.4 7.4-5.6-7.3-2-2.7.1.5-3.3l-7.8 3.1c-3.5-2 6.1-2 4-2.2-.7-.5-1.3-.9-1.7-1.2.4-.1.7-.5.5-1.5-5.5 2.5-1.1-.8-1.7-1.3-4.8 2.9-1.8 2.3-4-3-.3 1.7-.4 3.5-.3 5.2l-2.2-2c-.1 1-.2 2.1-.3 3.1l-1.5-1.2-.6-.6c.2-.4.3-.8.4-1.3l-1.5.3-9 2c-.6-3.6 8.8-6.5 11.2-7.4-8.3-2.8-3.2 0 .6-4.8l-9.1 4.5c-3.9-2.8 5.8-3 4.8-3.1-2.5-2.2-5.2-1.6-3.4-5.8-1.4 1-2.4 2.4-2.8 4-.3-2.8-1-5.6-1.9-8.3-.4 2.7-.4 6.3-2.1 8.6-1-1.2-2.4-1.9-3.3-3.1 0 .8 0 1.7-.1 2.6l-2.7-1.4c.8.8 7.3 5.6 4.9 7.1-3.1 1.9-9.6-4.3-12.5-5.2.6.5 3.7 1.7 1.2 2.3 2.1.5 4.1 1.2 6 2.2-3 0-1.5.2 1.6 1.4-.2.8-3.4.4-4.3.4 2 1.5 8.5-.5 8.9 2.7-1.7 0-9.2-2-12.8-.5 4.4-1.3 14.3 6.9 14.6 9.2-3.4-1.3-6.3 3.6-9.2.9 1.5-.6 2.9-1.5 3.9-2.8l-4.5 2.1-.5-.7c.5-.1.8-.1.6-.1-.6-.5-1.2-.9-1.9-1.3-.4-.4-.8-.6-1.3-.8-.8-.7-1.1-1.6-.2-3.8-1.4 1-2.4 2.4-2.8 4-.3-2.8-1-5.6-1.9-8.3-.4 2.7-.4 6.3-2.1 8.6-1-1.2-2.4-1.9-3.3-3.1 0 .8 0 1.7-.1 2.6l-2.7-1.4c.8.8 7.3 5.6 4.9 7.1-3.1 1.9-9.6-4.3-12.5-5.2.6.5 3.7 1.7 1.2 2.3 2.1.5 4.1 1.2 6 2.2-3 0-1.5.2 1.6 1.4-.2.8-3.4.4-4.3.4 2 1.5 8.5-.5 8.9 2.7-1.7 0-9.2-2-12.8-.5 4.4-1.3 14.3 6.9 14.6 9.2-3.7-1.4-6.7 4.3-9.8.2-4.1-5.3-4.8-2.4-10.8 0 5.5.8 10 5.5 15.9 5.3.1.2.3.3.5.4-2.6 1.4-13 5.1-12.6 5 2.5.3 7-.1 2.3 1.9 3.7.1 7.3.6 10.9 1.2-4 1.3-3.6 1.7-1.9 1.9-4.7 1-11.3 2.6-7.7 3.6-2.8 2.2-6.9 0-10-1 .1-.3.2-.7.3-1l.1.7c2.4.2 4.8-.2 7-1-2.1-.2-4-.4-5.8-.7 2.6-.7 4.8-1.4 4.9-2.6l-10.5.6c-1.8-.3-3.6-.6-5.3-.8 0-4.4 5-5.3 13.2-5.2-2.7-.9-7.4-1-10.4-1 1.9-.7 3.5-2 4.7-3.7l-5.8 3c.6-.6 1.1-1.2 1.6-1.8h.4l-.2-.2c.5-.8.7-1.3.2-1.5 2.3.6 4.8.5 7-.3-.3 0-2.5-.3-5.3-.8 1.7-.2 3.4-1 4.8-2.1-1.7.9-3.5 1.6-5.4 2l-4.7-.8c-.3-.5-.3-1.1-.1-1.7-.2.6-.4 1.1-.6 1.6l-2.3-.4c-.2-.7-.5-1.3-.8-2 3-.9 5.8-2.2 8.9-1.7-4.2-3.4-1.5-3.3 3.1-2l-2.5-1.4 2.2-1.3c-1.1.1-11.7.5-10.1-1.3-1.9.6-7 4-9 1.8l7.1-3.5c-.9-.2-1-.6-.4-1.3-2.8.2-5.7.4-8.5.6 2.4-.4 4.8-1.3 7.2-1.8l-10-3 16.7.9c-2.5 0-5.5-2.8-7.5-2.8 2.1-.3 4.2-.7 6.3-1.2-5.5-2.6-8.9 0-14.1-1.5 2.7-1.2 13.2-2.6 11.5-7.4 1.3 3.7-8.9 1.3-9 1.3.5-3.3 5.1-5.3 5.6-8.6L876 88.4c-.6-3.6 8.8-6.5 11.2-7.4-8.3-2.8-3.2 0 .6-4.8l-9.3 4.5c-3.9-2.8 5.8-3 4.8-3.1-2.5-2.2-5.2-1.6-3.4-5.8-1.4 1-2.4 2.4-2.8 4-.3-2.8-1-5.6-1.9-8.3-.4 2.7-.4 6.3-2.1 8.6-1-1.2-2.4-1.9-3.3-3.1 0 .9 0 1.7-.1 2.6l-2.7-1.4c.8.8 7.3 5.6 4.9 7.1-3.1 1.9-9.6-4.3-12.5-5.2.6.5 3.7 1.7 1.2 2.3 2.1.5 4.1 1.3 6 2.2-3 0-1.5.2 1.6 1.4-.2.8-3.4.4-4.3.4 2 1.5 8.5-.5 8.9 2.7-1.7 0-9.2-2-12.8-.5 4.4-1.3 14.3 6.9 14.6 9.2-3.7-1.4-6.7 4.3-9.8.2-4.1-5.3-4.8-2.4-10.8 0 5.9.9 10.5 6.1 17 5.3.2.6-13.6 5.6-13.2 5.4 2.5.3 7-.1 2.3 1.9 2 .1 12.7.7 13.1 2.3-.1.1-17.1 3-11.8 4.4-3 2.3-7.2-.2-10.3-1.1-1.3 3.8 3 3.3 4.8 3.3-.5 1.3-1.6 2.2-2.9 2.5 2.3-.6 20.6-.5 18.9 5-1.7-.9-3.5-1.7-5.2-2.6-3.9-1.5-3.3 2.6-2 2.5-.8.8-9.1-.9-11.7-.8-1-.3 1.7 0 3.7-2.1l-6.9 2.7c-3.1-1.8 5.3-1.8 3.6-1.9-.6-.5-1.1-.8-1.5-1 .3-.1.6-.4.5-1.3-3.7 1.7-1.6-.3-1.5-1.2-4.2 2.5-1.6 2-3.5-2.6-.7 4 .4 6.1-2.2 2.8-.1.9-.2 1.8-.3 2.8-.6-.6-1.5-1.1-2.1-1.7 1.2 1.3 3.2 3.8 2.1 4.4-2.6 1.3-6.9-2.6-9.3-3.1.4.3 2.8 1 .9 1.4 1.5.3 3 .8 4.4 1.4-2.2 0-1.2.1 1.2.8-.2.5-2.7.2-3.2.2 1.5.9 6.3-.4 6.6 1.7-1.1 0-7-1.7-8-.1 1-1.4 5.5 2.3 5.6 3.3-3.9-1.2-7.9 1-11.6 2.1 1.1-.2 2.2-.2 3.3 0-3.6.7.1.6.4 1.1 2.3-.3 3.2.9 4.8 1.3.9 2.9-3.3 3.4-5.1 3.6.7.4.5.6-.5.6 1.6.2 5.3-.1 1.7 1.2 4.1.5 2.8 1.8 1.6 2.8-.1 0-.2.1-.3.2-.6.5-1.1 1-.4 1.1-2.2 1.4-5.5-.1-7.7-.7-.9 2.3 2.7 2 3.6 2-.4.8-1.2 1.4-2.1 1.5 3.4-.7 8.4-.6 11.6 1.1-1.2.1-5.5 2-2.9 1.9-1 .8-6.8-.7-8.9-.5 0 .2.2.4.4.5h.1c-6.8 1.7-.4 1.4 1.9 1.5-2.2.6-5.1.5-6.8 2.2 1.1-.8 1.9-.9 2.4-.2l-1.4 1.1c.4.3 9.5-3.1 6.1.1 1.2-.7 2.6-1.1 3.9-1.4-2.1 1-4.3 1.7-6.5 2.3-.6.2-1.2.4-1.8.4l3.1.6c-2.4 1.4 1.6-.4-1.1 1.1.4.6 2-.1 2.8 1.2-.2.1-3.8-.1-6-.2-1.7 1.1-3.6.3-5.4.7.3-.6-1-.6-.6-1.3 2.5.6.4-4.1 4-.5-.1-2-1.4-3.8-3.4-4.5 2.9-.3 1.2-.4.2-2.1 1.4.7 2.2.3 2.4-1.3 1.5-.3 1.5-.1 0 .6 1.7.1 3.4-.2 5-.9-5.9-.7-9.1-3.1-13.8-2.7-.7-.7 15.9-3.8 6.8-8.6 1.6.5 3.4.4 4.9-.4-2.6-.3-6.5.4-8.6-1.8s4.1-3.8 5.2-3.5c-1.9-2.2-1.5-3.3 2.3-1.8-2.2-.8-2.2-1.7 0-2.4-6.1.5-5.5-1.4-10.1-1.9 2.6-1.2 2.7-2.2-.4-1.9 2.3-1.5 1.6-2.6-2.2-3.4.4-.1 5.9-2.7 6-3.5-3.7-2.3-4.7 0-8.4-1.3 1.9-1.1 6.3-3.2 8.5-1.2-.5-.7-1.1-1.4-1.8-2l2.9 1.1c-1-.8-1.5-2-1.5-3.3-.6-.4-5.5-.3-6.5-.3.3-2.8 3.4-5 3.4-7.8l-5.4 2.6c-.3-1.7 5.1-7.3 5.4-7.3-5.8-2.4-2.1.1-.2-4.4-2 1.4-3.9 2.7-5.9 4.1-2.5-2.1 2.1-3 3-2.8-2.8-.2-3.3-1.4-1.5-3.6-2 .7-2.6.1-1.7-1.8l-1.7 2.4c1.1-2 .1-10-.9-12.1.4 3.2-1.8 7.2-2.8 10.2l.1-.3v.1c-.1.3-.2.8-.4 1.5.4-.2.6-.7.5-1.1.7 2.9.6 4.1-.3 3.4 1.2 1.6 2 3.4 1.1 4.2-1.5 1.4-7.8-4.2-9.3-4.7.4.4 2.8 1.5 1.2 2.1 1.6.5 3 1.1 4.4 2-4.5 0 7.1 1.6-1.7 1.6 1.5 1.4 5.9-.3 6.4 2.5-.5 0-6.9-2-7.5-.2.5-1.6 5.5 4 5.6 5-3.6-1.7-7.5 1.6-10.7 3.2 1-.4 2.1-.4 3.1 0-3.2 1 0 .4.4 1.7 7.6-1.6 3.1 6.4-.8 8.1 3.5.7 4.2.3 1.6 1.7 8 0-2 5.2.6 6.2-2.1 2-4.9-.1-7.1-1-1 3.2 1.3 3 3.2 3-.3 1.1-1.1 1.9-2.1 2.3 2.4-.8 11.9-1.1 10.6 3.1-3.6-1.6-3.4.5-3 1.2-1.5-.4-9.1-.4-7.4-.1-2.2-.3-3.3.3-3.2 1.6 1.5.4 3 .5 4.5.4.1.9-5.7 2.4-6.6 3.7 2.9-.6 2.4.4 1.5 1.1l1.7-1.2c-.5.7-.8 1.4-.9 2.2 2.2.8 2.2.7-.1 1.3 5.8 1.7 1.1.6 1.7 2.6 1.9-.2 1.9-.2 2.4 1.6 0 0-11.3-.8-5.5-.3-1.7 1.7-3.6.3-5.5 1.2 1 2 1.8-1.1 2.1 1.7-.5-.4-1.1-.3-1.5.1-.2.2-.3.4-.3.7 1.7.1 5.9-.9 4.4 2 4.4-2.4.1-.3 4-.3.2 1.8-1.3 2.5-4.5 2.2.2 0 6.9 6.3-.4 1 .6 2.6-2.8 1.9-5.4 3.9.7-.4 1.5-.5 2.3-.2.3.5-.4 1.5-1.3 2.5-4.9-.8-11.8-1.9-11.5-2.2 4.2.7 7.8-2.6 11.8-1.8-3.4-2.8-1.2-2.7 2.5-1.6l-2-1.1 1.8-1.1c-.9.1-9.6.4-8.3-1.1-1.5.5-5.8 3.3-7.3 1.5l5.8-2.9c-.7-.1-.8-.5-.4-1-2.3.2-4.6.4-7 .5 2-.4 3.9-1.1 5.9-1.5l-8.2-2.5 13.7.8c-2 0-4.5-2.3-6.2-2.3 1.7-.3 3.4-.6 5.1-1-4.5-2.1-7.3 0-11.5-1.2 2.2-.9 10.8-2.2 9.4-6 1 3.1-7.3 1-7.4 1 .4-2.7 4.2-4.3 4.6-7l-8.6 1.9c-.5-3 7.2-5.4 9.2-6.1-6.8-2.3-2.6 0 .5-3.9l-7.5 3.7c-3.2-2.3 4.8-2.5 3.9-2.6-2.1-1.8-4.2-1.3-2.8-4.8-1.1.8-1.9 1.9-2.3 3.3-.3-2.3-.8-4.6-1.6-6.8-.3 2.2-.3 5.1-1.7 7.1-.8-.9-2-1.6-2.7-2.6 0 .7 0 1.4-.1 2.1l-2.2-1.2c.7.7 6 4.6 4 5.8-2.5 1.6-7.9-3.6-10.3-4.2.5.4 3 1.4 1 1.9 1.7.4 3.4 1 4.9 1.8-2.5 0-1.2.2 1.3 1.1-.2.7-2.8.3-3.5.3 1.6 1.3 7-.4 7.3 2.2-1.4 0-7.6-1.6-10.5-.4 3.6-1.1 11.8 5.7 12 7.5-3-1.1-5.5 3.5-8.1.1-1.9-2.5-2.8-2.8-4.2-2.2-.9-1.1 1.8-.6 4.4 0l-2.1-1 1.9-.9c-6.7.3-7.7-1.1-12.5-1.4l2.4-.7c-.8.2 1.2-1-3-.8l1.5-1c-1.5-.4-2.8-1.4-4.3-1.7.9-.3 7-1.6 7.3-2.6-3.9-1.5-6.2-.1-10.2-1 2.4-.8 9.2-3.1 11.3 0-.1-.2-.6-3.4-1.1-4 1.4.6 3 .7 4.5.5-5.9-2.2-6.7-.7-12.7-.8.4-2.4 4.3-3.5 4.7-6l-6.8 2c-.3-1.4 6.6-5.4 7.4-5.6-7.3-2-2.7.1.5-3.3L737 110c-3.5-2 6.1-2 4-2.2-.7-.5-1.3-.9-1.7-1.2.4-.1.7-.5.5-1.5-5.5 2.5-1.1-.8-1.7-1.3-4.8 2.9-1.8 2.3-4-3-.3 1.7-.4 3.5-.3 5.2l-2.2-2c-.1 1-.2 2.1-.3 3.1l-1.5-1.2c6.1 5.8-5.2 1.6-9.1.7.5.3 3.2 1.2 1 1.6 1.7.3 3.4.9 5.1 1.5-2.5 0-1.3.1 1.3 1-.2.6-2.9.3-3.6.2 1.7 1.1 7.2-.5 7.5 1.9-1.3 0-8-1.9-9.2-.1 1.1-1.6 6.2 2.6 6.4 3.8-4.4-1.4-9 1.1-13.2 2.4 1.3-.3 2.5-.3 3.8 0-4.2.8.1.7.4 1.3 7.2-1 6 5.1-.4 5.5.7.4.6.7-.6.7 1.8 0 6.1-.1 2 1.3 4.6.6 3.2 2 1.8 3.2-.1 0-.3.1-.3.2-.7.6-1.2 1.1-.5 1.3-2.5 1.6-6.1-.1-8.7-.8-1 2.6 3.1 2.3 4 2.3-.3.6-.8 1.1-1.3 1.4-5-2-8.4.2-13.3-1.1 2.7-1.2 13.2-2.6 11.5-7.4 1.3 3.7-8.9 1.3-9 1.3.5-3.3 5.1-5.3 5.6-8.6l-10.5 2.3c-.6-3.6 8.8-6.5 11.2-7.4-8.3-2.8-3.2 0 .6-4.8l-9.3 4.5c-3.9-2.8 5.8-3 4.8-3.1-2.5-2.2-5.2-1.6-3.4-5.8-1.4 1-2.4 2.4-2.8 4-.3-2.8-1-5.6-1.9-8.3-.4 2.7-.4 6.3-2.1 8.6-1-1.2-2.4-1.9-3.3-3.1 0 .9 0 1.7-.1 2.6l-2.7-1.4c.8.8 7.3 5.6 4.9 7.1-3.1 1.9-9.6-4.3-12.5-5.2.6.5 3.7 1.7 1.2 2.3 2.1.5 4.1 1.2 6 2.2-3 0-1.5.2 1.6 1.4-.2.8-3.4.4-4.3.4 2 1.5 8.5-.5 8.9 2.7-1.7 0-9.2-2-12.8-.5 4.4-1.3 14.3 6.9 14.6 9.2-3.7-1.4-6.7 4.3-9.8.2-4.1-5.3-4.8-2.4-10.8 0 5.9.9 10.5 6.1 17 5.3.2.6-13.6 5.6-13.2 5.4 2.5.3 7-.1 2.3 1.9 2 .1 12.7.7 13.1 2.4-.1.1-17.1 3-11.8 4.4-3 2.3-7.2-.2-10.4-1.1-.8 2.3.5 3 2 3.2-1.6 3.3-5.8-1.5-8.8-1.5 0-3 13.4-3.3 13.6-6.3l-14.2 3.1c-1.5-6 3.7-7.2 12.9-7.1-2.7-.9-7.4-1-10.4-1 1.9-.7 3.5-2 4.7-3.7-2.7 1.3-5.3 2.7-7.9 4.1-2.7-1.8 1.5-3.1 4-2.9-4.7-3.7 2.7-1.3 6.5-4.9-4 2.3-11.3 3.8-10.2-.5-1.4 4.4-2.4 4.9-2.8 1.3-1-2.6-2.1-5.2-3.4-7.7 0 3.9 1.8 7.7 1.5 11.6.2-2.4-3.1-4.6-4.1-6.8.1 2.1 2 4 2.1 6l-8.6-1.6c1.4 1 12.4 3.4 9.1 5.7-1.3.9-10.4-4.3-11.9-4.7 2.7 2.1-1.9 3.1-5.4 4.1 3.8 1.1 7.5-2.8 12.5.1-4 0 1.7.4 1.5 1.6-4.5-.2-8.9 1-13.4.8 2.7 1.9 16.9-2.8 17.9 1.7-.4 0-8.9-1.9-9.6-.2.4-1.1 7.1 4.2 7.3 5-4.5-1.3-9.2-2.1-13.8-2.5 1.4 0 7.1 2.9 7.3 3.9-3.1-.5-10.4-2.6-13.5-1.4 3.2.5 8.5 1.6 10.8 3.1-.7.1-1.4.3-2 .6 3-1.3 4 1.4 4.6 1.6-4.9-.9-12.6 2.1-15.4 4.2 3.2-2.4 13.8-3.3 18.1-2 2 .6 2.8 1.1 3 1.4-.3.2-.6.4-.8.8-3.2 1.1-14.5 1-14.4 1 1.3 1.3 7.2.6 8.5 1.9-1.9.7-5 0-6.9.7 3.1.5 6.7-.2 9.8.3.3.6-.3 1-1.8 1.1 10.6 0-2.3 5.1 1.6 6.2-.1.1-17.7-.4-18.2-1 1.3 1.2 11 3 13.7 3-.1 1-.9 1.8-2.2 2.3 3.8-1.1 14-.5 13.2 3.1-1.1-.6-2.4-1-3.6-1.1-1.7.8.5 2.4-.4 3.4-4.9-2.4-9.3-1.3-7.9-1.2-3.1 0-4.5.5-4.2 1.5 1.8.4 3.6.5 5.5.4.3 1-6.3 2.3-7.4 3.8 3.5-.6 2.8.5 1.9 1.2.6-.4 1.7-1.1 3.4-2.2.2.7.1 1.5-.2 2.1 4.5-2.1 5.5-1.9 3 .4 1.3-1 2.8-1.7 4.3-2.1-1.6 1.1-3.1 2.3-4.5 3.6-1.5-.7-.3-1 .6-1.2-.8 0-2.5.1-5.3.1-.2 1.5 5.1.2.1 1.5 6.8 1.6 1.5.7 2.4 2.6 2.7-.2 2.4.1 3.1 1.6-.2.1-8.3-.8-8.6-.8-.2.6.5.7 2 .4-2.3 2.2-9.5-.1-12.7 1.4 1.7 2.3 6.5-1.4 7.4 1.6-1.4-.9-2 .1-2 .8 2.9.1 8.6-.8 7.3 2 2.5-1.2 8-1.4-.3 2 0 0 1 .6 1.9 1.4-.3.1-.6.2-.8.3l-.2.1-1.2-.7c.2.4.3.9.2 1.4-.1.2-.3.3-.4.5.1-.2.2-.3.4-.5-.7 2.9-11.3-1-15 1-2.2.2-4.5.3-6.7.5 2.4-.4 4.8-1.3 7.2-1.8l-10-3 16.7.9c-2.5 0-5.5-2.9-7.5-2.8 2.1-.3 4.2-.7 6.3-1.2-5.5-2.6-8.9 0-14.1-1.5 2.7-1.2 13.2-2.6 11.5-7.4 1.3 3.7-8.9 1.3-9 1.3.5-3.3 5.1-5.3 5.6-8.6l-10.5 2.5c-.6-3.6 8.8-6.5 11.2-7.4-8.3-2.8-3.2 0 .6-4.8l-9.3 4.5c-3.9-2.8 5.8-3 4.8-3.1-2.5-2.2-5.2-1.6-3.4-5.8-1.4 1-2.4 2.4-2.8 4-.3-2.8-1-5.6-1.9-8.3-.4 2.7-.4 6.3-2.1 8.6-1-1.1-2.4-1.9-3.3-3.1 0 .9 0 1.7-.1 2.6l-2.7-1.4c.8.8 7.3 5.6 4.9 7.1-3.1 1.9-9.6-4.3-12.5-5.1.6.5 3.7 1.7 1.2 2.3 2.1.5 4.1 1.3 6 2.2-3 0-1.5.2 1.6 1.4-.2.8-3.4.4-4.3.4 2 1.5 8.5-.5 8.9 2.7-1.7 0-9.2-2-12.8-.5 4.4-1.3 14.3 6.9 14.6 9.2-3.7-1.4-6.7 4.3-9.8.2-4.1-5.3-4.8-2.4-10.8 0 5.9.9 10.5 6.1 17 5.3.2.6-13.6 5.6-13.2 5.4 2.5.3 7-.1 2.3 1.9 2 .1 12.7.7 13.1 2.4-.1.1-17.1 3-11.8 4.4-2.2 1.7-5 .8-7.6-.2 0-.1.1-.2.1-.2l-.4.1c-.9-.3-1.7-.6-2.5-.9-.3.7-.3 1.4-.1 2.1-2.2 1-4.8 1.9-6 .4l7.1-3.5c-.9-.2-1-.6-.4-1.3-2.8.2-5.7.4-8.5.6 2.4-.4 4.8-1.3 7.2-1.8l-10-3 16.7.9c-2.5 0-5.6-2.9-7.5-2.8 2.1-.3 4.2-.7 6.3-1.2-5.5-2.6-8.9 0-14.1-1.5 2.7-1.2 13.2-2.6 11.5-7.4 1.3 3.7-8.9 1.3-9 1.3.5-3.3 5.1-5.3 5.6-8.6l-10.5 2.2c-.6-3.6 8.8-6.5 11.2-7.4-8.3-2.8-3.2 0 .6-4.8l-9.3 4.5c-3.9-2.8 5.8-3 4.8-3.1-2.5-2.2-5.2-1.6-3.4-5.8-1.4 1-2.4 2.4-2.8 4-.3-2.8-1-5.6-2-8.3-.4 2.7-.4 6.3-2.1 8.6-1-1.1-2.4-1.9-3.3-3.1 0 .9-.1 1.7-.1 2.6l-2.7-1.4c.8.8 7.3 5.6 4.9 7.1-3.1 1.9-9.6-4.3-12.5-5.1.6.5 3.7 1.7 1.2 2.3 2.1.5 4.1 1.3 6 2.2-3 0-1.5.2 1.6 1.4-.2.8-3.4.4-4.3.4 2 1.5 8.5-.5 8.9 2.7-1.7 0-9.2-2-12.8-.5 4.4-1.3 14.3 6.9 14.6 9.2-3.7-1.4-6.7 4.3-9.8.2-1.8-2.4-3-3.1-4.2-3-4.9-1.9-8.3.3-13.2-1.1 2.7-1.2 13.2-2.6 11.5-7.4 1.3 3.7-8.9 1.3-9 1.3.5-3.3 5.1-5.3 5.6-8.6l-10.5 2.3c-.6-3.6 8.8-6.5 11.2-7.4-8.3-2.8-3.2 0 .6-4.8l-9.3 4.5c-3.9-2.8 5.8-3 4.8-3.1-2.5-2.2-5.2-1.6-3.4-5.8-1.4 1-2.4 2.4-2.8 4-.3-2.8-1-5.6-1.9-8.3-.4 2.7-.4 6.3-2.1 8.6-1-1.1-2.4-1.9-3.3-3.1 0 .9 0 1.7-.1 2.6l-2.7-1.4c.8.8 7.3 5.6 4.9 7.1-3.1 1.9-9.6-4.3-12.5-5.1.6.5 3.7 1.7 1.2 2.3 2.1.5 4.1 1.2 6 2.2-3 0-1.5.2 1.6 1.4-.2.8-3.4.4-4.3.4 2 1.5 8.5-.5 8.9 2.7-1.7 0-9.2-2-12.8-.5 4.4-1.3 14.3 6.9 14.6 9.2-3.7-1.4-6.7 4.3-9.8.2-4.1-5.3-4.8-2.4-10.8-.1 5.9.9 10.5 6.1 17 5.3.2.6-13.6 5.6-13.2 5.4 2.5.3 7-.1 2.3 1.9 2 .1 12.7.7 13.1 2.4-.1.1-17.1 3-11.8 4.4-3 2.3-7.2-.2-10.3-1.1-1.3 3.8 3 3.3 4.8 3.3-.5 1.3-1.6 2.2-2.9 2.5 2.3-.6 20.6-.5 18.9 5-1.7-.9-3.5-1.7-5.2-2.6-3.9-1.5-3.3 2.6-2 2.5-.8.8-9.1-.9-11.7-.8-1-.3 1.7 0 3.7-2.1l-6.9 2.7c-3.1-1.8 5.3-1.8 3.6-1.9-.7-.5-1.1-.8-1.5-1 .3-.1.6-.4.5-1.4-3.7 1.7-1.6-.4-1.5-1.2-4.2 2.5-1.5 2-3.5-2.6-.7 4 .4 6.1-2.2 2.9-.1.9-.2 1.8-.3 2.8-.6-.6-1.5-1.1-2.1-1.7 1.2 1.3 3.2 3.8 2.1 4.4-2.6 1.3-6.9-2.6-9.3-3.1.4.3 2.8 1 .9 1.4 1.5.3 3 .8 4.4 1.4-2.2 0-1.2.1 1.2.8-.2.5-2.7.2-3.2.2 1.5.9 6.3-.4 6.6 1.6-1.1 0-7-1.7-8-.1 1-1.4 5.5 2.3 5.6 3.3-3.9-1.2-7.9 1-11.6 2.1 1.1-.2 2.2-.2 3.3 0-3.6.7.1.6.4 1.1 2.3-.3 3.2.9 4.8 1.3.9 2.9-3.3 3.4-5.1 3.6.7.4.5.6-.5.6 1.6.2 5.4-.1 1.7 1.2 4.1.5 2.8 1.8 1.6 2.8-.1 0-.2.1-.3.2-.6.5-1.1 1-.4 1.1-2.2 1.4-5.5-.1-7.7-.7-.9 2.3 2.7 2 3.6 2-.4.8-1.2 1.4-2.1 1.5 3.4-.7 8.4-.6 11.6 1.1-1.2.1-5.5 2-2.9 1.9-.7.5-3.2.1-5.5-.2v-.1.1c-1.1-.2-2.2-.3-3.4-.2 0 .2.2.4.4.5h.1c-6.8 1.7-.4 1.4 1.9 1.5-2.2.6-5.1.5-6.8 2.2 1.1-.8 1.9-.9 2.5-.2l-1.5 1.1c.3.2 4.9-1.4 6.4-1.2-.1.4-.1.8-.2 1.3l-.1.1h.1v.2c-.9.3-1.8.6-2.7.8-.6.2-1.2.4-1.8.4l3.1.6c-2.4 1.4 1.6-.4-1.1 1.1.2.4.9.2 1.6.4-.1.3-.2.6-.4.8l-1.6-.1c-1-.8-2-1.7-2.9-2.6 0 .8 0 1.6-.1 2.5l-1.1-.1-2.1-1.1c.3.3 1.1.9 2 1.7-1.3.2-2.7-.1-4 .2.3-.6-1-.6-.6-1.3 2.5.6.4-4.1 4-.5-.1-2-1.4-3.8-3.4-4.5 2.9-.3 1.2-.4.2-2.1 1.4.7 2.2.3 2.4-1.3 1.5-.3 1.5-.1 0 .6 1.7.1 3.4-.2 5-.9-5.9-.7-9.1-3.1-13.9-2.7-.6-.7 15.9-3.8 6.8-8.6 1.6.5 3.4.4 4.9-.3-2.6-.3-6.5.4-8.6-1.8s4.1-3.8 5.2-3.5c-1.9-2.2-1.5-3.3 2.3-1.8-2.2-.8-2.2-1.7 0-2.4-6.1.5-5.5-1.4-10.1-1.9 2.6-1.2 2.6-2.2-.4-1.9 2.3-1.5 1.6-2.6-2.2-3.4.4-.1 5.9-2.7 6-3.5-3.7-2.3-4.7 0-8.4-1.3 1.9-1.1 6.3-3.2 8.5-1.1-.5-.7-1.1-1.4-1.8-2l2.9 1.1c-1-.8-1.5-2-1.5-3.3-.6-.4-5.5-.2-6.5-.3.3-2.8 3.4-5 3.4-7.8l-5.4 2.6c-.3-1.7 5.1-7.3 5.4-7.3-5.8-2.4-2.1.1-.2-4.4-2 1.4-3.9 2.7-5.9 4.1-2.5-2.1 2.1-3 3-2.9-2.8-.2-3.3-1.4-1.5-3.6-2 .7-2.6.1-1.7-1.8l-1.7 2.4c1.1-2 .1-10-.9-12.1.4 3.2-1.8 7.2-2.8 10.2l.1-.3v.1c-.1.3-.2.8-.4 1.5.4-.2.6-.7.5-1.1.7 2.9.6 4.1-.3 3.4 1.1 1.6 2 3.4 1.1 4.2-1.5 1.4-7.8-4.2-9.3-4.7.4.4 2.8 1.5 1.2 2.1 1.6.5 3 1.1 4.4 2-4.5 0 7.1 1.6-1.7 1.6 1.5 1.4 5.9-.3 6.4 2.5-.5 0-6.9-2-7.5-.2.5-1.6 5.5 4 5.6 5-3.6-1.7-7.5 1.6-10.6 3.2 1-.4 2.1-.4 3.1 0-3.2 1 0 .4.4 1.7 6.8-1.5 3.9 4.9.4 7.4-4-.6-9.8-1.6-9.6-1.8 3.3.6 6.2-2 9.4-1.4-2.7-2.2-1-2.1 2-1.3l-1.6-.9 1.5-.8c-.7 0-7.6.3-6.6-.9-1.2.4-4.6 2.6-5.9 1.2l4.6-2.3c-.6-.1-.7-.4-.3-.8-1.9.1-3.7.3-5.5.4 1.6-.3 3.1-.8 4.7-1.2l-6.5-2 10.9.6c-1.6 0-3.6-1.9-4.9-1.8 1.4-.2 2.7-.5 4.1-.8-3.6-1.7-5.8 0-9.2-1 1.8-.8 8.6-1.7 7.5-4.8.8 2.4-5.8.8-5.9.8.3-2.2 3.3-3.4 3.6-5.6l-6.9 1.5c-.4-2.4 5.8-4.3 7.3-4.9-5.5-1.8-2.1 0 .4-3.1l-6.1 2.9c-2.6-1.8 3.8-2 3.1-2-1.7-1.4-3.4-1-2.2-3.8-.9.6-1.5 1.5-1.9 2.6-.2-1.8-.6-3.7-1.2-5.4-.2 1.8-.3 4.1-1.4 5.6-.6-.8-1.6-1.3-2.2-2 0 .6 0 1.1-.1 1.7l-1.8-.9c.5.5 4.8 3.6 3.2 4.6-2 1.2-6.3-2.8-8.2-3.4.4.3 2.4 1.1.8 1.5 1.4.3 2.7.8 3.9 1.4-2 0-1 .1 1 .9-.1.6-2.2.3-2.8.2 1.3 1 5.5-.3 5.8 1.8-1.1 0-6-1.3-8.4-.3 2.9-.8 9.4 4.5 9.5 6-2.4-.9-4.4 2.8-6.4.1-2.6-3.5-3.1-1.5-7.1 0 3.8.6 6.9 4 11.1 3.4.1.4-8.9 3.6-8.6 3.5 1.6.2 4.6 0 1.5 1.2 1.3.1 8.3.5 8.5 1.5-.1 0-11.2 1.9-7.7 2.9-1.9 1.5-4.7-.1-6.8-.7 0 .1 0 .2-.1.3-.5-.3-1-.7-1.5-1.1 1.3.7 2 .4 2.1-.9l.1.5c1.6.1 3.1-.1 4.6-.7-6.4-.6-9.3-1.8-14.9-1.6 3.4-1.4 8.2-6.1 7.2-6.5 1.5.4 3.1.3 4.6-.2-.6-.1-13.4-2-13-2.4 3.3.6 6.2-2 9.4-1.4-2.7-2.2-1-2.1 2-1.3l-1.6-.9 1.5-.9c-.7 0-7.6.3-6.6-.9-1.2.4-4.6 2.6-5.9 1.2l4.6-2.3c-.6-.1-.7-.4-.3-.8-1.9.1-3.7.3-5.5.4 1.6-.3 3.1-.8 4.7-1.2l-6.5-2 10.9.6c-1.6 0-3.6-1.9-4.9-1.8 1.4-.2 2.7-.5 4.1-.8-3.6-1.7-5.8 0-9.2-1 1.8-.8 8.6-1.7 7.5-4.8.8 2.4-5.8.8-5.9.8.3-2.2 3.3-3.4 3.6-5.6l-6.9 1.5c-.4-2.4 5.8-4.3 7.3-4.9-5.5-1.8-2.1 0 .4-3.1l-6.1 2.9c-2.6-1.8 3.8-2 3.1-2-1.7-1.4-3.4-1-2.2-3.8-.9.6-1.6 1.5-1.9 2.6-.2-1.8-.6-3.7-1.2-5.4-.2 1.8-.3 4.1-1.4 5.6-.6-.8-1.6-1.3-2.2-2 0 .6 0 1.1-.1 1.7l-1.8-.9c.5.5 4.7 3.6 3.2 4.6-2 1.2-6.3-2.8-8.2-3.4.4.3 2.4 1.1.8 1.5 1.4.3 2.7.8 3.9 1.4-2 0-1 .1 1 .9-.1.6-2.2.3-2.8.2 1.3 1 5.5-.3 5.8 1.8-1.1 0-6-1.3-8.4-.3 2.9-.8 9.4 4.5 9.5 6-2.4-.9-4.4 2.8-6.4.1-2.6-3.5-3.1-1.5-7.1 0 3.8.6 6.9 4 11.1 3.4.1.4-8.9 3.6-8.6 3.5 1.6.2 4.6 0 1.5 1.2 1.3.1 8.3.5 8.5 1.5-.1 0-11.2 1.9-7.7 2.9-1.9 1.5-4.7-.1-6.8-.7-.8 2.5 2 2.2 3.1 2.2-.3.8-1 1.5-1.9 1.6 1.5-.4 13.5-.3 12.4 3.3-1.1-.6-2.3-1.1-3.4-1.7-2-.8-2.2.6-1.8 1.3 0 .1-.1.3-.1.4-1.7 0-6-.8-7.2-.6 0 .4.2.5.6.4-6 1.8-.7 1.5 1.5 1.6-2 .6-4.5.6-6 2.3l1.9-.3v.3c-.6.3-1.2.7-.8 1l.7-.4c-.2 1.4-.2 2.8-.1 4.1l-2.2-2-.3 2.6-.9-.1-.6-.5.5.4c-4.2-.6-6.9-1.3-11.4-1.2 3.4-1.4 8.2-6.1 7.2-6.5 1.5.4 3.1.3 4.6-.2-.6-.1-13.4-2-13-2.4 3.3.6 6.2-2 9.4-1.4-2.7-2.2-1-2.1 2-1.3l-1.6-.9 1.5-.9c-.7 0-7.6.3-6.6-.9-1.2.4-4.6 2.6-5.9 1.2l4.6-2.3c-.6-.1-.7-.4-.3-.8-1.9.1-3.7.3-5.5.4 1.6-.3 3.1-.8 4.7-1.2l-6.5-2 10.9.6c-1.6 0-3.6-1.9-4.9-1.8 1.4-.2 2.7-.5 4.1-.8-3.6-1.7-5.8 0-9.2-1 1.8-.8 8.7-1.7 7.5-4.8.8 2.4-5.8.8-5.9.8.3-2.2 3.3-3.4 3.6-5.6l-6.9 1.5c-.4-2.4 5.8-4.3 7.3-4.9-5.5-1.8-2.1 0 .4-3.1l-6.1 2.9c-2.6-1.8 3.8-2 3.1-2-1.7-1.4-3.4-1-2.2-3.8-.9.6-1.5 1.5-1.9 2.6-.2-1.8-.6-3.7-1.2-5.4-.2 1.8-.3 4.1-1.4 5.6-.6-.8-1.6-1.3-2.2-2 0 .6 0 1.1-.1 1.7l-1.8-.9c.5.5 4.7 3.6 3.2 4.6-2 1.2-6.3-2.8-8.2-3.4.4.3 2.4 1.1.8 1.5 1.4.3 2.7.8 3.9 1.4-2 0-1 .1 1 .9-.1.6-2.2.3-2.8.2 1.3 1 5.6-.3 5.8 1.8-1.1 0-6-1.3-8.4-.3 2.9-.8 9.4 4.5 9.5 6-2.4-.9-4.4 2.8-6.4.1-2.6-3.5-3.1-1.5-7.1 0 3.8.6 6.9 4 11.1 3.4.1.4-8.9 3.6-8.6 3.5 1.6.2 4.6 0 1.5 1.2 1.3.1 8.3.5 8.5 1.5-.1 0-11.2 1.9-7.7 2.9-1.9 1.5-4.7-.1-6.8-.7-.8 2.5 2 2.2 3.1 2.2-.2.4-.4.7-.7 1-1.8.2-3.7.2-4.3-1.6-1.4-1 1.1-.8.5-1.7-1.4-2.3-10.5.2-12.8.3.6-3.5 11.9-1 14.2-.7-.6-.6-.4-.8.6-.6-.2-.7-3.5-.2-3.7-.9 1.2-.2 2-1.6 3-1.6-1.2-.2-2.3-.4-3.5-.6 1.6-.5 3.2-.7 4.9-.4-2.2-1.4-3.2-.8-6.2-1.2l5-2.3c-1.1.6-7.7 1.7-8.3 0-.2-.6 5.9-1.2 6.6-1-.6-.2-12.6-2.3-12.6-2.7 1.6-1.6 8.1 1.8 8.8.6-.2-.2-1-.4-.8-.8 2.4.4 0-2.9 3.8-.3-.5-1.7-1.9-2.9-3.7-3.2 2.9-.2 1.1-.3 0-1.5 1.3.7 1.9.4 2.1-.9l.1.5c1.6.1 3.1-.1 4.6-.7-6.4-.6-9.3-1.8-14.9-1.6 3.4-1.4 8.2-6.1 7.2-6.5 1.5.4 3.1.3 4.6-.2-.6-.1-13.4-2-13-2.4 3.3.6 6.2-2 9.4-1.4-2.7-2.2-1-2.1 2-1.3l-1.6-.9 1.5-.9c-.7 0-7.6.3-6.6-.9-1.2.4-4.6 2.6-5.9 1.2l4.6-2.3c-.6-.1-.7-.4-.3-.8-1.9.1-3.7.3-5.5.4 1.6-.3 3.1-.8 4.7-1.2l-6.5-2 10.9.6c-1.6 0-3.6-1.9-4.9-1.8 1.4-.2 2.7-.5 4.1-.8-3.6-1.7-5.8 0-9.2-1 1.8-.8 8.7-1.7 7.5-4.8.8 2.4-5.8.8-5.9.8.3-2.2 3.3-3.4 3.6-5.6l-6.9 1.5c-.4-2.4 5.8-4.3 7.3-4.9-5.5-1.8-2.1 0 .4-3.1l-6 2.7c-2.6-1.8 3.8-2 3.1-2-1.6-1.4-3.4-1-2.2-3.8-.9.6-1.5 1.5-1.9 2.6-.2-1.8-.6-3.7-1.2-5.4-.2 1.8-.3 4.1-1.4 5.6-.6-.8-1.6-1.3-2.2-2 0 .6 0 1.1-.1 1.7l-1.8-.9c.5.5 4.8 3.7 3.2 4.6-2 1.2-6.3-2.8-8.2-3.4.4.3 2.4 1.1.8 1.5 1.4.3 2.7.8 3.9 1.4-2 0-1 .1 1 .9-.1.6-2.2.3-2.8.2 1.3 1 5.6-.3 5.8 1.8-1.1 0-6-1.3-8.4-.3 2.9-.8 9.4 4.5 9.5 6-2.4-.9-4.4 2.8-6.4.1-2.6-3.5-3.1-1.5-7.1 0 3.8.6 6.9 4 11.1 3.4.1.4-8.9 3.6-8.6 3.5 1.6.2 4.6 0 1.5 1.2 1.3.1 8.3.5 8.5 1.5-.1 0-11.2 1.9-7.7 2.9-1.9 1.5-4.7-.1-6.8-.7-.8 2.5 2 2.2 3.1 2.2-.3.8-1 1.4-1.9 1.6 1.5-.4 13.5-.3 12.4 3.3-1.1-.6-2.3-1.1-3.4-1.7-2.6-1-2.2 1.7-1.3 1.6-.6.5-6.4-.7-7.8-.5 0 .4.2.5.6.4-6 1.8-.7 1.5 1.5 1.6-2 .6-4.5.6-6 2.3 5.8-.9 0 .1 1 1.1 6.9-3.8-.9.8 6.4-1.2-1.9 2.2 6.6 1.4 9.2 1.3-1.5.8-10.5.9-13.4.6 1.2.3.9.3-.8.7.9.1 1.8.3 2.7.6-2 1.5 1.3-.3-1 1.1.5 1.1 9.1-.6 9.4 1.7 0-.3-17.5-1-12.2-.6-1.2 1-2.6.6-4 .6-1.5-.8-3-1.7-4.1-1.7 2.1-.3 4.2-.7 6.3-1.2-5.5-2.6-8.9 0-14.1-1.5 2.7-1.2 13.2-2.6 11.5-7.4 1.3 3.7-8.9 1.3-9 1.3.5-3.3 5.1-5.3 5.6-8.6l-10.5 2.3c-.6-3.6 8.8-6.5 11.2-7.4-8.4-2.8-3.2 0 .6-4.8l-9.2 4.3c-3.9-2.8 5.9-3 4.8-3.1-2.5-2.2-5.2-1.6-3.4-5.8-1.4 1-2.4 2.4-2.8 4-.3-2.8-1-5.6-1.9-8.3-.4 2.7-.4 6.3-2.1 8.6-1-1.2-2.4-1.9-3.3-3.1 0 .9 0 1.7-.1 2.6l-2.7-1.4c.8.8 7.3 5.6 4.9 7.1-3.1 1.9-9.6-4.3-12.5-5.2.6.5 3.7 1.7 1.2 2.3 2.1.5 4.1 1.3 6 2.2-3 0-1.5.2 1.6 1.4-.2.8-3.4.4-4.3.4 2 1.5 8.5-.5 8.9 2.7-1.7 0-9.2-2-12.8-.5 4.4-1.3 14.4 6.9 14.6 9.2-3.6-1.4-6.7 4.3-9.9.2s-4.4-3.2-7.9-1.4l-1.2-.6 2.2-1.3c-1.1.1-11.7.5-10.1-1.4-1.9.6-7 4-9 1.8l7.1-3.5c-.9-.2-1-.6-.4-1.3-2.8.2-5.6.4-8.5.6 2.4-.4 4.8-1.3 7.2-1.8l-10-3 16.7.9c-2.5 0-5.5-2.8-7.5-2.8 2.1-.3 4.2-.7 6.3-1.2-5.5-2.6-8.9 0-14.1-1.5 2.7-1.2 13.2-2.6 11.5-7.4 1.3 3.7-8.9 1.3-9 1.3.5-3.3 5.1-5.3 5.6-8.6l-10.5 2.3c-.6-3.6 8.8-6.5 11.2-7.4-8.4-2.8-3.2 0 .6-4.8l-9.3 4.4c-3.9-2.8 5.9-3 4.8-3.1-2.5-2.2-5.2-1.6-3.4-5.8-1.4 1-2.4 2.4-2.8 4-.3-2.8-1-5.6-1.9-8.3-.4 2.7-.4 6.3-2.1 8.6-1-1.2-2.4-1.9-3.3-3.1 0 .9 0 1.7-.1 2.6l-2.7-1.4c.8.8 7.3 5.6 4.9 7.1-3.1 1.9-9.6-4.3-12.5-5.2.6.5 3.7 1.7 1.2 2.3 2.1.5 4.1 1.2 6 2.2-3 0-1.5.2 1.6 1.4-.2.8-3.4.4-4.3.4 2 1.5 8.5-.5 8.9 2.7-1.7 0-9.2-2-12.8-.5 4.4-1.3 14.4 6.9 14.6 9.2-3.6-1.4-6.7 4.3-9.9.2-4.1-5.3-4.8-2.4-10.8 0 5.9.9 10.5 6.1 17 5.3.2.6-13.6 5.6-13.2 5.4 2.4.3 7-.1 2.3 1.9 2 .1 12.7.7 13.1 2.4-.1.1-17.1 3-11.8 4.4-3 2.3-7.2-.2-10.4-1.1-1.3 3.8 3 3.3 4.8 3.3-.5 1.3-1.6 2.2-2.9 2.5 2.3-.6 20.6-.5 18.9 5-1.7-.9-3.5-1.7-5.2-2.6-3.9-1.5-3.3 2.6-2 2.5-.9.8-9.8-1.1-12-.8 0 .5.3.8.9.7-9.1 2.7-1.1 2.3 2.3 2.4-3 .9-7 1-9.2 3.6 8.8-1.4 0 .2 1.5 1.6 10.6-5.9-1.4 1.2 9.7-1.8-3 3.4 10.1 2.1 14.1 2-2.3 1.2-16 1.3-20.4.9 1.8.5 1.4.5-1.3 1.1 1.4.2 2.8.5 4.2.9-3.1 2.3 2-.5-1.5 1.8.8 1.6 14-.9 14.4 2.6 0-.4-15.7-1-19.4-1.1-.1-.2-.1-.5-.2-.7 0 .2-.1.5-.1.7-.6 0-.7 0 0 .1 0 .2-.1.5-.1.7-2.1.8-4.4-.2-6.5.7 1.6 2 2.5-1 3.4 1.9-.8-.4-2.5-.2-2.4.9 1.7-.1 3.5-.2 5.2-.1-.2 2.8-.9 5.5-1.9 8.1-1 .2-2 .5-3 .9-1.2-1.1-2.5-2.1-3.6-3.2.8 0 1.6 0 2.4.1-3.4-2.2-5-1.1-9.4-1.9l7.7-3.5c-1.7.9-11.8 2.6-12.7 0-.3-1 9-1.8 10.1-1.6-.9-.3-19.4-3.5-19.3-4.1 2.4-2.5 12.3 2.7 13.5 1-.4-.2-1.6-.6-1.3-1.2 3.7.7 0-4.4 5.7-.5-.8-2.5-3-4.4-5.6-4.9 4.4-.3 1.7-.5 0-2.3 1.9 1 3 .5 3.2-1.4l.1.7c2.4.2 4.8-.2 7-1-9.9-.9-14.2-2.7-22.8-2.4 5.2-2.1 12.6-9.3 11-10 2.3.6 4.8.5 7-.3-.9-.1-20.5-3.1-19.9-3.6 5.1.9 9.5-3.1 14.4-2.2-4.2-3.4-1.4-3.3 3.1-2l-2.5-1.4 2.3-1.3c-1.1.1-11.7.5-10.1-1.4-1.9.6-7 4-9 1.8l7.1-3.5c-.9-.2-1-.6-.4-1.3-2.8.2-5.6.4-8.5.6 2.4-.4 4.8-1.3 7.2-1.8l-10-3 16.7.9c-2.5 0-5.6-2.8-7.5-2.8 2.1-.3 4.2-.7 6.3-1.2-5.4-2.6-8.9 0-14.1-1.5 2.7-1.2 13.2-2.6 11.5-7.4 1.3 3.7-8.9 1.3-9.1 1.3.5-3.3 5.1-5.3 5.6-8.6l-10.5 2.3c-.6-3.6 8.8-6.5 11.2-7.4-8.4-2.8-3.2 0 .6-4.8l-9.2 4.4c-3.9-2.8 5.9-3 4.8-3.1-2.5-2.2-5.2-1.6-3.4-5.8-1.4 1-2.4 2.4-2.8 4-.3-2.8-1-5.6-1.9-8.3-.4 2.7-.4 6.2-2.1 8.6-1-1.2-2.4-1.9-3.3-3.1 0 .8-.1 1.7-.1 2.6l-2.7-1.4c.8.8 7.3 5.6 4.9 7.1-3.1 1.9-9.6-4.3-12.5-5.2.6.5 3.7 1.7 1.2 2.3 2.1.5 4.1 1.2 6 2.2-3 0-1.5.2 1.6 1.4-.2.8-3.4.4-4.3.4 2 1.5 8.5-.5 8.9 2.7-1.7 0-9.2-2-12.8-.5 4.4-1.3 14.4 6.9 14.6 9.2-3.6-1.4-6.7 4.3-9.9.2s-4.3-3.3-7.4-1.6c-.2-.6-.3-1.2-.6-1.8-.1.7-.1 1.4-.3 2.2-.8.4-1.7.8-2.6 1.2.8.1 1.5.3 2.3.6-.2.6-.4 1.2-.8 1.7-.6-.8-1.6-1.3-2.2-2 0 .6 0 1.1-.1 1.7l-1.8-.9c.5.5 4.8 3.7 3.2 4.6-2 1.2-6.3-2.8-8.2-3.4.4.3 2.4 1.1.8 1.5 1.4.3 2.7.8 3.9 1.4-2 0-1 .1 1 .9-.1.6-2.2.3-2.8.2 1.3 1 5.6-.3 5.8 1.8-1.1 0-6-1.3-8.4-.3 2.9-.8 9.4 4.5 9.6 6-2.4-.9-4.4 2.8-6.4.1-2.6-3.5-3.1-1.5-7.1 0 3.8.6 6.9 4 11.1 3.4-.7.5-1.5.9-2.4 1.2l-.6-.2c-.1.2-.1.3-.1.5-2.5 1-5.6 2.1-5.5 2.1.5.1 1.2.1 1.8.1-.1.4-.1.7-.1 1.1l-1.6-.6h.1c-.3 3 .2 4.2-1.7 2 .3-.1.5-.1.8-.2l-1.1-.1-.1-.1v.1c-5.7-.6-8.5-1.6-13.8-1.5 3.4-1.4 8.2-6.1 7.2-6.5 1.5.4 3.1.3 4.6-.2-.6-.1-13.4-2-13-2.3 3.3.6 6.2-2 9.4-1.4-2.7-2.2-.9-2.2 2-1.3l-1.6-.9 1.5-.8c-.7 0-7.6.3-6.6-.9-.6.2-1.6.7-2.6 1.2-1 0-2 0-3 .2-.1 0-.1-.1-.2-.2l4.6-2.3c-.6-.1-.7-.4-.3-.8-1.9.1-3.7.3-5.5.4 1.6-.3 3.1-.8 4.7-1.2l-6.5-2 10.9.6c-1.6 0-3.6-1.9-4.9-1.8 1.4-.2 2.7-.5 4.1-.8-3.6-1.7-5.8 0-9.2-1 1.8-.8 8.6-1.7 7.5-4.8.8 2.4-5.8.8-5.9.8.3-2.2 3.3-3.4 3.6-5.6l-6.9 1.5c-.4-2.4 5.8-4.3 7.3-4.9-5.5-1.8-2.1 0 .4-3.1l-6.1 2.9c-2.6-1.8 3.8-2 3.1-2-1.7-1.4-3.4-1-2.2-3.8-.9.6-1.6 1.5-1.9 2.6-.2-1.8-.6-3.7-1.2-5.4-.2 1.8-.3 4.1-1.4 5.6-.6-.8-1.6-1.3-2.2-2 0 .6 0 1.1-.1 1.7l-1.8-.9c.2.2.8.7 1.4 1.2-1.5.3-2.9.7-4.3 1.1-.7-.5-1.4-.8-2.1-1.1.4.3 2.4 1.1.8 1.5h.1c-2.4.9-4.7 2-6.8 3.4-.1-.5-.2-1.1-.3-1.6.5-.4.8-1 .8-1.7 0 .6-.3 1.1-.8 1.4-.1-.8-.4-1.7-.7-2.4.1 1 0 2.1-.2 3.1-2.8 1.6-8.7 2.9-14.3 3.9.2-.3.4-.7.4-1.1l-6.9 1.5c-.3-1.8 3.4-3.4 5.8-4.3 3.5 1.1 6.6 1.7 7.8-.7-.8-3.4-3.7-4.9-8.9-4.5 3.5-1.8 41.1-10.6 23.3-8 5.1-.8 8.7-3.3 10.7-7.6-6.2.7-12.2 2.7-17.5 6 1.5-1.3 6.9-5.6 3.9-7.1 2 1.1-30.1 13.1-31.9 13.6.6-5.8 24-22.8 22.1-24.6-5.9.8-11.5 3.3-16 7.2 5.2-12.3-6.7.6-7.2 1.6.1-4.5 5.2-16.8 10.4-22.6-.2.2-.4.4-.5.7 1.3-.5 2.3-1.4 2.9-2.7 1.3-.7 2.7-.9 4.2-.8-1.2-.8-2.6-.5-4.1.5.2-.7.2-1.4 0-2-3.1-2.8-10.1 8.2-13.2 9 4.3-6.8 8.8-13.6 13.5-20.1-2.3.4-4.5 1.4-6.4 2.9 2-2.8 3.7-6 1.7-6.8-4.3.4-7 3.2-8 8.3.3-1.9 7.1-38.5-5.3-34.6-9.2 2.9 6.5 22.9-1.3 29.5-7.3-14.3-.1 8.1.4 11.4-5.4-5.3-11.5-9.8-18-13.6 3.2 2.7 16.1 21.3 16.6 24.5-1.4-.9-11.1-9.3-15.7-10.2 4.3.8 16.1 17.5 16.6 22.6-2.1-.9-15.1-12-15.2-5.5 0-.3 8.6 6.9 6.2 5.5.1 0-2 .2-4.7.4-1.8.2-3.8.3-5.5.5.8-1.8 3.2-3 3.4-4.9l-6.9 1.5c-.4-2.4 5.8-4.3 7.3-4.9-5.5-1.8-2.1 0 .4-3.1L76.9 57c-2.6-1.8 3.8-2 3.1-2-1.7-1.4-3.4-1-2.2-3.8-.9.6-1.5 1.5-1.8 2.6-.2-1.8-.6-3.7-1.2-5.4-.2 1.8-.3 4.1-1.4 5.6-.6-.8-1.6-1.3-2.2-2 0 .6 0 1.1-.1 1.7l-1.8-.9c.5.5 4.8 3.7 3.2 4.6-2 1.2-6.3-2.8-8.2-3.4.4.3 2.4 1.1.8 1.5 1.4.3 2.7.8 3.9 1.4-2 0-1 .1 1 .9-.2.5-2.2.3-2.8.2 1.3 1 5.6-.3 5.8 1.8-1.1 0-6-1.3-8.4-.3 2.9-.8 9.4 4.5 9.6 6-2.4-.9-4.4 2.8-6.4.1-2.7-3.5-3.1-1.5-7.1 0 3.8.6 6.9 4 11.1 3.4.1.4-7.8 3.2-8.6 3.5-4.1-1.3-7.1-1.7-7.6-.3 2.7 2.4 5.7 4.6 8.8 6.4-1.8.4-4-.7-5.7-1.2-.8 2.5 2 2.2 3.1 2.2-.3.8-1 1.5-1.9 1.6 1.4-.3 13.4-.3 12.3 3.3-1.1-.6-2.3-1.1-3.4-1.7-2.6-1-2.2 1.7-1.3 1.6-.6.5-6.4-.7-7.8-.5 0 .3.2.5.6.4-6 1.8-.7 1.5 1.5 1.6-2 .6-4.5.6-6 2.3 5.8-.9 0 .1 1 1.1 6.9-3.8-.9.8 6.4-1.2-.9 1 .4 1.4 2.3 1.5.1.2.2.4.3.5-2.2.1-4.5 0-6.7-.1 1.2.3.9.3-.8.7.9.1 1.8.3 2.7.6-1.8 1.3.6.1-.4.8l-.4.1.2.1-.3.2c.1.3.8.4 1.7.4l1.9.8c-4.5-.2-9.7-.4-6.5-.2-1.2 1-2.6.6-4 .7-1.5-.8-3-1.7-4.1-1.7 2.1-.3 4.2-.7 6.3-1.2-5.5-2.6-8.9 0-14.1-1.5 2.7-1.2 13.2-2.6 11.5-7.4 1.3 3.7-8.9 1.3-9 1.3.5-3.3 5.1-5.3 5.6-8.6l-10.5 2.3c-.5-3.6 8.9-6.5 11.2-7.5-8.3-2.8-3.2 0 .6-4.8l-9.3 4.5c-3.9-2.8 5.8-3 4.8-3.1-2.5-2.2-5.2-1.6-3.4-5.8-1.4 1-2.4 2.4-2.8 4-.3-2.8-1-5.6-1.9-8.3-.4 2.7-.4 6.3-2.1 8.6-1-1.2-2.4-1.9-3.3-3.1 0 .9 0 1.7-.1 2.5L30 63.2c.8.8 7.3 5.6 4.9 7.1-3.1 1.9-9.6-4.3-12.5-5.2.6.5 3.7 1.7 1.2 2.3 2.1.5 4.1 1.2 6 2.2-3 0-1.5.2 1.6 1.4-.2.8-3.4.4-4.3.4 2 1.5 8.5-.5 8.9 2.7-1.7 0-9.2-2-12.8-.5 4.4-1.3 14.4 6.9 14.6 9.2-3.7-1.4-6.7 4.3-9.9.2s-4.4-3.2-7.9-1.4l-1.2-.6 2.3-1.3c-1.1.1-11.7.5-10.1-1.4-1.9.6-7 4-9 1.8L9 76.5c-.9-.2-1-.6-.4-1.3-2.8.2-5.7.4-8.5.6 2.4-.4 4.8-1.3 7.2-1.8L-2 71.2v316.9h861.2c1.3-1 2.7-1.8 4.3-2.3 1 .8 2.3 1.6 3.2 2.3h1.7c.7-.7 2-.9 3.9-.4l-1 .3h43.1c-1.5-.5 2.8.2 2.7-1.3h-3l.7-.4c4 .3 8 .9 12 1.7h87.7c.6-.4.9-.9.7-1.4 2.7-.8 5-1.5 6.4-1.9l.7-.1c-.8.5-1.1 1.5-.7 2.4.7.7 2-.2 2.4-.6-.4.4-.5 1.1-.2 1.6h1.3c.2-.2.3-.3.4-.5.1.2.1.4.3.5h3c3.3-1.1 8-4.2 9.2-2.4-.7.3-3.3 1.2-6.2 2.4h369.7V100.4c-8.2 7-16.8 13.3-25.8 19zm-1305 30.2c.1-.1 0-.4-.4-.8.4.4.5.7.4.8zm-49.4-46.5zm1295.4 125l-.1.1.1-.1zm-45.6-77.2c.1.2.2.3.3.5-.1-.2-.2-.4-.3-.5zm-191.4 179l-2 .5 2-.5zm-227.4 20c.2.7.3 1.4.4 2.1-.2-.7-.3-1.4-.4-2.1zm-507.4-26.1zm-4.5-114.2c.6-.3 1.2-.6 1.8-1-.6.3-1.2.7-1.8 1zm478.9-58.9c.2 0 .5 0 .7.1-.2-.1-.4-.1-.7-.1z"/><path class="st0" d="M8 41.8l-9.3 4.5c-.3-.2-.5-.4-.7-.7V51c2.7-2.1 7.8-3.7 9.4-4.4-8.4-2.8-3.2.1.6-4.8zM1067.3 110.5c.2.3.5.5.7.7l-.7-.7zM907.7 112.3c.4-.6.9-1 1.6-1.2-.7.1-1.3.6-1.6 1.2zM1152.1 89.7c.4-.6.9-1 1.6-1.2-.7.1-1.3.6-1.6 1.2zM1195 113.3c.4-.6.9-1 1.6-1.2-.7.1-1.3.6-1.6 1.2zM1274.4 133.5zM1233 128.6l-.9-.2c0 .1.3.2.9.2zM1237.5 98.8zM1083.8 78.6c.4-.6.9-1 1.6-1.2-.7.1-1.3.5-1.6 1.2zM1029.9 85c-1-1.5-2.3-2.9-2.7-3.4.7 1.2 1.6 2.4 2.7 3.4zM1045.1 106.1c.3.2.5.5.6.9-.1-.3-.4-.6-.6-.9zM1369.7 109.6c-.4-.8-1.2-1.4-2.1-1.7.8.4 1.6.9 2.1 1.7zM80.6 27.7c-.2-.2-.4-.3-.6-.4l.6.4z"/></svg>