<svg xmlns="http://www.w3.org/2000/svg" viewBox="0 0 52.71 69.07"><title>icon-estimate</title><path d="M51.76 49.49a14.39 14.39 0 0 1-24.82 14 1.28 1.28 0 0 0-1.15-.57H5.92A5.67 5.67 0 0 1 .2 58.53a7.13 7.13 0 0 1-.2-1.65v-42.8a5.72 5.72 0 0 1 6-6h1.75c.58 0 .84-.12.79-.75a16.07 16.07 0 0 1 0-1.89A5.49 5.49 0 0 1 13.69.08C17.28 0 20.87 0 24.46 0h16.82a5.75 5.75 0 0 1 6.13 6.1v36a1.53 1.53 0 0 1-.57 1.31c-.76.64-1.47 1.34-2.24 2.05a12.24 12.24 0 0 0-4.7-1.81 11.13 11.13 0 1 0 9.41 12.65 21.74 21.74 0 0 0-.12-4 .92.92 0 0 1 .32-.94c.74-.52 1.43-1.16 2.25-1.87zM35.6 40.56a1.5 1.5 0 0 0 0-.25V13.74a2.26 2.26 0 0 0-1.73-2.17 5.58 5.58 0 0 0-1.37-.13H6.12c-1.84 0-2.71.88-2.71 2.73v42.66c0 1.81.86 2.68 2.66 2.68h18.69a14.8 14.8 0 0 1 .7-11.2H8.55a1.46 1.46 0 0 1-1.61-1.74c.13-.75.71-1.17 1.67-1.17h18.13a1.39 1.39 0 0 0 1.13-.49 13.94 13.94 0 0 1 6.77-4.06zm8.36.69a4 4 0 0 0 0-.4v-35a2.24 2.24 0 0 0-2.44-2.45H14.37A2.19 2.19 0 0 0 12 5.26a22.94 22.94 0 0 0 0 2.82h21a6.17 6.17 0 0 1 1.23.09 5.61 5.61 0 0 1 4.62 5.64V39.62c0 .34-.1.71.46.8 1.55.22 3.06.58 4.69.83z"/><path d="M37.58 59.49l-4.66-4.72 2.27-2.27 2.35 2.5 11.28-10.41 2.1 2.61zM20.09 18.54v4.06c0 .15.24.34.4.42a8.29 8.29 0 0 0 1 .32 4.11 4.11 0 0 1 3.08 4.24 4.5 4.5 0 0 1-3.23 4.36c-1.19.36-1.19.36-1.25 1.62a1.22 1.22 0 0 1-.06.5c-.12.21-.31.54-.46.53a1 1 0 0 1-.74-.38 3.21 3.21 0 0 1-.17-1.27c0-.51-.11-.74-.67-.87a4.63 4.63 0 0 1-3.53-3.5 2.43 2.43 0 0 1-.06-.94 1.13 1.13 0 0 1 1-1.07 1.07 1.07 0 0 1 1.31.76c.17.51.33 1 .53 1.51a2 2 0 0 0 1.4 1.17v-4.55c0-.13-.19-.3-.34-.38-.35-.17-.72-.29-1.08-.43-2.81-1.17-2.94-4.33-2.05-6.08a3.68 3.68 0 0 1 2.88-2c.5-.08.66-.27.62-.75a1.32 1.32 0 0 1 .08-.78 1.12 1.12 0 0 1 .74-.5c.2 0 .6.41.57.57-.22 1.27.57 1.45 1.53 1.72a3.64 3.64 0 0 1 2.53 3 1.26 1.26 0 0 1-.92 1.46 1.14 1.14 0 0 1-1.4-.86 2.81 2.81 0 0 0-1.71-1.88zm.06 7.15v4.38a2.2 2.2 0 0 0 2-2.15c.1-1.16-.44-1.77-2-2.23zM18.6 18.6c-1.21.29-1.6.81-1.54 2a1.68 1.68 0 0 0 1.54 1.75zM19.77 38.95h11a1.41 1.41 0 0 1 1.52 1.17 1.45 1.45 0 0 1-1 1.66 2.21 2.21 0 0 1-.64.07H8.83a1.5 1.5 0 0 1-1.66-1.44c0-.88.66-1.47 1.7-1.47h10.9zM13.47 54.83h-5a1.46 1.46 0 1 1 0-2.9h10a1.46 1.46 0 1 1 0 2.9c-1.65.01-3.32 0-5 0z"/></svg>