<svg xmlns="http://www.w3.org/2000/svg" viewBox="0 0 173.5 48.25"><title>logo</title><path d="M162.57 47v-6.48h1.34v5.19h1.37V47zM166.42 47v-6.48h1.34v5.19h1.37V47zM173.5 44.19v1.22a1.56 1.56 0 0 1-.45 1.24 1.83 1.83 0 0 1-1.25.39 1.6 1.6 0 0 1-1.16-.43 1.64 1.64 0 0 1-.45-1.24v-3a2.2 2.2 0 0 1 .4-1.43 1.53 1.53 0 0 1 1.24-.48 2.14 2.14 0 0 1 .64.09 1.59 1.59 0 0 1 .52.27 1.2 1.2 0 0 1 .36.47 1.62 1.62 0 0 1 .13.67v1.14h-1.32v-.75q0-.58-.32-.58a.25.25 0 0 0-.25.13.85.85 0 0 0-.06.35v3a.66.66 0 0 0 .09.34.26.26 0 0 0 .23.15.29.29 0 0 0 .22-.11.59.59 0 0 0 .09-.38v-1.06zM18.69 9.28l.73 2.8h-7.19l.67-2.8V7l-.67-.66H7.84L7.17 7v13l.67.66h8l2.86 2.86V43.7l-2.86 2.86H4.31L1.38 43.7v-5.79l-.66-2.8H7.9l-.73 2.8v2.26l.67.67h4.39l.67-.67v-13l-.67-.66H4.31l-2.93-2.92V3.43L4.31.56h11.51l2.86 2.86z" fill="#fff"/><path d="M16.06 47.12h-12L.81 43.93V38L0 34.55h8.63L7.73 38v2l.34.34H12l.34-.34V27.36L12 27H4.08L.81 23.83V3.19L4.08 0h12l3.19 3.19v6l.9 3.43h-8.65l.82-3.43v-2L12 6.92H8.07l-.34.34v12.57l.34.34h8l3.19 3.19v20.57zM4.54 46h11.05l2.53-2.53V23.83l-2.53-2.53h-8l-1-1V6.79l1-1h4.86l1 1v2.63l-.5 2.1h5.75l-.57-2.23V3.66l-2.54-2.53H4.54l-2.6 2.53v19.7l2.6 2.54h7.93l1 1v13.5l-1 1H7.6l-1-1v-2.64l.55-2.09H1.43l.52 2.23v5.55zM43 3.36l-.77-2.8h15.11l2.86 2.87v17.24l-2.93 2.86 2.93 2.86V43.7l-2.86 2.86H42.23L43 43.7zM48.75 7v13l.67.66h4.39l.66-.66V7l-.66-.67h-4.39zm5.72 20.1l-.66-.66h-4.39l-.67.66v13l.67.66h4.39l.66-.66z" fill="#fff"/><path d="M57.57 47.12H41.5l.89-3.5V3.43L41.5 0h16.07l3.19 3.19V20.9l-2.69 2.63 2.69 2.63v17.77zM43 46h14.11l2.53-2.53V26.63l-3.17-3.1 3.17-3.1V3.66l-2.53-2.53H43l.57 2.23v40.48zm11-4.67h-4.81l-1-1V26.82l1-1H54l1 1v13.52zm-4.35-1.13h3.93l.33-.33V27.29l-.33-.29h-3.93l-.34.34v12.53zm4.39-19h-4.85l-1-1V6.72l1-1H54l1 1v13.51zm-4.39-1.1h3.93l.33-.33V7.19l-.34-.34h-3.92l-.34.34v12.58zM93.86.56L94.93 7l-3-.66h-3.72l-.67.66v36.76l.73 2.8h-7.19l.73-2.8V7l-.67-.66h-3.78l-3 .66L75.43.56z" fill="#fff"/><path d="M89 47.12h-8.65l.9-3.43V7.25l-.34-.34h-3.5l-3.75.83L74.95 0h19.39l1.28 7.75-3.75-.83h-3.43l-.34.34v36.43zM81.81 46h5.73L87 43.76v-37l1-1h4.08l2.18.48-.85-5.16H75.9l-.85 5.16 2.3-.5h4l1 1v37.12zM104.65 46.56h-7.19l.73-2.8V3.43L97.46.56h15.11l2.86 2.86v20.17l-2.86 2.86L115 43.63l.93 2.93h-7.19l.53-2.73L106.84 27l-.47-.53h-1.8l-.66.66v16.63zm-.07-25.83H109l.66-.66V7l-.66-.64h-4.46l-.66.66v13z" fill="#fff"/><path d="M116.73 47.12h-8.64l.65-3.31-2.43-16.58-.19-.22h-1.31l-.33.34v16.34l.9 3.43h-8.65l.9-3.43V3.5l-.9-3.5h16.07l3.2 3.19v20.64l-2.83 2.83 2.42 16.89zM109.46 46h5.73l-.7-2.19L112 26.26l2.9-2.9V3.66l-2.53-2.53H98.18l.57 2.3v40.48L98.19 46h5.73l-.57-2.23V26.89l1-1h2.29l.74.85 2.5 17.1zm-.18-24.7h-4.93l-1-1V6.79l1-1h4.93l1 1V20.3zm-4.46-1.13h4l.33-.33V7.25l-.33-.33h-4l-.33.33v12.58zM36.88 22.39l2-.52V27l-2-.52v12.31l-2 2.09h-8.32l-2-2.09V26.48l2-2-2-2V10.12l2-2.09h8.23l2 2.09v4.14l.52 2h-5.09l.52-2v-1.62l-.47-.48h-3.19l-.48.48v9.27l.48.48zM32.74 27l-.47-.47h-3.19l-.48.47v9.32l.48.47h3.19l.47-.47z" fill="#fff"/><path d="M35 41.45h-8.7L24 39V26.25l1.81-1.81L24 22.62V9.89l2.37-2.43H35l2.4 2.43v4.29l.69 2.63h-6.6l.69-2.63v-1.31l-.18-.14h-2.68l-.15.15v8.81l.15.15h7.49l2.63-.69v6.59l-2-.52V39zm-8.2-1.13h7.75l1.72-1.76V25.75l2 .52V22.6l-1.39.4h-8l-.88-.85v-9.74l.81-.81h3.69l.8.81v2l-.3 1.28h3.68l-.36-1.43v-3.91l-1.77-1.76H26.8l-1.72 1.76v11.81l2.28 2.28-2.28 2.28v11.85zm5.7-3h-3.65l-.81-.8v-9.8l.81-.8h3.65l.81.81v9.79zm-3.19-1.13H32l.14-.14v-8.86L32 27h-2.68l-.15.15V36zM22.57.6h16.06v3.38H22.57zM22.57 44.87h16.06v3.38H22.57zM136.86 46.56h-17.24l.73-2.86V3.36l-.73-2.8h17.24L137.93 7l-3-.67h-8.19l-.66.67v13l.66.66H129l2.86-.73v7.19l-2.86-.73h-2.26l-.66.66v13l.66.66h8.19l3-.66z" fill="#fff"/><path d="M137.34 47.12H118.9l.89-3.5V3.43l-.9-3.43h18.45l1.28 7.69-3.75-.83H127l-.34.34v12.57l.33.33h2l3.5-.89v8.64l-3.5-.89h-2l-.33.33v12.58l.33.33h7.89l3.75-.83zm-17-1.13h16l.85-5.16-2.3.5h-8.42l-1-1V26.82l1-1h2.64l2.16.55v-5.71l-2.3.57h-2.5l-1-1V6.72l1-1h8.54l2.18.49-.85-5.1h-16l.57 2.23v40.48zM157.83 46.56h-17.24l.73-2.86V3.36l-.73-2.8h17.24L158.89 7l-3-.67h-8.19L147 7v13l.66.66H150l2.86-.73v7.19l-2.86-.73h-2.26l-.66.66v13l.66.66h8.19l3-.66z" fill="#fff"/><path d="M158.3 47.12h-18.44l.89-3.5V3.43L139.86 0h18.44l1.28 7.69-3.75-.83h-7.89l-.34.34v12.57l.33.33h2l3.5-.89v8.64L149.9 27h-2l-.33.33v12.54l.33.33h7.89l3.75-.83zm-17-1.13h16l.85-5.16-2.3.5h-8.42l-1-1V26.82l1-1h2.64l2.16.55v-5.71l-2.3.57h-2.5l-1-1V6.72l1-1H156l2.18.49-.85-5.1h-16l.57 2.23v40.48z" fill="#fff"/></svg>