<?xml version="1.0" encoding="utf-8"?>
<!-- Generator: Adobe Illustrator 21.0.0, SVG Export Plug-In . SVG Version: 6.00 Build 0)  -->
<svg version="1.1" id="Layer_1" xmlns="http://www.w3.org/2000/svg" xmlns:xlink="http://www.w3.org/1999/xlink" x="0px" y="0px"
	 viewBox="0 0 1400 250" style="enable-background:new 0 0 1400 250;" xml:space="preserve">
<style type="text/css">
	.st0{fill:#1E1C1B;}
	.st1{fill:#161514;}
</style>
<title>graphic-treeline</title>
<path class="st0" d="M828.2,153.3c-0.2,0.7,0.7,0.7,1.8,0.5C830.1,153.7,829.5,153.6,828.2,153.3z"/>
<path class="st0" d="M841.5,117.7c0.2,0.3,0.5,0.5,0.7,0.7C841.9,118.1,841.6,117.8,841.5,117.7z"/>
<path class="st0" d="M827,156.8L827,156.8C824.4,156.7,825.2,156.7,827,156.8z"/>
<path class="st0" d="M681.9,119.5c0.4-0.6,0.9-1,1.6-1.2C682.8,118.4,682.2,118.9,681.9,119.5z"/>
<path class="st0" d="M926.3,96.9c0.4-0.6,0.9-1,1.6-1.2C927.2,95.9,926.6,96.3,926.3,96.9z"/>
<path class="st0" d="M1011.8,106c0.2-0.4,0.6-0.7,1-0.8C1012.3,105.3,1012,105.6,1011.8,106z"/>
<path class="st0" d="M1007.2,135.9l-0.9-0.2C1006.3,135.8,1006.7,135.8,1007.2,135.9z"/>
<path class="st0" d="M858,85.8c0.4-0.6,0.9-1,1.6-1.2C858.9,84.7,858.4,85.2,858,85.8z"/>
<path class="st0" d="M729,106.5c-0.5-0.5-1.1-1-1.8-1.6C727.7,105.5,728.3,106.1,729,106.5z"/>
<path class="st0" d="M749.8,131.1c0.3-0.5,0.7-0.8,1.3-1C750.5,130.2,750.1,130.6,749.8,131.1z"/>
<path class="st0" d="M644.8,181.8C643.4,182.8,644.1,182.4,644.8,181.8z"/>
<path class="st0" d="M651.3,182.6C652.7,182.6,652.1,182.5,651.3,182.6z"/>
<path class="st0" d="M804.1,92.2c-1-1.5-2.3-2.9-2.7-3.4C802.1,90,803,91.2,804.1,92.2z"/>
<path class="st0" d="M788.7,140.9C787,142.2,787.9,141.7,788.7,140.9z"/>
<path class="st0" d="M819.3,113.3c0.3,0.3,0.5,0.5,0.6,0.9C819.8,114,819.6,113.6,819.3,113.3z"/>
<path class="st0" d="M503.1,231.6c-0.1,0.7,0.6,0.7,1.8,0.5C504.9,231.9,504.3,231.8,503.1,231.6z"/>
<path class="st0" d="M516.3,196c0.2,0.3,0.5,0.5,0.7,0.7C516.7,196.4,516.5,196.1,516.3,196z"/>
<path class="st0" d="M601.2,175.2c0.4-0.6,0.9-1,1.6-1.2C602.1,174.1,601.5,174.6,601.2,175.2z"/>
<path class="st0" d="M532.9,164c0.4-0.6,0.9-1,1.6-1.2C533.8,162.9,533.2,163.4,532.9,164z"/>
<path class="st0" d="M564.2,175.2c0.4-0.6,0.9-1,1.6-1.2C565.1,174.1,564.5,174.6,564.2,175.2z"/>
<path class="st0" d="M403.8,184.8c-0.5-0.5-1.1-1-1.8-1.6C402.6,183.8,403.2,184.3,403.8,184.8z"/>
<path class="st0" d="M494.2,191.6c0.3,0.3,0.5,0.5,0.6,0.9C494.7,192.2,494.4,191.9,494.2,191.6z"/>
<path class="st0" d="M479,170.5c-1-1.5-2.3-2.9-2.7-3.4C477,168.3,477.9,169.5,479,170.5z"/>
<path class="st0" d="M245.9,153.8l-1.4-0.3C244.6,153.6,245.1,153.7,245.9,153.8z"/>
<path class="st0" d="M252.8,108.1c0.4-0.6,0.9-1,1.6-1.2C253.7,107.1,253.2,107.5,252.8,108.1z"/>
<path class="st0" d="M295.8,131.7c0.4-0.6,0.9-1,1.6-1.2C296.7,130.6,296.1,131.1,295.8,131.7z"/>
<path class="st0" d="M446.3,170.4c0.2-0.4,0.6-0.7,1-0.8C446.8,169.8,446.5,170.1,446.3,170.4z"/>
<path class="st0" d="M375.2,152c0.2-0.4,0.6-0.7,1-0.8C375.7,151.3,375.4,151.6,375.2,152z"/>
<path class="st0" d="M338.3,117.2c0.2-0.4,0.6-0.7,1-0.8C338.8,116.6,338.5,116.9,338.3,117.2z"/>
<path class="st0" d="M333.8,147.1l-0.9-0.2C332.9,146.9,333.2,147,333.8,147.1z"/>
<path class="st0" d="M413.9,152c0.2-0.4,0.6-0.7,1-0.8C414.5,151.3,414.1,151.6,413.9,152z"/>
<path class="st0" d="M184.6,97c0.4-0.6,0.9-1,1.6-1.2C185.4,95.9,184.9,96.4,184.6,97z"/>
<path class="st0" d="M21.4,74.8c0.4-0.6,0.9-1,1.6-1.2C22.3,73.7,21.8,74.2,21.4,74.8z"/>
<path class="st0" d="M171.9,113.6c0.2-0.4,0.6-0.7,1-0.8C172.5,112.9,172.1,113.2,171.9,113.6z"/>
<path class="st0" d="M64,60.3c0.2-0.4,0.6-0.7,1-0.8C64.5,59.7,64.2,60,64,60.3z"/>
<path class="st0" d="M59.4,90.2L58.6,90C58.5,90,58.9,90.1,59.4,90.2z"/>
<path class="st0" d="M3.5,43.2C1,41-1.7,41.6,0.1,37.3c-0.8,0.6-1.6,1.4-2.1,2.3v5C-0.9,43.4,4.3,43.2,3.5,43.2z"/>
<path class="st0" d="M6.6,69.1c2.1-0.3,4.2-0.7,6.3-1.2c-5.4-2.6-8.9,0-14.1-1.5C1.4,65.3,12,63.8,10.2,59c1.3,3.7-8.9,1.3-9,1.3
	c0.5-3.3,5.1-5.3,5.6-8.6L-2,53.7V71l16.1,0.9C11.6,71.9,8.5,69.1,6.6,69.1z"/>
<path class="st1" d="M1375.7,119.4c-0.2-0.7-0.4-1.5-0.7-2.2c-0.1,0.8-0.2,1.7-0.3,2.7c-7.2-3-8.2-6.3-13.4,0.4
	c-2.5,3.3-5,1.9-7.6,0.7c2.7-0.4,6-1.5,10.2-5.1c0.4-4.7-6.7-2.3-10.5-1.7c4.4-3.7,10.7-7.3,14.2-6.2c-2.6-1.1-6.8-0.8-10.4-0.3
	c-0.7-0.6-2-0.2-3.4,0.5c-1,0.2-2.1,0.3-3.1,0.4c0.5-4.3,9.1-1.5,11.7-3.6c-1.2,0.1-5.3,0.6-5.6-0.5c4.1-1.5,6-1.8,2.1-1.8
	c2.5-1.3,5.2-2.3,7.9-2.9c-3.3-0.8,0.9-2.4,1.7-3c-3.8,1.1-12.5,9.3-16.6,6.8c-0.5-0.3-0.7-0.8-0.7-1.4c1.2-1.7,2.4-3.4,3.8-5
	c1.5-1.4,3-2.6,3.4-2.9l-0.9,0.5c0.4-0.4,1-0.7,1.5-0.8c-1.5,0.4-3,1.1-4.2,2c0-1-0.1-2.1-0.1-3.1c-1.2,1.6-3.1,2.6-4.4,4.1
	c-0.3-0.4-0.5-0.8-0.7-1.2c0.9-0.9,1.8-1.9,2.6-2.9c0.9-1.2,12.9-12.2,8.1-12.2c-4.4,2.8-8.5,6-12.2,9.5c-0.2-1.6-0.3-3.2-0.5-4.6
	c-0.8,2.3-1.4,4.7-1.9,7.1c-0.2,0.2-0.4,0.4-0.6,0.6c0.1-0.5,7.1-24.6,0.1-10.4c-3.8-3.6,3.4-27.2-1.9-25.8
	c-6.8,8.7-7.9,18.9-3.5,30.5c-1.2-3.3-3.5-6-6.6-7.6c-0.1,2.1,0.3,4.1,1.2,6c-1.5-1.2-3.2-2-5.1-2.4c3.1,4.7,6,9.5,8.9,14.4
	c-0.4,0.2-0.8,0.5-1.1,0.8c-2.6-3-5.6-7.1-7.5-5.2c-0.2,0.7-0.1,1.4,0.1,2.1c-1.1-0.6-2.3-0.9-3.5-0.7c-2.4,1.7,2.2,5.5,6.5,8.2
	l-1,0.3c0.9,0.3,2.5,0.9,4.3,1.6c0.8,0.4,1.6,0.8,2.4,1.1c1.9,1.2,2.2,3.4,2.2,5.8l-8-1.8c0.1,0.8,0.4,1.6,0.8,2.3
	c-0.3,0.4-0.1,1.5,0.8,3.8c-3.6-3.4-8.2-5.7-13.1-6.5c-0.1,0.1,6.5,6.7,11.8,12.8c-3,0.1-5.7-0.4-4.8-2.7c-1.6,4.2,4,6.4,9,7.9
	c0.6,0.8,1.1,1.6,1.6,2.5c-1.4,0-2.7-0.1-4.1-0.2l-3.4-1.4c0.6-0.4,1.1-0.8,1.5-1.4l-2.2,1.1l-1.1-0.5c-1.5-1.1-2.9-1-1.9-3.5
	c-0.7,0.5-1.3,1.2-1.6,2l-0.3-0.2c-0.2-1.6-0.6-3.2-1.1-4.7c-0.1,1.3-0.3,2.6-0.6,3.9c-6.1-2.7-11.5-5.4-10.8-5.8
	c-2.4,1.4,2,5.3,3.2,6.4c-4.3-2.9-9.2-4.8-14.4-5.4c1.5,3.7,4.9,6.3,8.8,6.8c-4.4-0.8-3.2-0.3,0.1,0.8c-1,0.5-2,1.1-2.9,1.7
	c-0.1-0.7-0.4-1.4-0.7-2.1c0.1,0.9,0,1.8-0.2,2.6c-4.1,2.6-9,5.9-11.7,4.2c-3.1-1.9,5.4-8.3,6.5-9.3l-3.6,1.9c0-1.1-0.1-2.2-0.1-3.4
	c-1.2,1.6-3.1,2.6-4.4,4.1c0-0.1-0.1-0.2-0.1-0.2c0.1-0.2,0.3-0.3,0.4-0.5l-0.6,0.3c-1.9-3.1-2-7.5-2.5-10.9
	c-1.1,3.2-1.9,6.5-2.4,9.8c-0.2-0.4-0.2-1,0.2-2.1c-0.5,0.3-0.9,0.8-1.2,1.3c-0.3-0.6-0.7-1.2-1.2-1.7c-0.2-0.8-0.4-1.6-0.7-2.4
	c-0.1,0.5-0.1,1-0.2,1.5c-0.3-0.3-0.6-0.5-0.9-0.7c0.3,0.7,0.5,1.4,0.7,2.2c-0.1,1-0.5,1.9-1,2.7c-0.6-0.8-1.6-1.3-2.2-2l-0.1,1.7
	l-1.8-0.9c0.9,0.7,1.8,1.5,2.6,2.4c-0.9,0.5-1.8,1-2.6,1.6c-1.8-1-3.8-2.5-4.9-2.8c0.4,0.3,2.4,1.1,0.8,1.5c1.3,0.3,2.7,0.8,3.9,1.4
	l0,0c-1.9,0-1,0.1,1,0.9c0,0.2-0.3,0.3-0.6,0.3l-6.3-3c1.7,2.1,4,3.6,6.6,4.2c-1.7-0.3-3.4-0.3-5,0.1c1.2-0.2,2.3,0.1,3.3,0.7
	c-0.9,0.3-2.2,0.7-4.1,1.3c1.2,0.4,3.7,1.3,6.3,2.4c0,0.8,0.1,1.6,0.2,2.6c-1,0.5-2.1,0.1-2.7-0.8c-2.7-3.5-3.1-1.5-7.1,0
	c3.5,0.5,6.3,3.4,10,3.5l0.1,0.5l-5.9-1.3c0.2,1.2,0.7,2.3,1.5,3.2c-1.7,0.6-3.2,1.2-3.1,1.1c1.6,0.2,4.6,0,1.5,1.2
	c0.6,0,2.3,0.1,4,0.3c0.6,0.6,1.1,1.2,1.7,1.8l-0.6,0.1c-1.6-3-1.7-1.9-1.3,0.3c-2.5,0.6-4.8,1.4-3,1.9c-0.3,0.2-0.6,0.4-0.9,0.4
	c-1.4-1.1-2.8-2.1-4.2-3c-1.1,0-0.8,0.9-0.1,2v0.1l-0.1,0.1v0.1c-0.5-0.2-1-0.4-1.4-0.5c-0.5,1.5,0.3,1.9,1.2,2.1
	c0,0.4,0.1,0.8,0.3,1.1c-1.5,0.1-2.9-0.2-3.4-1.6c-1.4-1,1.1-0.8,0.5-1.7c-1.4-2.3-10.6,0.2-12.8,0.3c0.2-1,1.2-1.5,2.7-1.7
	c1.1,0,2.3,0,3.4,0.2c-0.3-0.1-0.6-0.2-0.9-0.3c3,0.2,6,0.6,9,1.1c-0.6-0.6-0.4-0.8,0.6-0.6c-0.2-0.7-3.5-0.2-3.7-0.9
	c1.2-0.2,2-1.6,2.9-1.6c-1.2-0.2-2.3-0.4-3.5-0.6c1.6-0.5,3.2-0.7,4.9-0.4c-2.2-1.4-3.2-0.8-6.2-1.2l5-2.3c-1.1,0.6-7.7,1.7-8.3,0
	c-0.2-0.6,5.9-1.2,6.6-1c-0.6-0.2-12.7-2.3-12.6-2.7c1.6-1.6,8.1,1.8,8.8,0.6c-0.2-0.2-1-0.4-0.8-0.8c2.4,0.4,0-2.9,3.7-0.3
	c-0.5-1.7-1.9-2.9-3.7-3.2c2.9-0.2,1.1-0.3,0-1.5c1.3,0.7,1.9,0.4,2.1-0.9l0.1,0.5c1.6,0.1,3.1-0.1,4.6-0.7
	c-6.4-0.6-9.3-1.8-14.9-1.6c1-0.4,1.9-1,2.8-1.6c0.8-0.3,1.7-0.5,2.5-0.7c-0.4-0.1-0.7-0.3-1.1-0.4c2.1-1.7,3.6-3.5,2.9-3.8
	c1.5,0.4,3.1,0.3,4.6-0.2c-0.6-0.1-13.4-2-13-2.3c3.3,0.6,6.2-2,9.4-1.4c-2.7-2.2-0.9-2.2,2-1.3l-1.6-0.9l1.5-0.8
	c-0.7,0-7.6,0.3-6.6-0.9c-1.2,0.4-4.6,2.6-5.9,1.2l4.6-2.3c-0.6-0.1-0.7-0.4-0.3-0.8l-3.2,0.2c0.1-0.2,0.2-0.4,0.4-0.5
	c0.7-0.2,1.3-0.4,2-0.5l-0.8-0.2c0.1-0.1,0.2-0.1,0.3-0.2c-0.1,0-0.3,0.1-0.4,0.2l-5.6-1.7l10.9,0.6c-1.6,0-3.6-1.9-4.9-1.8
	c1.4-0.2,2.7-0.5,4.1-0.8c-3.6-1.7-5.8,0-9.2-1c1.8-0.8,8.7-1.7,7.5-4.8c0.8,2.4-5.8,0.8-5.9,0.8c0.3-2.2,3.3-3.4,3.7-5.6l-6.9,1.5
	c-0.4-2.4,5.8-4.3,7.3-4.9c-5.5-1.8-2.1,0,0.4-3.1l-6.1,2.9c-2.6-1.8,3.8-2,3.1-2c-1.7-1.4-3.4-1-2.2-3.8c-0.9,0.6-1.5,1.5-1.8,2.6
	c-0.2-1.8-0.6-3.7-1.2-5.4c-0.2,1.8-0.3,4.1-1.4,5.6c-0.6-0.8-1.6-1.3-2.2-2c0,0.6,0,1.1-0.1,1.7l-1.8-0.9c0.5,0.5,4.7,3.7,3.2,4.6
	c-2,1.2-6.3-2.8-8.2-3.4c0.4,0.3,2.4,1.1,0.8,1.5c1.4,0.3,2.7,0.8,3.9,1.4c-2,0-1,0.1,1,0.9c-0.1,0.6-2.2,0.3-2.8,0.2
	c1.3,1,5.6-0.3,5.8,1.8c-1.1,0-6-1.3-8.4-0.3c2.9-0.8,9.4,4.5,9.6,6c-2.4-0.9-4.4,2.8-6.4,0.1c-2.7-3.5-3.1-1.5-7.1,0
	c2.6,0.4,4.8,2,7.3,2.9c-0.3,0.8-0.5,1.7-0.7,2.6l-2.2,0.8c-0.3-0.3-0.5-0.5-0.8-0.7c0.1,0.3,0.2,0.6,0.3,0.9l-1.3,0.5
	c0.4,0.1,0.9,0.1,1.4,0.1c0.3,2.1-1.6,2-3.4,3.6c-0.6,0.1,3.1,0.2,4.4,1c-0.8,0.4-1.1,0.7-0.1,1c-0.2,0.2-0.5,0.3-0.8,0.4l-7.4-3.6
	c2.6,3.3,5.9,2.5,3.6,3.2c-0.8-0.3-1.5-0.6-2.1-0.8c-0.2,0.5-0.2,1,0,1.4l-0.9,0.3c0.7,0.3,2,0.7,3.5,1.3c-0.4,0.4-0.8,0.7-1.3,0.8
	c0.9-0.1,1.8-0.2,2.8-0.2c2,0.9,4,2.1,4.6,3.5c-1.3,0.2-5.7-0.7-7.3-0.6l-1.6-0.4c0.1,0.5,0.2,0.9,0.5,1.3c-2.3,0.8-1,1,0.7,1.1
	c0.1,0.2,0.3,0.3,0.4,0.5c-1.5,0.3-3.1,0.7-4.2,1.9c5.8-0.9,0,0.1,1,1.1c6.4-3.6,0.1,0.2,5.1-0.9c0.5,0.5,0.8,1.1,1.1,1.8
	c-1.6,0-3.1-0.1-3.9-0.1c1.2,0.3,0.9,0.3-0.8,0.7c0.9,0.1,1.8,0.3,2.7,0.6c-2.6,0.4-6.2,0.6-5.5-1.5c-0.2,0.5-0.2,1-0.1,1.4
	c-5.4-2.5-8.8,0-14-1.4c2.7-1.2,13.2-2.6,11.5-7.4c1.3,3.7-8.9,1.3-9.1,1.3c0.5-3.3,5.1-5.3,5.6-8.6l-10.5,2.3
	c-0.6-3.6,8.8-6.5,11.2-7.4c-8.3-2.8-3.2,0,0.6-4.8l-9.3,4.5c-3.9-2.8,5.8-3,4.8-3.1c-2.5-2.2-5.2-1.6-3.4-5.8c-1.4,1-2.4,2.4-2.8,4
	c-0.3-2.8-1-5.6-1.9-8.3c-0.4,2.7-0.4,6.3-2.1,8.6c-1-1.2-2.4-1.9-3.3-3.1c0,0.9,0,1.7-0.1,2.6l-2.7-1.4c0.8,0.8,7.3,5.6,4.9,7.1
	c-3.1,1.9-9.6-4.3-12.5-5.2c0.6,0.5,3.7,1.7,1.2,2.3c2.1,0.5,4.1,1.2,6,2.2c-3,0-1.5,0.2,1.6,1.4c-0.2,0.8-3.4,0.4-4.3,0.4
	c2,1.5,8.5-0.5,8.9,2.7c-1.7,0-9.2-2-12.8-0.5c4.4-1.3,14.3,6.9,14.6,9.2c-3.4-1.3-6.3,3.6-9.2,0.9c0.4-4,0.7-7.5-1-7
	c-0.9,1.1-1.6,2.4-2.2,3.7c-1.6-0.9-2.9,0-5.2,1.2l-1.2-0.6l2.2-1.3c-1.1,0.1-11.7,0.5-10.1-1.3c-1.8,0.6-7,4-9,1.8l7.1-3.5
	c-0.9-0.2-1-0.6-0.4-1.3c-2.8,0.2-5.7,0.4-8.5,0.6c2.4-0.4,4.8-1.3,7.2-1.8l-10-3l16.7,0.9c-2.5,0-5.6-2.8-7.5-2.8
	c2.1-0.3,4.2-0.7,6.3-1.2c-5.4-2.6-8.9,0-14.1-1.5c2.7-1.2,13.2-2.6,11.5-7.4c1.3,3.7-8.9,1.3-9.1,1.3c0.5-3.3,5.1-5.3,5.6-8.6
	l-10.5,2.3c-0.6-3.6,8.8-6.5,11.2-7.4c-8.3-2.8-3.2,0,0.6-4.8l-9.3,4.5c-3.9-2.8,5.8-3,4.8-3.1c-2.5-2.2-5.2-1.6-3.4-5.8
	c-1.4,1-2.4,2.4-2.8,4c-0.3-2.8-1-5.6-1.9-8.3c-0.4,2.7-0.4,6.3-2.1,8.6c-1-1.2-2.4-1.9-3.3-3.1c0,0.8,0,1.7-0.1,2.6l-2.7-1.4
	c0.8,0.8,7.3,5.6,4.9,7.1c-3,1.6-9.6-4.6-12.5-5.4c0.6,0.5,3.7,1.7,1.2,2.3c2.1,0.5,4.1,1.2,6,2.2c-3,0-1.5,0.2,1.6,1.4
	c-0.2,0.8-3.4,0.4-4.3,0.4c2,1.5,8.5-0.5,8.9,2.7c-1.7,0-9.2-2-12.8-0.5c4.4-1.3,14.3,6.9,14.6,9.2c-3.7-1.4-6.7,4.3-9.8,0.2
	c-4.1-5.3-4.8-2.4-10.8,0c5.9,0.9,10.5,6.1,17,5.3c0.2,0.6-13.6,5.6-13.2,5.4c2.4,0.3,7-0.1,2.3,1.9c2,0.1,12.7,0.7,13.1,2.3
	c-0.1,0.1-17.1,3-11.8,4.4c-3,2.3-7.2-0.2-10.3-1.1c-1.3,3.8,3,3.3,4.8,3.3c-0.5,1.3-1.6,2.2-2.9,2.5c2.3-0.6,20.6-0.5,18.9,5
	c-1.7-0.9-3.5-1.7-5.2-2.6c-3.9-1.5-3.3,2.6-2,2.5c-0.9,0.8-9.8-1.1-12-0.8c0,0.5,0.3,0.8,0.9,0.7c-6.5,1.9-4.3,2.3-1.3,2.4
	c-0.2,0.3-0.4,0.7-0.6,1.1c-1.9,0.3-3.6,1.2-5,2.6c8.8-1.4,0,0.2,1.5,1.6c1.2-0.7,2.1-1.2,2.8-1.5c-0.1,0.8-0.2,1.6-0.3,2.4
	l-0.5-0.1c0,0.1,0.2,0.1,0.4,0.2c0,0.4,0,0.8-0.1,1.2l-0.3,0.1h0.3c0,1.4,0,2.8,0,4.2c-3.2-0.1-4.8-0.1-1.9,0.1
	c-2.3,1.9-5.2,0.3-7.7,1.3c1.6,2,2.5-1,3.4,1.9c-0.8-0.4-2.5-0.2-2.4,0.9c1.9,0.1,8.5-1.2,6.7,2.2c0.8-0.3,1.6-0.5,2.4-0.6
	c0.1,0.6,0.1,1.1,0.2,1.7l-1.5,0.6c-0.9-0.8-1.9-1.3-3.1-1.4c-1.3,0.6-0.3,2.7,0.9,4.7l-0.1,0.1c-1.2-0.9-2.6-1.6-4.1-1.9
	c0.6,0.9,1.2,1.8,1.7,2.7c-1,0.2-1.9,0.5-2.9,0.9c-1.5-1.2-3-1-2.2-3.2l1.1,0.1c-0.3-0.2-0.6-0.4-0.9-0.5l0,0
	c-0.8-0.4-1.6-0.7-2.5-0.8c-0.2-0.7-0.4-1.3-0.6-2c-0.1,0.6-0.1,1.2-0.2,1.9c-1.7,0-3.4-0.2-5.2-0.4l7.7-3.5
	c-1.7,0.9-11.8,2.6-12.7,0c-0.3-1,9-1.8,10.1-1.6c-0.9-0.3-19.3-3.5-19.3-4.1c2.4-2.5,12.3,2.7,13.4,1c-0.4-0.2-1.6-0.6-1.3-1.2
	c3.7,0.7,0-4.4,5.7-0.5c-0.8-2.5-3-4.4-5.6-4.9c4.4-0.3,1.7-0.5,0-2.3c1.9,1,3,0.5,3.2-1.4l0.1,0.7c2.4,0.2,4.8-0.2,7-1
	c-9.9-0.9-14.2-2.7-22.8-2.4c5.2-2.2,12.6-9.3,11-10c2.3,0.6,4.8,0.5,7-0.3c-0.9-0.1-20.5-3.1-19.9-3.6c5.1,0.9,9.5-3.1,14.4-2.2
	c-4.2-3.4-1.4-3.3,3.1-2l-2.5-1.4l2.3-1.3c-1.1,0.1-11.7,0.5-10.1-1.4c-1.8,0.6-7,4-9,1.8l7.1-3.5c-0.9-0.2-1-0.6-0.4-1.3
	c-2.8,0.2-5.7,0.4-8.5,0.6c2.4-0.4,4.8-1.3,7.2-1.8l-9.9-3l16.7,0.9c-2.5,0-5.6-2.8-7.5-2.8c2.1-0.3,4.2-0.7,6.3-1.2
	c-5.4-2.6-8.9,0-14.1-1.5c2.7-1.2,13.2-2.6,11.5-7.4c1.3,3.7-8.9,1.3-9.1,1.3c0.5-3.3,5.1-5.3,5.6-8.6l-10.5,2.3
	c-0.6-3.6,8.8-6.5,11.2-7.4c-8.3-2.8-3.2,0,0.6-4.8l-9.3,4.5c-3.9-2.8,5.8-3,4.8-3.1c-2.5-2.2-5.2-1.6-3.4-5.8c-1.4,1-2.4,2.4-2.8,4
	c-0.3-2.8-1-5.6-1.9-8.3c-0.4,2.7-0.4,6.3-2.1,8.6c-1-1.2-2.4-1.9-3.3-3.1c0,0.8,0,1.7-0.1,2.6l-2.7-1.4c0.8,0.8,7.3,5.6,4.9,7.1
	c-3.1,1.9-9.6-4.3-12.5-5.2c0.6,0.5,3.7,1.7,1.2,2.3c2.1,0.5,4.1,1.2,6,2.2c-3,0-1.5,0.2,1.6,1.4c-0.2,0.8-3.4,0.4-4.3,0.4
	c2,1.5,8.5-0.5,8.9,2.7c-1.7,0-9.2-2-12.8-0.5c4.4-1.3,14.3,6.9,14.6,9.2c-3.7-1.4-6.7,4.3-9.8,0.2c-4.1-5.3-4.8-2.4-10.8-0.1
	c5.9,0.9,10.5,6.1,17,5.3c0.2,0.6-13.6,5.6-13.2,5.4c2.4,0.3,7-0.1,2.3,1.9c2,0.1,12.7,0.7,13.1,2.3c-0.1,0.1-17.1,3-11.8,4.4
	c-3,2.3-7.2-0.2-10.3-1.1c-1.3,3.8,3,3.3,4.8,3.3c-0.5,1.3-1.6,2.2-2.9,2.5c2.3-0.6,20.6-0.5,18.9,5c-1.7-0.9-3.4-1.7-5.2-2.6
	c-3.9-1.5-3.3,2.6-2,2.5c-0.8,0.8-9.1-0.9-11.7-0.8c-1-0.3,1.7,0,3.7-2.1l-6.9,2.7c-3.1-1.8,5.3-1.8,3.6-1.9c-0.7-0.5-1.1-0.8-1.5-1
	c0.3-0.1,0.6-0.4,0.5-1.3c-3.7,1.7-1.6-0.3-1.5-1.2c-4.2,2.5-1.6,2-3.5-2.6c-0.7,4,0.4,6.1-2.2,2.8l-0.3,2.8
	c-0.6-0.6-1.4-1.1-2.1-1.7c1.2,1.3,3.2,3.8,2.1,4.4c-2.6,1.3-6.9-2.6-9.3-3.1c0.4,0.3,2.8,1,0.9,1.4c1.5,0.3,3,0.8,4.4,1.4
	c-2.2,0-1.2,0.1,1.2,0.8c-0.2,0.5-2.7,0.2-3.2,0.2c1.5,0.9,6.3-0.4,6.6,1.7c-1.1,0-7-1.7-8-0.1c1-1.4,5.4,2.3,5.6,3.3
	c-3.9-1.2-7.9,1-11.6,2.1c1.1-0.2,2.2-0.2,3.3,0c-3.7,0.7,0.1,0.6,0.4,1.1c2.3-0.3,3.2,0.9,4.8,1.3c0.9,2.9-3.3,3.5-5.1,3.5
	c0.6,0.3,0.5,0.5-0.2,0.6c-0.1-0.3-0.2-0.7-0.3-1c-0.2,1.8-0.3,4.1-1.4,5.6c-0.6-0.8-1.6-1.3-2.2-2c0,0.6,0,1.1-0.1,1.7l-1.8-0.9
	c0.2,0.2,1.2,1,2,1.8c-0.6-0.2-1.2-0.4-1.7-0.5c-0.8,1.9,1.7,2,3,2c0.1,0.2,0.2,0.3,0.2,0.5c-0.4,0.5-1,0.9-1.6,1
	c-2.2-0.4-5.3-3.1-6.9-3.6c0.4,0.3,2.4,1.1,0.8,1.5c1.4,0.3,2.7,0.8,3.9,1.4c-2,0-1,0.1,1,0.9c-0.2,0.6-2.2,0.3-2.8,0.2
	c1.3,1,5.6-0.3,5.8,1.8c-0.9,0-4.6-0.9-7.2-0.6c-3.6-0.9-6.3-2.2-9.8-1.9c-0.7-0.7,15.9-3.8,6.8-8.6c1.6,0.5,3.4,0.4,4.9-0.3
	c-2.6-0.3-6.5,0.4-8.6-1.8s4.1-3.8,5.2-3.5c-1.9-2.2-1.5-3.3,2.3-1.8c-2.2-0.8-2.2-1.7,0-2.4c-6.1,0.5-5.5-1.4-10.1-1.9
	c2.6-1.2,2.7-2.2-0.4-1.9c2.3-1.5,1.6-2.6-2.2-3.4c0.4-0.1,5.9-2.7,6-3.5c-3.7-2.3-4.7,0-8.4-1.3c1.9-1.1,6.3-3.2,8.5-1.2
	c-0.5-0.7-1.1-1.4-1.8-2l2.9,1.1c-1-0.8-1.5-2-1.5-3.3c-0.6-0.4-5.4-0.3-6.5-0.3c0.3-2.8,3.4-5,3.4-7.8l-5.4,2.6
	c-0.3-1.7,5.1-7.3,5.4-7.3c-5.8-2.4-2.2,0.1-0.2-4.4c-2,1.4-3.9,2.7-5.9,4.1c-2.6-2.1,2.1-3,3-2.8c-2.8-0.2-3.3-1.4-1.5-3.6
	c-2,0.7-2.6,0.1-1.7-1.8l-1.7,2.4c1.1-2,0.1-10-0.9-12.1c0.4,3.2-1.8,7.2-2.7,10.2l0.1-0.3v0.1c-0.1,0.3-0.2,0.8-0.4,1.5
	c0.4-0.2,0.6-0.7,0.5-1.1c0.7,2.9,0.6,4.1-0.3,3.4c1.2,1.6,2,3.4,1.1,4.2c-1.5,1.4-7.8-4.2-9.3-4.7c0.4,0.4,2.8,1.5,1.2,2.1
	c1.6,0.5,3,1.1,4.4,2c-4.5,0,7.1,1.6-1.7,1.6c1.5,1.4,5.9-0.3,6.4,2.5c-0.5,0-6.9-2-7.5-0.2c0.5-1.6,5.5,4,5.6,5
	c-1.4-0.6-2.9-0.6-4.3-0.1c0-0.1,0.1-0.3,0.2-0.4c-0.3,0.2-0.5,0.4-0.7,0.6c-0.4,0.2-0.9,0.4-1.3,0.6c-0.2-1.4-0.6-2.7-1.1-4.1
	c-0.2,1.7-0.3,3.8-1.2,5.3l-0.3,0.2c-0.6-0.7-1.5-1.2-2-1.9c0,0.6,0,1.1-0.1,1.7l-1.8-0.9c0.3,0.3,1.4,1.1,2.3,2.1l-0.3,0.2
	c0.1,0,0.3-0.1,0.4-0.1c0.9,1,1.6,2,0.8,2.4c-2,1.2-6.3-2.8-8.2-3.4c0.4,0.3,2.4,1.1,0.8,1.5c1.4,0.3,2.7,0.8,3.9,1.4
	c-2,0-1,0.1,1,0.9c-0.2,0.6-2.2,0.3-2.8,0.2c1.3,1,5.5-0.3,5.8,1.8c-1.1,0-6-1.3-8.4-0.3c2.9-0.8,9.4,4.5,9.5,6
	c-2.4-0.9-4.4,2.8-6.4,0.1c-2.7-3.5-3.1-1.5-7.1,0c3.8,0.6,6.9,4,11.1,3.4c0.1,0.4-8.9,3.6-8.6,3.5c1.6,0.2,4.6,0,1.5,1.2
	c0.6,0,2.7,0.2,4.6,0.4c0.8,0.4,1.8,0.6,2.7,0.5h0.1c-0.1,0.3-0.3,0.7-0.5,0.9c-3,0.6-8.8,1.8-6.2,2.6c-1.9,1.5-4.7-0.1-6.8-0.7
	c-0.8,2.5,2,2.2,3.1,2.2c-0.3,0.8-1,1.4-1.9,1.6c2.5-0.3,4.9-0.2,7.4,0.2c-0.4,0.3-0.5,0.8-0.5,1.2l0.5,0.1
	c-0.8,0.4-0.4,1.8,0.2,1.7c-0.6,0.5-6.4-0.7-7.8-0.5c0,0.4,0.2,0.5,0.6,0.4c-6,1.8-0.7,1.5,1.5,1.6c-2,0.6-4.5,0.6-6,2.3
	c5.8-0.9,0,0.1,1,1.1c6.9-3.8-0.9,0.8,6.4-1.2c-1.3,1.5,2.2,1.6,5.5,1.5c0,0.1-0.4,0.3-1.2,0.5c-2.8,0.1-5.6,0.1-8.4-0.1
	c1.2,0.3,0.9,0.3-0.8,0.7c0.9,0.1,1.8,0.3,2.7,0.6c-2,1.5,1.3-0.3-1,1.1c0.5,1.1,9.1-0.6,9.4,1.7c0-0.3-17.5-1-12.2-0.6
	c-0.9,0.6-2,0.8-3.1,0.6c-1.4-0.7-2.7-1.6-3.7-1.6c1.7-0.3,3.4-0.6,5.1-1l-0.5-0.2l0.5-0.1c-4.3-2.1-7.4-0.9-11.1-1
	c2.7-0.9,10.4-2.2,9-5.9c0.4,1.2-0.6,1.6-1.9,1.7c1.3-0.9,1.9-2.1,1.4-3.6c0.9,2.5-3.5,2.2-6.4,1.8c1.1-2,3.8-3.5,4.2-5.8l-3.8,0.8
	c1.2-1.2,2.4-2.5,2.6-4.1l-1.8,0.4c1.5-0.6,2.9-1.1,3.5-1.3c-6.8-2.3-2.6,0,0.5-3.9l-7.6,3.7c-0.7-0.5-0.8-0.9-0.7-1.2
	c0.7-0.4,1.5-0.7,2.2-1c1.4-0.3,2.8-0.3,2.5-0.4c-0.2-0.2-0.3-0.3-0.5-0.4c1.1-0.4,2-0.8,2.6-1c-8.3-2.8-3.2,0,0.6-4.8l-6,2.9
	c0.1-0.5,0.2-0.9,0.4-1.3c0.8-0.1,1.4-0.1,1.1-0.2c-2.5-2.2-5.2-1.6-3.4-5.8c-1.4,1-2.4,2.4-2.8,4c-0.3-2.8-1-5.6-1.9-8.3
	c-0.4,2.7-0.4,6.3-2.1,8.6c-1-1.2-2.4-1.9-3.3-3.1c0,0.8,0,1.7-0.1,2.6l-2.7-1.4c0.6,0.6,4.8,3.8,5.3,5.8l-0.6-0.3
	c0.1,0.1,0.3,0.3,0.7,0.6c0.1,0.4-0.1,0.8-0.5,1c-1.7,1.1-4.5-0.4-7.1-2c0.3,0,0.6,0,1-0.1c-0.8-0.3-1.5-0.5-2.2-0.7
	c-1.3-0.9-2.7-1.7-4.1-2.3c0.5,0.4,2.6,1.3,2.1,1.9c-2.6-0.3-4.2,0.4-8.4,0.3c0.4-2.4,4.3-3.5,4.7-6l-6.8,2
	c-0.3-1.4,6.5-5.4,7.4-5.6c-7.3-2-2.7,0.1,0.5-3.3l-7.8,3.1c-3.5-2,6.1-2,4-2.2c-0.7-0.5-1.3-0.9-1.7-1.2c0.4-0.1,0.7-0.5,0.5-1.5
	c-5.5,2.5-1.1-0.8-1.7-1.3c-4.8,2.9-1.8,2.3-4-3c-0.3,1.7-0.4,3.5-0.3,5.2l-2.2-2c-0.1,1-0.2,2.1-0.3,3.1c-0.5-0.4-1-0.8-1.5-1.2
	l-0.6-0.6c0.2-0.4,0.3-0.8,0.4-1.3l-1.5,0.3l0,0l0,0l-9,2c-0.6-3.6,8.8-6.5,11.2-7.4c-8.3-2.8-3.2,0,0.6-4.8l-9.1,4.5
	c-3.9-2.8,5.8-3,4.8-3.1c-2.5-2.2-5.2-1.6-3.4-5.8c-1.4,1-2.4,2.4-2.8,4c-0.3-2.8-1-5.6-1.9-8.3c-0.4,2.7-0.4,6.3-2.1,8.6
	c-1-1.2-2.4-1.9-3.3-3.1c0,0.8,0,1.7-0.1,2.6l-2.7-1.4c0.8,0.8,7.3,5.6,4.9,7.1c-3.1,1.9-9.6-4.3-12.5-5.2c0.6,0.5,3.7,1.7,1.2,2.3
	c2.1,0.5,4.1,1.2,6,2.2c-3,0-1.5,0.2,1.6,1.4c-0.2,0.8-3.4,0.4-4.3,0.4c2,1.5,8.5-0.5,8.9,2.7c-1.7,0-9.2-2-12.8-0.5
	c4.4-1.3,14.3,6.9,14.6,9.2c-3.4-1.3-6.3,3.6-9.2,0.9c1.5-0.6,2.9-1.5,3.9-2.8l-4.5,2.1l0,0l-0.5-0.7c0.5-0.1,0.8-0.1,0.6-0.1
	c-0.6-0.5-1.2-0.9-1.9-1.3c-0.4-0.4-0.8-0.6-1.3-0.8c-0.8-0.7-1.1-1.6-0.2-3.8c-1.4,1-2.4,2.4-2.8,4c-0.3-2.8-1-5.6-1.9-8.3
	c-0.4,2.7-0.4,6.3-2.1,8.6c-1-1.2-2.4-1.9-3.3-3.1c0,0.8,0,1.7-0.1,2.6l-2.7-1.4c0.8,0.8,7.3,5.6,4.9,7.1c-3.1,1.9-9.6-4.3-12.5-5.2
	c0.6,0.5,3.7,1.7,1.2,2.3c2.1,0.5,4.1,1.2,6,2.2c-3,0-1.5,0.2,1.6,1.4c-0.2,0.8-3.4,0.4-4.3,0.4c2,1.5,8.5-0.5,8.9,2.7
	c-1.7,0-9.2-2-12.8-0.5c4.4-1.3,14.3,6.9,14.6,9.2c-3.7-1.4-6.7,4.3-9.8,0.2c-4.1-5.3-4.8-2.4-10.8,0c5.5,0.8,10,5.5,15.9,5.3
	c0.1,0.2,0.3,0.3,0.5,0.4c-2.6,1.4-13,5.1-12.6,5c2.5,0.3,7-0.1,2.3,1.9c3.7,0.1,7.3,0.6,10.9,1.2c-4,1.3-3.6,1.7-1.9,1.9
	c-4.7,1-11.3,2.6-7.7,3.6c-2.8,2.2-6.9,0-10-1c0.1-0.3,0.2-0.7,0.3-1l0.1,0.7c2.4,0.2,4.8-0.2,7-1c-2.1-0.2-4-0.4-5.8-0.7
	c2.6-0.7,4.8-1.4,4.9-2.6L898,136c-1.8-0.3-3.6-0.6-5.3-0.8c0-4.4,5-5.3,13.2-5.2c-2.7-0.9-7.4-1-10.4-1c1.9-0.7,3.5-2,4.7-3.7
	l-5.8,3c0.6-0.6,1.1-1.2,1.6-1.8h0.4l-0.2-0.2c0.5-0.8,0.7-1.3,0.2-1.5c2.3,0.6,4.8,0.5,7-0.3c-0.3,0-2.5-0.3-5.3-0.8
	c1.7-0.2,3.4-1,4.8-2.1c-1.7,0.9-3.5,1.6-5.4,2l-4.7-0.8c-0.3-0.5-0.3-1.1-0.1-1.7c-0.2,0.6-0.4,1.1-0.6,1.6l-2.3-0.4
	c-0.2-0.7-0.5-1.3-0.8-2c3-0.9,5.8-2.2,8.9-1.7c-4.2-3.4-1.5-3.3,3.1-2l-2.5-1.4l2.2-1.3c-1.1,0.1-11.7,0.5-10.1-1.3
	c-1.9,0.6-7,4-9,1.8l7.1-3.5c-0.9-0.2-1-0.6-0.4-1.3c-2.8,0.2-5.7,0.4-8.5,0.6c2.4-0.4,4.8-1.3,7.2-1.8l-10-3l16.7,0.9
	c-2.5,0-5.5-2.8-7.5-2.8c2.1-0.3,4.2-0.7,6.3-1.2c-5.5-2.6-8.9,0-14.1-1.5c2.7-1.2,13.2-2.6,11.5-7.4c1.3,3.7-8.9,1.3-9,1.3
	c0.5-3.3,5.1-5.3,5.6-8.6l-10.5,2.3c-0.6-3.6,8.8-6.5,11.2-7.4c-8.3-2.8-3.2,0,0.6-4.8l-9.3,4.5c-3.9-2.8,5.8-3,4.8-3.1
	c-2.5-2.2-5.2-1.6-3.4-5.8c-1.4,1-2.4,2.4-2.8,4c-0.3-2.8-1-5.6-1.9-8.3c-0.4,2.7-0.4,6.3-2.1,8.6c-1-1.2-2.4-1.9-3.3-3.1
	c0,0.9,0,1.7-0.1,2.6l-2.7-1.4c0.8,0.8,7.3,5.6,4.9,7.1c-3.1,1.9-9.6-4.3-12.5-5.2c0.6,0.5,3.7,1.7,1.2,2.3c2.1,0.5,4.1,1.3,6,2.2
	c-3,0-1.5,0.2,1.6,1.4c-0.2,0.8-3.4,0.4-4.3,0.4c2,1.5,8.5-0.5,8.9,2.7c-1.7,0-9.2-2-12.8-0.5c4.4-1.3,14.3,6.9,14.6,9.2
	c-3.7-1.4-6.7,4.3-9.8,0.2c-4.1-5.3-4.8-2.4-10.8,0c5.9,0.9,10.5,6.1,17,5.3c0.2,0.6-13.6,5.6-13.2,5.4c2.5,0.3,7-0.1,2.3,1.9
	c2,0.1,12.7,0.7,13.1,2.3c-0.1,0.1-17.1,3-11.8,4.4c-3,2.3-7.2-0.2-10.3-1.1c-1.3,3.8,3,3.3,4.8,3.3c-0.5,1.3-1.6,2.2-2.9,2.5
	c2.3-0.6,20.6-0.5,18.9,5c-1.7-0.9-3.5-1.7-5.2-2.6c-3.9-1.5-3.3,2.6-2,2.5c-0.8,0.8-9.1-0.9-11.7-0.8c-1-0.3,1.7,0,3.7-2.1
	l-6.9,2.7c-3.1-1.8,5.3-1.8,3.6-1.9c-0.6-0.5-1.1-0.8-1.5-1c0.3-0.1,0.6-0.4,0.5-1.3c-3.7,1.7-1.6-0.3-1.5-1.2
	c-4.2,2.5-1.6,2-3.5-2.6c-0.7,4,0.4,6.1-2.2,2.8c-0.1,0.9-0.2,1.8-0.3,2.8c-0.6-0.6-1.5-1.1-2.1-1.7c1.2,1.3,3.2,3.8,2.1,4.4
	c-2.6,1.3-6.9-2.6-9.3-3.1c0.4,0.3,2.8,1,0.9,1.4c1.5,0.3,3,0.8,4.4,1.4c-2.2,0-1.2,0.1,1.2,0.8c-0.2,0.5-2.7,0.2-3.2,0.2
	c1.5,0.9,6.3-0.4,6.6,1.7c-1.1,0-7-1.7-8-0.1c1-1.4,5.5,2.3,5.6,3.3c-3.9-1.2-7.9,1-11.6,2.1c1.1-0.2,2.2-0.2,3.3,0
	c-3.6,0.7,0.1,0.6,0.4,1.1c2.3-0.3,3.2,0.9,4.8,1.3c0.9,2.9-3.3,3.4-5.1,3.6c0.7,0.4,0.5,0.6-0.5,0.6c1.6,0.2,5.3-0.1,1.7,1.2
	c4.1,0.5,2.8,1.8,1.6,2.8c-0.1,0-0.2,0.1-0.3,0.2c-0.6,0.5-1.1,1-0.4,1.1c-2.2,1.4-5.5-0.1-7.7-0.7c-0.9,2.3,2.7,2,3.6,2
	c-0.4,0.8-1.2,1.4-2.1,1.5c3.4-0.7,8.4-0.6,11.6,1.1c-1.2,0.1-5.5,2-2.9,1.9c-1,0.8-6.8-0.7-8.9-0.5c0,0.2,0.2,0.4,0.4,0.5
	c0,0,0.1,0,0.1,0c-6.8,1.7-0.4,1.4,1.9,1.5c-2.2,0.6-5.1,0.5-6.8,2.2c1.1-0.8,1.9-0.9,2.4-0.2l-1.4,1.1c0.4,0.3,9.5-3.1,6.1,0.1
	c1.2-0.7,2.6-1.1,3.9-1.4c-2.1,1-4.3,1.7-6.5,2.3c-0.6,0.2-1.2,0.4-1.8,0.4l3.1,0.6c-2.4,1.4,1.6-0.4-1.1,1.1c0.4,0.6,2-0.1,2.8,1.2
	c-0.2,0.1-3.8-0.1-6-0.2c-1.7,1.1-3.6,0.3-5.4,0.7c0.3-0.6-1-0.6-0.6-1.3c2.5,0.6,0.4-4.1,4-0.5c-0.1-2-1.4-3.8-3.4-4.5
	c2.9-0.3,1.2-0.4,0.2-2.1c1.4,0.7,2.2,0.3,2.4-1.3c1.5-0.3,1.5-0.1,0,0.6c1.7,0.1,3.4-0.2,5-0.9c-5.9-0.7-9.1-3.1-13.8-2.7
	c-0.7-0.7,15.9-3.8,6.8-8.6c1.6,0.5,3.4,0.4,4.9-0.4c-2.6-0.3-6.5,0.4-8.6-1.8s4.1-3.8,5.2-3.5c-1.9-2.2-1.5-3.3,2.3-1.8
	c-2.2-0.8-2.2-1.7,0-2.4c-6.1,0.5-5.5-1.4-10.1-1.9c2.6-1.2,2.7-2.2-0.4-1.9c2.3-1.5,1.6-2.6-2.2-3.4c0.4-0.1,5.9-2.7,6-3.5
	c-3.7-2.3-4.7,0-8.4-1.3c1.9-1.1,6.3-3.2,8.5-1.2c-0.5-0.7-1.1-1.4-1.8-2l2.9,1.1c-1-0.8-1.5-2-1.5-3.3c-0.6-0.4-5.5-0.3-6.5-0.3
	c0.3-2.8,3.4-5,3.4-7.8l-5.4,2.6c-0.3-1.7,5.1-7.3,5.4-7.3c-5.8-2.4-2.1,0.1-0.2-4.4c-2,1.4-3.9,2.7-5.9,4.1c-2.5-2.1,2.1-3,3-2.8
	c-2.8-0.2-3.3-1.4-1.5-3.6c-2,0.7-2.6,0.1-1.7-1.8l-1.7,2.4c1.1-2,0.1-10-0.9-12.1c0.4,3.2-1.8,7.2-2.8,10.2l0.1-0.3v0.1
	c-0.1,0.3-0.2,0.8-0.4,1.5c0.4-0.2,0.6-0.7,0.5-1.1c0.7,2.9,0.6,4.1-0.3,3.4c1.2,1.6,2,3.4,1.1,4.2c-1.5,1.4-7.8-4.2-9.3-4.7
	c0.4,0.4,2.8,1.5,1.2,2.1c1.6,0.5,3,1.1,4.4,2c-4.5,0,7.1,1.6-1.7,1.6c1.5,1.4,5.9-0.3,6.4,2.5c-0.5,0-6.9-2-7.5-0.2
	c0.5-1.6,5.5,4,5.6,5c-3.6-1.7-7.5,1.6-10.7,3.2c1-0.4,2.1-0.4,3.1,0c-3.2,1,0,0.4,0.4,1.7c7.6-1.6,3.1,6.4-0.8,8.1
	c3.5,0.7,4.2,0.3,1.6,1.7c8,0-2,5.2,0.6,6.2c-2.1,2-4.9-0.1-7.1-1c-1,3.2,1.3,3,3.2,3c-0.3,1.1-1.1,1.9-2.1,2.3
	c2.4-0.8,11.9-1.1,10.6,3.1c-3.6-1.6-3.4,0.5-3,1.2c-1.5-0.4-9.1-0.4-7.4-0.1c-2.2-0.3-3.3,0.3-3.2,1.6c1.5,0.4,3,0.5,4.5,0.4
	c0.1,0.9-5.7,2.4-6.6,3.7c2.9-0.6,2.4,0.4,1.5,1.1l1.7-1.2c-0.5,0.7-0.8,1.4-0.9,2.2c2.2,0.8,2.2,0.7-0.1,1.3
	c5.8,1.7,1.1,0.6,1.7,2.6c1.9-0.2,1.9-0.2,2.4,1.6c0,0-11.3-0.8-5.5-0.3c-1.7,1.7-3.6,0.3-5.5,1.2c1,2,1.8-1.1,2.1,1.7
	c-0.5-0.4-1.1-0.3-1.5,0.1c-0.2,0.2-0.3,0.4-0.3,0.7c1.7,0.1,5.9-0.9,4.4,2c4.4-2.4,0.1-0.3,4-0.3c0.2,1.8-1.3,2.5-4.5,2.2
	c0.2,0,6.9,6.3-0.4,1c0.6,2.6-2.8,1.9-5.4,3.9c0.7-0.4,1.5-0.5,2.3-0.2c0.3,0.5-0.4,1.5-1.3,2.5c-4.9-0.8-11.8-1.9-11.5-2.2
	c4.2,0.7,7.8-2.6,11.8-1.8c-3.4-2.8-1.2-2.7,2.5-1.6l-2-1.1l1.8-1.1c-0.9,0.1-9.6,0.4-8.3-1.1c-1.5,0.5-5.8,3.3-7.3,1.5l5.8-2.9
	c-0.7-0.1-0.8-0.5-0.4-1c-2.3,0.2-4.6,0.4-7,0.5c2-0.4,3.9-1.1,5.9-1.5l-8.2-2.5l13.7,0.8c-2,0-4.5-2.3-6.2-2.3
	c1.7-0.3,3.4-0.6,5.1-1c-4.5-2.1-7.3,0-11.5-1.2c2.2-0.9,10.8-2.2,9.4-6c1,3.1-7.3,1-7.4,1c0.4-2.7,4.2-4.3,4.6-7l-8.6,1.9
	c-0.5-3,7.2-5.4,9.2-6.1c-6.8-2.3-2.6,0,0.5-3.9l-7.5,3.7c-3.2-2.3,4.8-2.5,3.9-2.6c-2.1-1.8-4.2-1.3-2.8-4.8
	c-1.1,0.8-1.9,1.9-2.3,3.3c-0.3-2.3-0.8-4.6-1.6-6.8c-0.3,2.2-0.3,5.1-1.7,7.1c-0.8-0.9-2-1.6-2.7-2.6c0,0.7,0,1.4-0.1,2.1l-2.2-1.2
	c0.7,0.7,6,4.6,4,5.8c-2.5,1.6-7.9-3.6-10.3-4.2c0.5,0.4,3,1.4,1,1.9c1.7,0.4,3.4,1,4.9,1.8c-2.5,0-1.2,0.2,1.3,1.1
	c-0.2,0.7-2.8,0.3-3.5,0.3c1.6,1.3,7-0.4,7.3,2.2c-1.4,0-7.6-1.6-10.5-0.4c3.6-1.1,11.8,5.7,12,7.5c-3-1.1-5.5,3.5-8.1,0.1
	c-1.9-2.5-2.8-2.8-4.2-2.2c-0.9-1.1,1.8-0.6,4.4,0l-2.1-1l1.9-0.9c-6.7,0.3-7.7-1.1-12.5-1.4l2.4-0.7c-0.8,0.2,1.2-1-3-0.8l1.5-1
	c-1.5-0.4-2.8-1.4-4.3-1.7c0.9-0.3,7-1.6,7.3-2.6c-3.9-1.5-6.2-0.1-10.2-1c2.4-0.8,9.2-3.1,11.3,0c-0.1-0.2-0.6-3.4-1.1-4
	c1.4,0.6,3,0.7,4.5,0.5c-5.9-2.2-6.7-0.7-12.7-0.8c0.4-2.4,4.3-3.5,4.7-6l-6.8,2c-0.3-1.4,6.6-5.4,7.4-5.6c-7.3-2-2.7,0.1,0.5-3.3
	l-7.8,3.1c-3.5-2,6.1-2,4-2.2c-0.7-0.5-1.3-0.9-1.7-1.2c0.4-0.1,0.7-0.5,0.5-1.5c-5.5,2.5-1.1-0.8-1.7-1.3c-4.8,2.9-1.8,2.3-4-3
	c-0.3,1.7-0.4,3.5-0.3,5.2l-2.2-2c-0.1,1-0.2,2.1-0.3,3.1c-0.5-0.4-1-0.8-1.5-1.2c6.1,5.8-5.2,1.6-9.1,0.7c0.5,0.3,3.2,1.2,1,1.6
	c1.7,0.3,3.4,0.9,5.1,1.5c-2.5,0-1.3,0.1,1.3,1c-0.2,0.6-2.9,0.3-3.6,0.2c1.7,1.1,7.2-0.5,7.5,1.9c-1.3,0-8-1.9-9.2-0.1
	c1.1-1.6,6.2,2.6,6.4,3.8c-4.4-1.4-9,1.1-13.2,2.4c1.3-0.3,2.5-0.3,3.8,0c-4.2,0.8,0.1,0.7,0.4,1.3c7.2-1,6,5.1-0.4,5.5
	c0.7,0.4,0.6,0.7-0.6,0.7c1.8,0,6.1-0.1,2,1.3c4.6,0.6,3.2,2,1.8,3.2c-0.1,0-0.3,0.1-0.3,0.2c-0.7,0.6-1.2,1.1-0.5,1.3
	c-2.5,1.6-6.1-0.1-8.7-0.8c-1,2.6,3.1,2.3,4,2.3c-0.3,0.6-0.8,1.1-1.3,1.4c-5-2-8.4,0.2-13.3-1.1c2.7-1.2,13.2-2.6,11.5-7.4
	c1.3,3.7-8.9,1.3-9,1.3c0.5-3.3,5.1-5.3,5.6-8.6l-10.5,2.3c-0.6-3.6,8.8-6.5,11.2-7.4c-8.3-2.8-3.2,0,0.6-4.8l-9.3,4.5
	c-3.9-2.8,5.8-3,4.8-3.1c-2.5-2.2-5.2-1.6-3.4-5.8c-1.4,1-2.4,2.4-2.8,4c-0.3-2.8-1-5.6-1.9-8.3c-0.4,2.7-0.4,6.3-2.1,8.6
	c-1-1.2-2.4-1.9-3.3-3.1c0,0.9,0,1.7-0.1,2.6l-2.7-1.4c0.8,0.8,7.3,5.6,4.9,7.1c-3.1,1.9-9.6-4.3-12.5-5.2c0.6,0.5,3.7,1.7,1.2,2.3
	c2.1,0.5,4.1,1.2,6,2.2c-3,0-1.5,0.2,1.6,1.4c-0.2,0.8-3.4,0.4-4.3,0.4c2,1.5,8.5-0.5,8.9,2.7c-1.7,0-9.2-2-12.8-0.5
	c4.4-1.3,14.3,6.9,14.6,9.2c-3.7-1.4-6.7,4.3-9.8,0.2c-4.1-5.3-4.8-2.4-10.8,0c5.9,0.9,10.5,6.1,17,5.3c0.2,0.6-13.6,5.6-13.2,5.4
	c2.5,0.3,7-0.1,2.3,1.9c2,0.1,12.7,0.7,13.1,2.4c-0.1,0.1-17.1,3-11.8,4.4c-3,2.3-7.2-0.2-10.4-1.1c-0.8,2.3,0.5,3,2,3.2
	c-1.6,3.3-5.8-1.5-8.8-1.5c0-3,13.4-3.3,13.6-6.3l-14.2,3.1c-1.5-6,3.7-7.2,12.9-7.1c-2.7-0.9-7.4-1-10.4-1c1.9-0.7,3.5-2,4.7-3.7
	c-2.7,1.3-5.3,2.7-7.9,4.1c-2.7-1.8,1.5-3.1,4-2.9c-4.7-3.7,2.7-1.3,6.5-4.9c-4,2.3-11.3,3.8-10.2-0.5c-1.4,4.4-2.4,4.9-2.8,1.3
	c-1-2.6-2.1-5.2-3.4-7.7c0,3.9,1.8,7.7,1.5,11.6c0.2-2.4-3.1-4.6-4.1-6.8c0.1,2.1,2,4,2.1,6l-8.6-1.6c1.4,1,12.4,3.4,9.1,5.7
	c-1.3,0.9-10.4-4.3-11.9-4.7c2.7,2.1-1.9,3.1-5.4,4.1c3.8,1.1,7.5-2.8,12.5,0.1c-4,0,1.7,0.4,1.5,1.6c-4.5-0.2-8.9,1-13.4,0.8
	c2.7,1.9,16.9-2.8,17.9,1.7c-0.4,0-8.9-1.9-9.6-0.2c0.4-1.1,7.1,4.2,7.3,5c-4.5-1.3-9.2-2.1-13.8-2.5c1.4,0,7.1,2.9,7.3,3.9
	c-3.1-0.5-10.4-2.6-13.5-1.4c3.2,0.5,8.5,1.6,10.8,3.1c-0.7,0.1-1.4,0.3-2,0.6c3-1.3,4,1.4,4.6,1.6c-4.9-0.9-12.6,2.1-15.4,4.2
	c3.2-2.4,13.8-3.3,18.1-2c2,0.6,2.8,1.1,3,1.4c-0.3,0.2-0.6,0.4-0.8,0.8c-3.2,1.1-14.5,1-14.4,1c1.3,1.3,7.2,0.6,8.5,1.9
	c-1.9,0.7-5,0-6.9,0.7c3.1,0.5,6.7-0.2,9.8,0.3c0.3,0.6-0.3,1-1.8,1.1c10.6,0-2.3,5.1,1.6,6.2c-0.1,0.1-17.7-0.4-18.2-1
	c1.3,1.2,11,3,13.7,3c-0.1,1-0.9,1.8-2.2,2.3c3.8-1.1,14-0.5,13.2,3.1c-1.1-0.6-2.4-1-3.6-1.1c-1.7,0.8,0.5,2.4-0.4,3.4
	c-4.9-2.4-9.3-1.3-7.9-1.2c-3.1,0-4.5,0.5-4.2,1.5c1.8,0.4,3.6,0.5,5.5,0.4c0.3,1-6.3,2.3-7.4,3.8c3.5-0.6,2.8,0.5,1.9,1.2
	c0.6-0.4,1.7-1.1,3.4-2.2c0.2,0.7,0.1,1.5-0.2,2.1c4.5-2.1,5.5-1.9,3,0.4c1.3-1,2.8-1.7,4.3-2.1c-1.6,1.1-3.1,2.3-4.5,3.6
	c-1.5-0.7-0.3-1,0.6-1.2c-0.8,0-2.5,0.1-5.3,0.1c-0.2,1.5,5.1,0.2,0.1,1.5c6.8,1.6,1.5,0.7,2.4,2.6c2.7-0.2,2.4,0.1,3.1,1.6
	c-0.2,0.1-8.3-0.8-8.6-0.8c-0.2,0.6,0.5,0.7,2,0.4c-2.3,2.2-9.5-0.1-12.7,1.4c1.7,2.3,6.5-1.4,7.4,1.6c-1.4-0.9-2,0.1-2,0.8
	c2.9,0.1,8.6-0.8,7.3,2c2.5-1.2,8-1.4-0.3,2c0,0,1,0.6,1.9,1.4c-0.3,0.1-0.6,0.2-0.8,0.3l-0.2,0.1l-1.2-0.7c0.2,0.4,0.3,0.9,0.2,1.4
	c-0.1,0.2-0.3,0.3-0.4,0.5c0.1-0.2,0.2-0.3,0.4-0.5c-0.7,2.9-11.3-1-15,1c-2.2,0.2-4.5,0.3-6.7,0.5c2.4-0.4,4.8-1.3,7.2-1.8l-10-3
	l16.7,0.9c-2.5,0-5.5-2.9-7.5-2.8c2.1-0.3,4.2-0.7,6.3-1.2c-5.5-2.6-8.9,0-14.1-1.5c2.7-1.2,13.2-2.6,11.5-7.4
	c1.3,3.7-8.9,1.3-9,1.3c0.5-3.3,5.1-5.3,5.6-8.6l-10.5,2.5c-0.6-3.6,8.8-6.5,11.2-7.4c-8.3-2.8-3.2,0,0.6-4.8l-9.3,4.5
	c-3.9-2.8,5.8-3,4.8-3.1c-2.5-2.2-5.2-1.6-3.4-5.8c-1.4,1-2.4,2.4-2.8,4c-0.3-2.8-1-5.6-1.9-8.3c-0.4,2.7-0.4,6.3-2.1,8.6
	c-1-1.1-2.4-1.9-3.3-3.1c0,0.9,0,1.7-0.1,2.6l-2.7-1.4c0.8,0.8,7.3,5.6,4.9,7.1c-3.1,1.9-9.6-4.3-12.5-5.1c0.6,0.5,3.7,1.7,1.2,2.3
	c2.1,0.5,4.1,1.3,6,2.2c-3,0-1.5,0.2,1.6,1.4c-0.2,0.8-3.4,0.4-4.3,0.4c2,1.5,8.5-0.5,8.9,2.7c-1.7,0-9.2-2-12.8-0.5
	c4.4-1.3,14.3,6.9,14.6,9.2c-3.7-1.4-6.7,4.3-9.8,0.2c-4.1-5.3-4.8-2.4-10.8,0c5.9,0.9,10.5,6.1,17,5.3c0.2,0.6-13.6,5.6-13.2,5.4
	c2.5,0.3,7-0.1,2.3,1.9c2,0.1,12.7,0.7,13.1,2.4c-0.1,0.1-17.1,3-11.8,4.4c-2.2,1.7-5,0.8-7.6-0.2c0-0.1,0.1-0.2,0.1-0.2l-0.4,0.1
	c-0.9-0.3-1.7-0.6-2.5-0.9c-0.3,0.7-0.3,1.4-0.1,2.1c-2.2,1-4.8,1.9-6,0.4l7.1-3.5c-0.9-0.2-1-0.6-0.4-1.3c-2.8,0.2-5.7,0.4-8.5,0.6
	c2.4-0.4,4.8-1.3,7.2-1.8l-10-3l16.7,0.9c-2.5,0-5.6-2.9-7.5-2.8c2.1-0.3,4.2-0.7,6.3-1.2c-5.5-2.6-8.9,0-14.1-1.5
	c2.7-1.2,13.2-2.6,11.5-7.4c1.3,3.7-8.9,1.3-9,1.3c0.5-3.3,5.1-5.3,5.6-8.6l-10.5,2.2c-0.6-3.6,8.8-6.5,11.2-7.4
	c-8.3-2.8-3.2,0,0.6-4.8l-9.3,4.5c-3.9-2.8,5.8-3,4.8-3.1c-2.5-2.2-5.2-1.6-3.4-5.8c-1.4,1-2.4,2.4-2.8,4c-0.3-2.8-1-5.6-2-8.3
	c-0.4,2.7-0.4,6.3-2.1,8.6c-1-1.1-2.4-1.9-3.3-3.1c0,0.9-0.1,1.7-0.1,2.6l-2.7-1.4c0.8,0.8,7.3,5.6,4.9,7.1
	c-3.1,1.9-9.6-4.3-12.5-5.1c0.6,0.5,3.7,1.7,1.2,2.3c2.1,0.5,4.1,1.3,6,2.2c-3,0-1.5,0.2,1.6,1.4c-0.2,0.8-3.4,0.4-4.3,0.4
	c2,1.5,8.5-0.5,8.9,2.7c-1.7,0-9.2-2-12.8-0.5c4.4-1.3,14.3,6.9,14.6,9.2c-3.7-1.4-6.7,4.3-9.8,0.2c-1.8-2.4-3-3.1-4.2-3
	c-4.9-1.9-8.3,0.3-13.2-1.1c2.7-1.2,13.2-2.6,11.5-7.4c1.3,3.7-8.9,1.3-9,1.3c0.5-3.3,5.1-5.3,5.6-8.6l-10.5,2.3
	c-0.6-3.6,8.8-6.5,11.2-7.4c-8.3-2.8-3.2,0,0.6-4.8l-9.3,4.5c-3.9-2.8,5.8-3,4.8-3.1c-2.5-2.2-5.2-1.6-3.4-5.8c-1.4,1-2.4,2.4-2.8,4
	c-0.3-2.8-1-5.6-1.9-8.3c-0.4,2.7-0.4,6.3-2.1,8.6c-1-1.1-2.4-1.9-3.3-3.1c0,0.9,0,1.7-0.1,2.6l-2.7-1.4c0.8,0.8,7.3,5.6,4.9,7.1
	c-3.1,1.9-9.6-4.3-12.5-5.1c0.6,0.5,3.7,1.7,1.2,2.3c2.1,0.5,4.1,1.2,6,2.2c-3,0-1.5,0.2,1.6,1.4c-0.2,0.8-3.4,0.4-4.3,0.4
	c2,1.5,8.5-0.5,8.9,2.7c-1.7,0-9.2-2-12.8-0.5c4.4-1.3,14.3,6.9,14.6,9.2c-3.7-1.4-6.7,4.3-9.8,0.2c-4.1-5.3-4.8-2.4-10.8-0.1
	c5.9,0.9,10.5,6.1,17,5.3c0.2,0.6-13.6,5.6-13.2,5.4c2.5,0.3,7-0.1,2.3,1.9c2,0.1,12.7,0.7,13.1,2.4c-0.1,0.1-17.1,3-11.8,4.4
	c-3,2.3-7.2-0.2-10.3-1.1c-1.3,3.8,3,3.3,4.8,3.3c-0.5,1.3-1.6,2.2-2.9,2.5c2.3-0.6,20.6-0.5,18.9,5c-1.7-0.9-3.5-1.7-5.2-2.6
	c-3.9-1.5-3.3,2.6-2,2.5c-0.8,0.8-9.1-0.9-11.7-0.8c-1-0.3,1.7,0,3.7-2.1l-6.9,2.7c-3.1-1.8,5.3-1.8,3.6-1.9c-0.7-0.5-1.1-0.8-1.5-1
	c0.3-0.1,0.6-0.4,0.5-1.4c-3.7,1.7-1.6-0.4-1.5-1.2c-4.2,2.5-1.5,2-3.5-2.6c-0.7,4,0.4,6.1-2.2,2.9c-0.1,0.9-0.2,1.8-0.3,2.8
	c-0.6-0.6-1.5-1.1-2.1-1.7c1.2,1.3,3.2,3.8,2.1,4.4c-2.6,1.3-6.9-2.6-9.3-3.1c0.4,0.3,2.8,1,0.9,1.4c1.5,0.3,3,0.8,4.4,1.4
	c-2.2,0-1.2,0.1,1.2,0.8c-0.2,0.5-2.7,0.2-3.2,0.2c1.5,0.9,6.3-0.4,6.6,1.6c-1.1,0-7-1.7-8-0.1c1-1.4,5.5,2.3,5.6,3.3
	c-3.9-1.2-7.9,1-11.6,2.1c1.1-0.2,2.2-0.2,3.3,0c-3.6,0.7,0.1,0.6,0.4,1.1c2.3-0.3,3.2,0.9,4.8,1.3c0.9,2.9-3.3,3.4-5.1,3.6
	c0.7,0.4,0.5,0.6-0.5,0.6c1.6,0.2,5.4-0.1,1.7,1.2c4.1,0.5,2.8,1.8,1.6,2.8c-0.1,0-0.2,0.1-0.3,0.2c-0.6,0.5-1.1,1-0.4,1.1
	c-2.2,1.4-5.5-0.1-7.7-0.7c-0.9,2.3,2.7,2,3.6,2c-0.4,0.8-1.2,1.4-2.1,1.5c3.4-0.7,8.4-0.6,11.6,1.1c-1.2,0.1-5.5,2-2.9,1.9
	c-0.7,0.5-3.2,0.1-5.5-0.2v-0.1v0.1c-1.1-0.2-2.2-0.3-3.4-0.2c0,0.2,0.2,0.4,0.4,0.5c0,0,0.1,0,0.1,0c-6.8,1.7-0.4,1.4,1.9,1.5
	c-2.2,0.6-5.1,0.5-6.8,2.2c1.1-0.8,1.9-0.9,2.5-0.2l-1.5,1.1c0.3,0.2,4.9-1.4,6.4-1.2c-0.1,0.4-0.1,0.8-0.2,1.3l-0.1,0.1h0.1v0.2
	c-0.9,0.3-1.8,0.6-2.7,0.8c-0.6,0.2-1.2,0.4-1.8,0.4l3.1,0.6c-2.4,1.4,1.6-0.4-1.1,1.1c0.2,0.4,0.9,0.2,1.6,0.4
	c-0.1,0.3-0.2,0.6-0.4,0.8l-1.6-0.1c-1-0.8-2-1.7-2.9-2.6c0,0.8,0,1.6-0.1,2.5l-1.1-0.1l-2.1-1.1c0.3,0.3,1.1,0.9,2,1.7
	c-1.3,0.2-2.7-0.1-4,0.2c0.3-0.6-1-0.6-0.6-1.3c2.5,0.6,0.4-4.1,4-0.5c-0.1-2-1.4-3.8-3.4-4.5c2.9-0.3,1.2-0.4,0.2-2.1
	c1.4,0.7,2.2,0.3,2.4-1.3c1.5-0.3,1.5-0.1,0,0.6c1.7,0.1,3.4-0.2,5-0.9c-5.9-0.7-9.1-3.1-13.9-2.7c-0.6-0.7,15.9-3.8,6.8-8.6
	c1.6,0.5,3.4,0.4,4.9-0.3c-2.6-0.3-6.5,0.4-8.6-1.8s4.1-3.8,5.2-3.5c-1.9-2.2-1.5-3.3,2.3-1.8c-2.2-0.8-2.2-1.7,0-2.4
	c-6.1,0.5-5.5-1.4-10.1-1.9c2.6-1.2,2.6-2.2-0.4-1.9c2.3-1.5,1.6-2.6-2.2-3.4c0.4-0.1,5.9-2.7,6-3.5c-3.7-2.3-4.7,0-8.4-1.3
	c1.9-1.1,6.3-3.2,8.5-1.1c-0.5-0.7-1.1-1.4-1.8-2l2.9,1.1c-1-0.8-1.5-2-1.5-3.3c-0.6-0.4-5.5-0.2-6.5-0.3c0.3-2.8,3.4-5,3.4-7.8
	l-5.4,2.6c-0.3-1.7,5.1-7.3,5.4-7.3c-5.8-2.4-2.1,0.1-0.2-4.4c-2,1.4-3.9,2.7-5.9,4.1c-2.5-2.1,2.1-3,3-2.9
	c-2.8-0.2-3.3-1.4-1.5-3.6c-2,0.7-2.6,0.1-1.7-1.8l-1.7,2.4c1.1-2,0.1-10-0.9-12.1c0.4,3.2-1.8,7.2-2.8,10.2l0.1-0.3v0.1
	c-0.1,0.3-0.2,0.8-0.4,1.5c0.4-0.2,0.6-0.7,0.5-1.1c0.7,2.9,0.6,4.1-0.3,3.4c1.1,1.6,2,3.4,1.1,4.2c-1.5,1.4-7.8-4.2-9.3-4.7
	c0.4,0.4,2.8,1.5,1.2,2.1c1.6,0.5,3,1.1,4.4,2c-4.5,0,7.1,1.6-1.7,1.6c1.5,1.4,5.9-0.3,6.4,2.5c-0.5,0-6.9-2-7.5-0.2
	c0.5-1.6,5.5,4,5.6,5c-3.6-1.7-7.5,1.6-10.6,3.2c1-0.4,2.1-0.4,3.1,0c-3.2,1,0,0.4,0.4,1.7c6.8-1.5,3.9,4.9,0.4,7.4
	c-4-0.6-9.8-1.6-9.6-1.8c3.3,0.6,6.2-2,9.4-1.4c-2.7-2.2-1-2.1,2-1.3l-1.6-0.9l1.5-0.8c-0.7,0-7.6,0.3-6.6-0.9
	c-1.2,0.4-4.6,2.6-5.9,1.2l4.6-2.3c-0.6-0.1-0.7-0.4-0.3-0.8c-1.9,0.1-3.7,0.3-5.5,0.4c1.6-0.3,3.1-0.8,4.7-1.2l-6.5-2l10.9,0.6
	c-1.6,0-3.6-1.9-4.9-1.8c1.4-0.2,2.7-0.5,4.1-0.8c-3.6-1.7-5.8,0-9.2-1c1.8-0.8,8.6-1.7,7.5-4.8c0.8,2.4-5.8,0.8-5.9,0.8
	c0.3-2.2,3.3-3.4,3.6-5.6l-6.9,1.5c-0.4-2.4,5.8-4.3,7.3-4.9c-5.5-1.8-2.1,0,0.4-3.1l-6.1,2.9c-2.6-1.8,3.8-2,3.1-2
	c-1.7-1.4-3.4-1-2.2-3.8c-0.9,0.6-1.5,1.5-1.9,2.6c-0.2-1.8-0.6-3.7-1.2-5.4c-0.2,1.8-0.3,4.1-1.4,5.6c-0.6-0.8-1.6-1.3-2.2-2
	c0,0.6,0,1.1-0.1,1.7l-1.8-0.9c0.5,0.5,4.8,3.6,3.2,4.6c-2,1.2-6.3-2.8-8.2-3.4c0.4,0.3,2.4,1.1,0.8,1.5c1.4,0.3,2.7,0.8,3.9,1.4
	c-2,0-1,0.1,1,0.9c-0.1,0.6-2.2,0.3-2.8,0.2c1.3,1,5.5-0.3,5.8,1.8c-1.1,0-6-1.3-8.4-0.3c2.9-0.8,9.4,4.5,9.5,6
	c-2.4-0.9-4.4,2.8-6.4,0.1c-2.6-3.5-3.1-1.5-7.1,0c3.8,0.6,6.9,4,11.1,3.4c0.1,0.4-8.9,3.6-8.6,3.5c1.6,0.2,4.6,0,1.5,1.2
	c1.3,0.1,8.3,0.5,8.5,1.5c-0.1,0-11.2,1.9-7.7,2.9c-1.9,1.5-4.7-0.1-6.8-0.7c0,0.1,0,0.2-0.1,0.3c-0.5-0.3-1-0.7-1.5-1.1
	c1.3,0.7,2,0.4,2.1-0.9l0.1,0.5c1.6,0.1,3.1-0.1,4.6-0.7c-6.4-0.6-9.3-1.8-14.9-1.6c3.4-1.4,8.2-6.1,7.2-6.5
	c1.5,0.4,3.1,0.3,4.6-0.2c-0.6-0.1-13.4-2-13-2.4c3.3,0.6,6.2-2,9.4-1.4c-2.7-2.2-1-2.1,2-1.3l-1.6-0.9l1.5-0.9
	c-0.7,0-7.6,0.3-6.6-0.9c-1.2,0.4-4.6,2.6-5.9,1.2l4.6-2.3c-0.6-0.1-0.7-0.4-0.3-0.8c-1.9,0.1-3.7,0.3-5.5,0.4
	c1.6-0.3,3.1-0.8,4.7-1.2l-6.5-2l10.9,0.6c-1.6,0-3.6-1.9-4.9-1.8c1.4-0.2,2.7-0.5,4.1-0.8c-3.6-1.7-5.8,0-9.2-1
	c1.8-0.8,8.6-1.7,7.5-4.8c0.8,2.4-5.8,0.8-5.9,0.8c0.3-2.2,3.3-3.4,3.6-5.6l-6.9,1.5c-0.4-2.4,5.8-4.3,7.3-4.9
	c-5.5-1.8-2.1,0,0.4-3.1l-6.1,2.9c-2.6-1.8,3.8-2,3.1-2c-1.7-1.4-3.4-1-2.2-3.8c-0.9,0.6-1.6,1.5-1.9,2.6c-0.2-1.8-0.6-3.7-1.2-5.4
	c-0.2,1.8-0.3,4.1-1.4,5.6c-0.6-0.8-1.6-1.3-2.2-2c0,0.6,0,1.1-0.1,1.7l-1.8-0.9c0.5,0.5,4.7,3.6,3.2,4.6c-2,1.2-6.3-2.8-8.2-3.4
	c0.4,0.3,2.4,1.1,0.8,1.5c1.4,0.3,2.7,0.8,3.9,1.4c-2,0-1,0.1,1,0.9c-0.1,0.6-2.2,0.3-2.8,0.2c1.3,1,5.5-0.3,5.8,1.8
	c-1.1,0-6-1.3-8.4-0.3c2.9-0.8,9.4,4.5,9.5,6c-2.4-0.9-4.4,2.8-6.4,0.1c-2.6-3.5-3.1-1.5-7.1,0c3.8,0.6,6.9,4,11.1,3.4
	c0.1,0.4-8.9,3.6-8.6,3.5c1.6,0.2,4.6,0,1.5,1.2c1.3,0.1,8.3,0.5,8.5,1.5c-0.1,0-11.2,1.9-7.7,2.9c-1.9,1.5-4.7-0.1-6.8-0.7
	c-0.8,2.5,2,2.2,3.1,2.2c-0.3,0.8-1,1.5-1.9,1.6c1.5-0.4,13.5-0.3,12.4,3.3c-1.1-0.6-2.3-1.1-3.4-1.7c-2-0.8-2.2,0.6-1.8,1.3
	c0,0.1-0.1,0.3-0.1,0.4c-1.7,0-6-0.8-7.2-0.6c0,0.4,0.2,0.5,0.6,0.4c-6,1.8-0.7,1.5,1.5,1.6c-2,0.6-4.5,0.6-6,2.3l1.9-0.3
	c0,0.1,0,0.2,0,0.3c-0.6,0.3-1.2,0.7-0.8,1l0.7-0.4c-0.2,1.4-0.2,2.8-0.1,4.1l-2.2-2l-0.3,2.6l-0.9-0.1l-0.6-0.5l0.5,0.4
	c-4.2-0.6-6.9-1.3-11.4-1.2c3.4-1.4,8.2-6.1,7.2-6.5c1.5,0.4,3.1,0.3,4.6-0.2c-0.6-0.1-13.4-2-13-2.4c3.3,0.6,6.2-2,9.4-1.4
	c-2.7-2.2-1-2.1,2-1.3l-1.6-0.9l1.5-0.9c-0.7,0-7.6,0.3-6.6-0.9c-1.2,0.4-4.6,2.6-5.9,1.2l4.6-2.3c-0.6-0.1-0.7-0.4-0.3-0.8
	c-1.9,0.1-3.7,0.3-5.5,0.4c1.6-0.3,3.1-0.8,4.7-1.2l-6.5-2l10.9,0.6c-1.6,0-3.6-1.9-4.9-1.8c1.4-0.2,2.7-0.5,4.1-0.8
	c-3.6-1.7-5.8,0-9.2-1c1.8-0.8,8.7-1.7,7.5-4.8c0.8,2.4-5.8,0.8-5.9,0.8c0.3-2.2,3.3-3.4,3.6-5.6l-6.9,1.5c-0.4-2.4,5.8-4.3,7.3-4.9
	c-5.5-1.8-2.1,0,0.4-3.1l-6.1,2.9c-2.6-1.8,3.8-2,3.1-2c-1.7-1.4-3.4-1-2.2-3.8c-0.9,0.6-1.5,1.5-1.9,2.6c-0.2-1.8-0.6-3.7-1.2-5.4
	c-0.2,1.8-0.3,4.1-1.4,5.6c-0.6-0.8-1.6-1.3-2.2-2c0,0.6,0,1.1-0.1,1.7l-1.8-0.9c0.5,0.5,4.7,3.6,3.2,4.6c-2,1.2-6.3-2.8-8.2-3.4
	c0.4,0.3,2.4,1.1,0.8,1.5c1.4,0.3,2.7,0.8,3.9,1.4c-2,0-1,0.1,1,0.9c-0.1,0.6-2.2,0.3-2.8,0.2c1.3,1,5.6-0.3,5.8,1.8
	c-1.1,0-6-1.3-8.4-0.3c2.9-0.8,9.4,4.5,9.5,6c-2.4-0.9-4.4,2.8-6.4,0.1c-2.6-3.5-3.1-1.5-7.1,0c3.8,0.6,6.9,4,11.1,3.4
	c0.1,0.4-8.9,3.6-8.6,3.5c1.6,0.2,4.6,0,1.5,1.2c1.3,0.1,8.3,0.5,8.5,1.5c-0.1,0-11.2,1.9-7.7,2.9c-1.9,1.5-4.7-0.1-6.8-0.7
	c-0.8,2.5,2,2.2,3.1,2.2c-0.2,0.4-0.4,0.7-0.7,1c-1.8,0.2-3.7,0.2-4.3-1.6c-1.4-1,1.1-0.8,0.5-1.7c-1.4-2.3-10.5,0.2-12.8,0.3
	c0.6-3.5,11.9-1,14.2-0.7c-0.6-0.6-0.4-0.8,0.6-0.6c-0.2-0.7-3.5-0.2-3.7-0.9c1.2-0.2,2-1.6,3-1.6c-1.2-0.2-2.3-0.4-3.5-0.6
	c1.6-0.5,3.2-0.7,4.9-0.4c-2.2-1.4-3.2-0.8-6.2-1.2l5-2.3c-1.1,0.6-7.7,1.7-8.3,0c-0.2-0.6,5.9-1.2,6.6-1
	c-0.6-0.2-12.6-2.3-12.6-2.7c1.6-1.6,8.1,1.8,8.8,0.6c-0.2-0.2-1-0.4-0.8-0.8c2.4,0.4,0-2.9,3.8-0.3c-0.5-1.7-1.9-2.9-3.7-3.2
	c2.9-0.2,1.1-0.3,0-1.5c1.3,0.7,1.9,0.4,2.1-0.9l0.1,0.5c1.6,0.1,3.1-0.1,4.6-0.7c-6.4-0.6-9.3-1.8-14.9-1.6
	c3.4-1.4,8.2-6.1,7.2-6.5c1.5,0.4,3.1,0.3,4.6-0.2c-0.6-0.1-13.4-2-13-2.4c3.3,0.6,6.2-2,9.4-1.4c-2.7-2.2-1-2.1,2-1.3l-1.6-0.9
	l1.5-0.9c-0.7,0-7.6,0.3-6.6-0.9c-1.2,0.4-4.6,2.6-5.9,1.2l4.6-2.3c-0.6-0.1-0.7-0.4-0.3-0.8c-1.9,0.1-3.7,0.3-5.5,0.4
	c1.6-0.3,3.1-0.8,4.7-1.2l-6.5-2l10.9,0.6c-1.6,0-3.6-1.9-4.9-1.8c1.4-0.2,2.7-0.5,4.1-0.8c-3.6-1.7-5.8,0-9.2-1
	c1.8-0.8,8.7-1.7,7.5-4.8c0.8,2.4-5.8,0.8-5.9,0.8c0.3-2.2,3.3-3.4,3.6-5.6l-6.9,1.5c-0.4-2.4,5.8-4.3,7.3-4.9
	c-5.5-1.8-2.1,0,0.4-3.1l-6,2.7c-2.6-1.8,3.8-2,3.1-2c-1.6-1.4-3.4-1-2.2-3.8c-0.9,0.6-1.5,1.5-1.9,2.6c-0.2-1.8-0.6-3.7-1.2-5.4
	c-0.2,1.8-0.3,4.1-1.4,5.6c-0.6-0.8-1.6-1.3-2.2-2c0,0.6,0,1.1-0.1,1.7l-1.8-0.9c0.5,0.5,4.8,3.7,3.2,4.6c-2,1.2-6.3-2.8-8.2-3.4
	c0.4,0.3,2.4,1.1,0.8,1.5c1.4,0.3,2.7,0.8,3.9,1.4c-2,0-1,0.1,1,0.9c-0.1,0.6-2.2,0.3-2.8,0.2c1.3,1,5.6-0.3,5.8,1.8
	c-1.1,0-6-1.3-8.4-0.3c2.9-0.8,9.4,4.5,9.5,6c-2.4-0.9-4.4,2.8-6.4,0.1c-2.6-3.5-3.1-1.5-7.1,0c3.8,0.6,6.9,4,11.1,3.4
	c0.1,0.4-8.9,3.6-8.6,3.5c1.6,0.2,4.6,0,1.5,1.2c1.3,0.1,8.3,0.5,8.5,1.5c-0.1,0-11.2,1.9-7.7,2.9c-1.9,1.5-4.7-0.1-6.8-0.7
	c-0.8,2.5,2,2.2,3.1,2.2c-0.3,0.8-1,1.4-1.9,1.6c1.5-0.4,13.5-0.3,12.4,3.3c-1.1-0.6-2.3-1.1-3.4-1.7c-2.6-1-2.2,1.7-1.3,1.6
	c-0.6,0.5-6.4-0.7-7.8-0.5c0,0.4,0.2,0.5,0.6,0.4c-6,1.8-0.7,1.5,1.5,1.6c-2,0.6-4.5,0.6-6,2.3c5.8-0.9,0,0.1,1,1.1
	c6.9-3.8-0.9,0.8,6.4-1.2c-1.9,2.2,6.6,1.4,9.2,1.3c-1.5,0.8-10.5,0.9-13.4,0.6c1.2,0.3,0.9,0.3-0.8,0.7c0.9,0.1,1.8,0.3,2.7,0.6
	c-2,1.5,1.3-0.3-1,1.1c0.5,1.1,9.1-0.6,9.4,1.7c0-0.3-17.5-1-12.2-0.6c-1.2,1-2.6,0.6-4,0.6c-1.5-0.8-3-1.7-4.1-1.7
	c2.1-0.3,4.2-0.7,6.3-1.2c-5.5-2.6-8.9,0-14.1-1.5c2.7-1.2,13.2-2.6,11.5-7.4c1.3,3.7-8.9,1.3-9,1.3c0.5-3.3,5.1-5.3,5.6-8.6
	l-10.5,2.3c-0.6-3.6,8.8-6.5,11.2-7.4c-8.4-2.8-3.2,0,0.6-4.8l-9.2,4.3c-3.9-2.8,5.9-3,4.8-3.1c-2.5-2.2-5.2-1.6-3.4-5.8
	c-1.4,1-2.4,2.4-2.8,4c-0.3-2.8-1-5.6-1.9-8.3c-0.4,2.7-0.4,6.3-2.1,8.6c-1-1.2-2.4-1.9-3.3-3.1c0,0.9,0,1.7-0.1,2.6l-2.7-1.4
	c0.8,0.8,7.3,5.6,4.9,7.1c-3.1,1.9-9.6-4.3-12.5-5.2c0.6,0.5,3.7,1.7,1.2,2.3c2.1,0.5,4.1,1.3,6,2.2c-3,0-1.5,0.2,1.6,1.4
	c-0.2,0.8-3.4,0.4-4.3,0.4c2,1.5,8.5-0.5,8.9,2.7c-1.7,0-9.2-2-12.8-0.5c4.4-1.3,14.4,6.9,14.6,9.2c-3.6-1.4-6.7,4.3-9.9,0.2
	s-4.4-3.2-7.9-1.4l-1.2-0.6l2.2-1.3c-1.1,0.1-11.7,0.5-10.1-1.4c-1.9,0.6-7,4-9,1.8l7.1-3.5c-0.9-0.2-1-0.6-0.4-1.3
	c-2.8,0.2-5.6,0.4-8.5,0.6c2.4-0.4,4.8-1.3,7.2-1.8l-10-3l16.7,0.9c-2.5,0-5.5-2.8-7.5-2.8c2.1-0.3,4.2-0.7,6.3-1.2
	c-5.5-2.6-8.9,0-14.1-1.5c2.7-1.2,13.2-2.6,11.5-7.4c1.3,3.7-8.9,1.3-9,1.3c0.5-3.3,5.1-5.3,5.6-8.6l-10.5,2.3
	c-0.6-3.6,8.8-6.5,11.2-7.4c-8.4-2.8-3.2,0,0.6-4.8l-9.3,4.4c-3.9-2.8,5.9-3,4.8-3.1c-2.5-2.2-5.2-1.6-3.4-5.8c-1.4,1-2.4,2.4-2.8,4
	c-0.3-2.8-1-5.6-1.9-8.3c-0.4,2.7-0.4,6.3-2.1,8.6c-1-1.2-2.4-1.9-3.3-3.1c0,0.9,0,1.7-0.1,2.6l-2.7-1.4c0.8,0.8,7.3,5.6,4.9,7.1
	c-3.1,1.9-9.6-4.3-12.5-5.2c0.6,0.5,3.7,1.7,1.2,2.3c2.1,0.5,4.1,1.2,6,2.2c-3,0-1.5,0.2,1.6,1.4c-0.2,0.8-3.4,0.4-4.3,0.4
	c2,1.5,8.5-0.5,8.9,2.7c-1.7,0-9.2-2-12.8-0.5c4.4-1.3,14.4,6.9,14.6,9.2c-3.6-1.4-6.7,4.3-9.9,0.2c-4.1-5.3-4.8-2.4-10.8,0
	c5.9,0.9,10.5,6.1,17,5.3c0.2,0.6-13.6,5.6-13.2,5.4c2.4,0.3,7-0.1,2.3,1.9c2,0.1,12.7,0.7,13.1,2.4c-0.1,0.1-17.1,3-11.8,4.4
	c-3,2.3-7.2-0.2-10.4-1.1c-1.3,3.8,3,3.3,4.8,3.3c-0.5,1.3-1.6,2.2-2.9,2.5c2.3-0.6,20.6-0.5,18.9,5c-1.7-0.9-3.5-1.7-5.2-2.6
	c-3.9-1.5-3.3,2.6-2,2.5c-0.9,0.8-9.8-1.1-12-0.8c0,0.5,0.3,0.8,0.9,0.7c-9.1,2.7-1.1,2.3,2.3,2.4c-3,0.9-7,1-9.2,3.6
	c8.8-1.4,0,0.2,1.5,1.6c10.6-5.9-1.4,1.2,9.7-1.8c-3,3.4,10.1,2.1,14.1,2c-2.3,1.2-16,1.3-20.4,0.9c1.8,0.5,1.4,0.5-1.3,1.1
	c1.4,0.2,2.8,0.5,4.2,0.9c-3.1,2.3,2-0.5-1.5,1.8c0.8,1.6,14-0.9,14.4,2.6c0-0.4-15.7-1-19.4-1.1c-0.1-0.2-0.1-0.5-0.2-0.7
	c0,0.2-0.1,0.5-0.1,0.7c-0.6,0-0.7,0,0,0.1c0,0.2-0.1,0.5-0.1,0.7c-2.1,0.8-4.4-0.2-6.5,0.7c1.6,2,2.5-1,3.4,1.9
	c-0.8-0.4-2.5-0.2-2.4,0.9c1.7-0.1,3.5-0.2,5.2-0.1c-0.2,2.8-0.9,5.5-1.9,8.1c-1,0.2-2,0.5-3,0.9c-1.2-1.1-2.5-2.1-3.6-3.2
	c0.8,0,1.6,0,2.4,0.1c-3.4-2.2-5-1.1-9.4-1.9l7.7-3.5c-1.7,0.9-11.8,2.6-12.7,0c-0.3-1,9-1.8,10.1-1.6c-0.9-0.3-19.4-3.5-19.3-4.1
	c2.4-2.5,12.3,2.7,13.5,1c-0.4-0.2-1.6-0.6-1.3-1.2c3.7,0.7,0-4.4,5.7-0.5c-0.8-2.5-3-4.4-5.6-4.9c4.4-0.3,1.7-0.5,0-2.3
	c1.9,1,3,0.5,3.2-1.4l0.1,0.7c2.4,0.2,4.8-0.2,7-1c-9.9-0.9-14.2-2.7-22.8-2.4c5.2-2.1,12.6-9.3,11-10c2.3,0.6,4.8,0.5,7-0.3
	c-0.9-0.1-20.5-3.1-19.9-3.6c5.1,0.9,9.5-3.1,14.4-2.2c-4.2-3.4-1.4-3.3,3.1-2l-2.5-1.4l2.3-1.3c-1.1,0.1-11.7,0.5-10.1-1.4
	c-1.9,0.6-7,4-9,1.8l7.1-3.5c-0.9-0.2-1-0.6-0.4-1.3c-2.8,0.2-5.6,0.4-8.5,0.6c2.4-0.4,4.8-1.3,7.2-1.8l-10-3l16.7,0.9
	c-2.5,0-5.6-2.8-7.5-2.8c2.1-0.3,4.2-0.7,6.3-1.2c-5.4-2.6-8.9,0-14.1-1.5c2.7-1.2,13.2-2.6,11.5-7.4c1.3,3.7-8.9,1.3-9.1,1.3
	c0.5-3.3,5.1-5.3,5.6-8.6l-10.5,2.3c-0.6-3.6,8.8-6.5,11.2-7.4c-8.4-2.8-3.2,0,0.6-4.8l-9.2,4.4c-3.9-2.8,5.9-3,4.8-3.1
	c-2.5-2.2-5.2-1.6-3.4-5.8c-1.4,1-2.4,2.4-2.8,4c-0.3-2.8-1-5.6-1.9-8.3c-0.4,2.7-0.4,6.2-2.1,8.6c-1-1.2-2.4-1.9-3.3-3.1
	c0,0.8-0.1,1.7-0.1,2.6l-2.7-1.4c0.8,0.8,7.3,5.6,4.9,7.1c-3.1,1.9-9.6-4.3-12.5-5.2c0.6,0.5,3.7,1.7,1.2,2.3c2.1,0.5,4.1,1.2,6,2.2
	c-3,0-1.5,0.2,1.6,1.4c-0.2,0.8-3.4,0.4-4.3,0.4c2,1.5,8.5-0.5,8.9,2.7c-1.7,0-9.2-2-12.8-0.5c4.4-1.3,14.4,6.9,14.6,9.2
	c-3.6-1.4-6.7,4.3-9.9,0.2s-4.3-3.3-7.4-1.6c-0.2-0.6-0.3-1.2-0.6-1.8c-0.1,0.7-0.1,1.4-0.3,2.2c-0.8,0.4-1.7,0.8-2.6,1.2
	c0.8,0.1,1.5,0.3,2.3,0.6c-0.2,0.6-0.4,1.2-0.8,1.7c-0.6-0.8-1.6-1.3-2.2-2c0,0.6,0,1.1-0.1,1.7l-1.8-0.9c0.5,0.5,4.8,3.7,3.2,4.6
	c-2,1.2-6.3-2.8-8.2-3.4c0.4,0.3,2.4,1.1,0.8,1.5c1.4,0.3,2.7,0.8,3.9,1.4c-2,0-1,0.1,1,0.9c-0.1,0.6-2.2,0.3-2.8,0.2
	c1.3,1,5.6-0.3,5.8,1.8c-1.1,0-6-1.3-8.4-0.3c2.9-0.8,9.4,4.5,9.6,6c-2.4-0.9-4.4,2.8-6.4,0.1c-2.6-3.5-3.1-1.5-7.1,0
	c3.8,0.6,6.9,4,11.1,3.4c-0.7,0.5-1.5,0.9-2.4,1.2l-0.6-0.2c-0.1,0.2-0.1,0.3-0.1,0.5c-2.5,1-5.6,2.1-5.5,2.1
	c0.5,0.1,1.2,0.1,1.8,0.1c-0.1,0.4-0.1,0.7-0.1,1.1L173,127h0.1c-0.3,3,0.2,4.2-1.7,2c0.3-0.1,0.5-0.1,0.8-0.2l-1.1-0.1l-0.1-0.1
	v0.1c-5.7-0.6-8.5-1.6-13.8-1.5c3.4-1.4,8.2-6.1,7.2-6.5c1.5,0.4,3.1,0.3,4.6-0.2c-0.6-0.1-13.4-2-13-2.3c3.3,0.6,6.2-2,9.4-1.4
	c-2.7-2.2-0.9-2.2,2-1.3l-1.6-0.9l1.5-0.8c-0.7,0-7.6,0.3-6.6-0.9c-0.6,0.2-1.6,0.7-2.6,1.2c-1,0-2,0-3,0.2c-0.1,0-0.1-0.1-0.2-0.2
	l4.6-2.3c-0.6-0.1-0.7-0.4-0.3-0.8c-1.9,0.1-3.7,0.3-5.5,0.4c1.6-0.3,3.1-0.8,4.7-1.2l-6.5-2l10.9,0.6c-1.6,0-3.6-1.9-4.9-1.8
	c1.4-0.2,2.7-0.5,4.1-0.8c-3.6-1.7-5.8,0-9.2-1c1.8-0.8,8.6-1.7,7.5-4.8c0.8,2.4-5.8,0.8-5.9,0.8c0.3-2.2,3.3-3.4,3.6-5.6l-6.9,1.5
	c-0.4-2.4,5.8-4.3,7.3-4.9c-5.5-1.8-2.1,0,0.4-3.1l-6.1,2.9c-2.6-1.8,3.8-2,3.1-2c-1.7-1.4-3.4-1-2.2-3.8c-0.9,0.6-1.6,1.5-1.9,2.6
	c-0.2-1.8-0.6-3.7-1.2-5.4c-0.2,1.8-0.3,4.1-1.4,5.6c-0.6-0.8-1.6-1.3-2.2-2c0,0.6,0,1.1-0.1,1.7l-1.8-0.9c0.2,0.2,0.8,0.7,1.4,1.2
	c-1.5,0.3-2.9,0.7-4.3,1.1c-0.7-0.5-1.4-0.8-2.1-1.1c0.4,0.3,2.4,1.1,0.8,1.5h0.1c-2.4,0.9-4.7,2-6.8,3.4c-0.1-0.5-0.2-1.1-0.3-1.6
	c0.5-0.4,0.8-1,0.8-1.7c0,0.6-0.3,1.1-0.8,1.4c-0.1-0.8-0.4-1.7-0.7-2.4c0.1,1,0,2.1-0.2,3.1c-2.8,1.6-8.7,2.9-14.3,3.9
	c0.2-0.3,0.4-0.7,0.4-1.1l-6.9,1.5c-0.3-1.8,3.4-3.4,5.8-4.3c3.5,1.1,6.6,1.7,7.8-0.7c-0.8-3.4-3.7-4.9-8.9-4.5
	c3.5-1.8,41.1-10.6,23.3-8c5.1-0.8,8.7-3.3,10.7-7.6c-6.2,0.7-12.2,2.7-17.5,6c1.5-1.3,6.9-5.6,3.9-7.1c2,1.1-30.1,13.1-31.9,13.6
	c0.6-5.8,24-22.8,22.1-24.6c-5.9,0.8-11.5,3.3-16,7.2c5.2-12.3-6.7,0.6-7.2,1.6c0.1-4.5,5.2-16.8,10.4-22.6
	c-0.2,0.2-0.4,0.4-0.5,0.7c1.3-0.5,2.3-1.4,2.9-2.7c1.3-0.7,2.7-0.9,4.2-0.8c-1.2-0.8-2.6-0.5-4.1,0.5c0.2-0.7,0.2-1.4,0-2
	c-3.1-2.8-10.1,8.2-13.2,9c4.3-6.8,8.8-13.6,13.5-20.1c-2.3,0.4-4.5,1.4-6.4,2.9c2-2.8,3.7-6,1.7-6.8c-4.3,0.4-7,3.2-8,8.3
	c0.3-1.9,7.1-38.5-5.3-34.6c-9.2,2.9,6.5,22.9-1.3,29.5C90.8,15.6,98,38,98.5,41.3c-5.4-5.3-11.5-9.8-18-13.6
	c3.2,2.7,16.1,21.3,16.6,24.5c-1.4-0.9-11.1-9.3-15.7-10.2c4.3,0.8,16.1,17.5,16.6,22.6c-2.1-0.9-15.1-12-15.2-5.5
	c0-0.3,8.6,6.9,6.2,5.5c0.1,0-2,0.2-4.7,0.4c-1.8,0.2-3.8,0.3-5.5,0.5c0.8-1.8,3.2-3,3.4-4.9l-6.9,1.5c-0.4-2.4,5.8-4.3,7.3-4.9
	c-5.5-1.8-2.1,0,0.4-3.1l-6.1,2.9c-2.6-1.8,3.8-2,3.1-2c-1.7-1.4-3.4-1-2.2-3.8c-0.9,0.6-1.5,1.5-1.8,2.6c-0.2-1.8-0.6-3.7-1.2-5.4
	c-0.2,1.8-0.3,4.1-1.4,5.6c-0.6-0.8-1.6-1.3-2.2-2c0,0.6,0,1.1-0.1,1.7l-1.8-0.9c0.5,0.5,4.8,3.7,3.2,4.6c-2,1.2-6.3-2.8-8.2-3.4
	c0.4,0.3,2.4,1.1,0.8,1.5c1.4,0.3,2.7,0.8,3.9,1.4c-2,0-1,0.1,1,0.9c-0.2,0.5-2.2,0.3-2.8,0.2c1.3,1,5.6-0.3,5.8,1.8
	c-1.1,0-6-1.3-8.4-0.3c2.9-0.8,9.4,4.5,9.6,6c-2.4-0.9-4.4,2.8-6.4,0.1c-2.7-3.5-3.1-1.5-7.1,0c3.8,0.6,6.9,4,11.1,3.4
	c0.1,0.4-7.8,3.2-8.6,3.5c-4.1-1.3-7.1-1.7-7.6-0.3c2.7,2.4,5.7,4.6,8.8,6.4c-1.8,0.4-4-0.7-5.7-1.2c-0.8,2.5,2,2.2,3.1,2.2
	c-0.3,0.8-1,1.5-1.9,1.6c1.4-0.3,13.4-0.3,12.3,3.3c-1.1-0.6-2.3-1.1-3.4-1.7c-2.6-1-2.2,1.7-1.3,1.6c-0.6,0.5-6.4-0.7-7.8-0.5
	c0,0.3,0.2,0.5,0.6,0.4c-6,1.8-0.7,1.5,1.5,1.6c-2,0.6-4.5,0.6-6,2.3c5.8-0.9,0,0.1,1,1.1c6.9-3.8-0.9,0.8,6.4-1.2
	c-0.9,1,0.4,1.4,2.3,1.5c0.1,0.2,0.2,0.4,0.3,0.5c-2.2,0.1-4.5,0-6.7-0.1c1.2,0.3,0.9,0.3-0.8,0.7c0.9,0.1,1.8,0.3,2.7,0.6
	c-1.8,1.3,0.6,0.1-0.4,0.8l-0.4,0.1l0.2,0.1l-0.3,0.2c0.1,0.3,0.8,0.4,1.7,0.4l1.9,0.8c-4.5-0.2-9.7-0.4-6.5-0.2
	c-1.2,1-2.6,0.6-4,0.7c-1.5-0.8-3-1.7-4.1-1.7c2.1-0.3,4.2-0.7,6.3-1.2c-5.5-2.6-8.9,0-14.1-1.5c2.7-1.2,13.2-2.6,11.5-7.4
	c1.3,3.7-8.9,1.3-9,1.3c0.5-3.3,5.1-5.3,5.6-8.6l-10.5,2.3c-0.5-3.6,8.9-6.5,11.2-7.5c-8.3-2.8-3.2,0,0.6-4.8l-9.3,4.5
	c-3.9-2.8,5.8-3,4.8-3.1c-2.5-2.2-5.2-1.6-3.4-5.8c-1.4,1-2.4,2.4-2.8,4c-0.3-2.8-1-5.6-1.9-8.3c-0.4,2.7-0.4,6.3-2.1,8.6
	c-1-1.2-2.4-1.9-3.3-3.1c0,0.9,0,1.7-0.1,2.5L30,63.2c0.8,0.8,7.3,5.6,4.9,7.1c-3.1,1.9-9.6-4.3-12.5-5.2c0.6,0.5,3.7,1.7,1.2,2.3
	c2.1,0.5,4.1,1.2,6,2.2c-3,0-1.5,0.2,1.6,1.4c-0.2,0.8-3.4,0.4-4.3,0.4c2,1.5,8.5-0.5,8.9,2.7c-1.7,0-9.2-2-12.8-0.5
	c4.4-1.3,14.4,6.9,14.6,9.2c-3.7-1.4-6.7,4.3-9.9,0.2s-4.4-3.2-7.9-1.4l-1.2-0.6l2.3-1.3c-1.1,0.1-11.7,0.5-10.1-1.4
	c-1.9,0.6-7,4-9,1.8L9,76.5c-0.9-0.2-1-0.6-0.4-1.3c-2.8,0.2-5.7,0.4-8.5,0.6c2.4-0.4,4.8-1.3,7.2-1.8L-2,71.2v106.5l0,0v127.4l0,0
	v83h861.2c1.3-1,2.7-1.8,4.3-2.3c1,0.8,2.3,1.6,3.2,2.3h1.7c0.7-0.7,2-0.9,3.9-0.4c0,0,0,0,0,0l-1,0.3h43.1
	c-1.5-0.5,2.8,0.2,2.7-1.3h-3l0.7-0.4c4,0.3,8,0.9,12,1.7h87.7c0.6-0.4,0.9-0.9,0.7-1.4c2.7-0.8,5-1.5,6.4-1.9l0.7-0.1
	c-0.8,0.5-1.1,1.5-0.7,2.4c0.7,0.7,2-0.2,2.4-0.6c-0.4,0.4-0.5,1.1-0.2,1.6h1.3c0.2-0.2,0.3-0.3,0.4-0.5c0.1,0.2,0.1,0.4,0.3,0.5h3
	c3.3-1.1,8-4.2,9.2-2.4c-0.7,0.3-3.3,1.2-6.2,2.4h369.7v-200l0,0v-87.6C1393.3,107.4,1384.7,113.7,1375.7,119.4z M70.7,149.6
	c0.1-0.1,0-0.4-0.4-0.8l0,0C70.7,149.2,70.8,149.5,70.7,149.6z M21.3,103.1L21.3,103.1L21.3,103.1z M1316.7,228.1l-0.1,0.1
	L1316.7,228.1L1316.7,228.1z M1271.1,150.9c0.1,0.2,0.2,0.3,0.3,0.5C1271.3,151.2,1271.2,151,1271.1,150.9z M1079.7,329.9
	L1079.7,329.9l-2,0.5L1079.7,329.9z M852.3,349.9L852.3,349.9c0.2,0.7,0.3,1.4,0.4,2.1C852.5,351.3,852.4,350.6,852.3,349.9z
	 M344.9,323.8L344.9,323.8z M340.4,209.6L340.4,209.6c0.6-0.3,1.2-0.6,1.8-1C341.6,208.9,341,209.3,340.4,209.6L340.4,209.6z
	 M819.3,150.7c0.2,0,0.5,0,0.7,0.1C819.8,150.7,819.6,150.7,819.3,150.7z"/>
<path class="st0" d="M8,41.8l-9.3,4.5c-0.3-0.2-0.5-0.4-0.7-0.7V51c2.7-2.1,7.8-3.7,9.4-4.4C-1,43.8,4.2,46.7,8,41.8z"/>
<path class="st0" d="M1067.3,110.5c0.2,0.3,0.5,0.5,0.7,0.7C1067.7,110.9,1067.4,110.6,1067.3,110.5z"/>
<path class="st0" d="M907.7,112.3c0.4-0.6,0.9-1,1.6-1.2C908.6,111.2,908,111.7,907.7,112.3z"/>
<path class="st0" d="M1152.1,89.7c0.4-0.6,0.9-1,1.6-1.2C1153,88.6,1152.4,89.1,1152.1,89.7z"/>
<path class="st0" d="M1195,113.3c0.4-0.6,0.9-1,1.6-1.2C1195.9,112.2,1195.3,112.7,1195,113.3z"/>
<path class="st0" d="M1274.4,133.5c0.2-0.4,0.6-0.7,1-0.8C1275,132.8,1274.6,133.1,1274.4,133.5z"/>
<path class="st0" d="M1233,128.6l-0.9-0.2C1232.1,128.5,1232.4,128.6,1233,128.6z"/>
<path class="st0" d="M1237.5,98.8c0.2-0.4,0.6-0.7,1-0.8C1238.1,98.1,1237.7,98.4,1237.5,98.8z"/>
<path class="st0" d="M1083.8,78.6c0.4-0.6,0.9-1,1.6-1.2C1084.7,77.5,1084.1,77.9,1083.8,78.6z"/>
<path class="st0" d="M1029.9,85c-1-1.5-2.3-2.9-2.7-3.4C1027.9,82.8,1028.8,84,1029.9,85z"/>
<path class="st0" d="M1045.1,106.1c0.3,0.2,0.5,0.5,0.6,0.9C1045.6,106.7,1045.3,106.4,1045.1,106.1z"/>
<path class="st0" d="M1369.7,109.6c-0.4-0.8-1.2-1.4-2.1-1.7C1368.4,108.3,1369.2,108.8,1369.7,109.6z"/>
<path class="st0" d="M80.6,27.7c-0.2-0.2-0.4-0.3-0.6-0.4L80.6,27.7z"/>
</svg>
