<?xml version="1.0" encoding="utf-8"?>
<!-- Generator: Adobe Illustrator 21.0.0, SVG Export Plug-In . SVG Version: 6.00 Build 0)  -->
<svg version="1.1" id="Layer_1" xmlns="http://www.w3.org/2000/svg" xmlns:xlink="http://www.w3.org/1999/xlink" x="0px" y="0px"
	 viewBox="0 0 27.9 16.1" style="enable-background:new 0 0 27.9 16.1;" xml:space="preserve">
<style type="text/css">
	.st0{fill:#EEE5D6;}
</style>
<path class="st0" d="M0.5,0.4C-0.2,1-0.2,2.1,0.4,2.7l12.2,12.8c0.1,0.1,0.2,0.1,0.2,0.2c0.1,0.1,0.2,0.1,0.3,0.2
	c0.1,0,0.2,0,0.3,0.1c0.1,0,0.2,0.1,0.3,0.1s0.2,0,0.3-0.1c0.1,0,0.2,0,0.3-0.1c0.1,0,0.2-0.1,0.3-0.2c0.1-0.1,0.2-0.1,0.3-0.2
	L27.5,2.8C27.8,2.5,28,2.1,28,1.7s-0.2-0.8-0.5-1.2c-0.6-0.6-1.7-0.6-2.3,0L13.8,12.1L2.8,0.5C2.2-0.1,1.2-0.2,0.5,0.4z"/>
</svg>
